<svg width="17" height="17" viewBox="0 0 17 17" fill="none" xmlns="http://www.w3.org/2000/svg">
<path d="M12.8492 15.3143C12.2259 15.4984 11.4892 15.5834 10.625 15.5834H6.37505C5.51088 15.5834 4.77421 15.4984 4.15088 15.3143C4.30671 13.4726 6.19796 12.0205 8.50005 12.0205C10.8021 12.0205 12.6934 13.4726 12.8492 15.3143Z" stroke="#666666" stroke-linecap="round" stroke-linejoin="round"/>
<path d="M10.625 1.41675H6.37496C2.83329 1.41675 1.41663 2.83341 1.41663 6.37508V10.6251C1.41663 13.3026 2.22413 14.7688 4.15079 15.3142C4.30663 13.4726 6.19788 12.0205 8.49996 12.0205C10.802 12.0205 12.6933 13.4726 12.8491 15.3142C14.7758 14.7688 15.5833 13.3026 15.5833 10.6251V6.37508C15.5833 2.83341 14.1666 1.41675 10.625 1.41675ZM8.49996 10.0372C7.09746 10.0372 5.96412 8.89676 5.96412 7.49426C5.96412 6.09176 7.09746 4.95841 8.49996 4.95841C9.90246 4.95841 11.0358 6.09176 11.0358 7.49426C11.0358 8.89676 9.90246 10.0372 8.49996 10.0372Z" stroke="#666666" stroke-linecap="round" stroke-linejoin="round"/>
<path d="M11.0358 7.4941C11.0358 8.8966 9.90245 10.037 8.49995 10.037C7.09745 10.037 5.96411 8.8966 5.96411 7.4941C5.96411 6.0916 7.09745 4.95825 8.49995 4.95825C9.90245 4.95825 11.0358 6.0916 11.0358 7.4941Z" stroke="#666666" stroke-linecap="round" stroke-linejoin="round"/>
</svg>
