<svg width="63" height="63" viewBox="0 0 63 63" fill="none" xmlns="http://www.w3.org/2000/svg">
<g filter="url(#filter0_d_2_1204)">
<circle cx="31.5" cy="31.5" r="19.5" fill="white"/>
<path d="M31.5 15.3428C22.5772 15.3428 15.3429 22.5772 15.3429 31.5C15.3429 40.4228 22.5772 47.6571 31.5 47.6571C40.4228 47.6571 47.6571 40.4228 47.6571 31.5C47.6571 22.5772 40.4228 15.3428 31.5 15.3428ZM39.5786 32.8464H32.8464V39.5785C32.8464 40.3231 32.2432 40.925 31.5 40.925C30.7568 40.925 30.1536 40.3231 30.1536 39.5785V32.8464H23.4214C22.6782 32.8464 22.075 32.2446 22.075 31.5C22.075 30.7554 22.6782 30.1535 23.4214 30.1535H30.1536V23.4214C30.1536 22.6768 30.7568 22.075 31.5 22.075C32.2432 22.075 32.8464 22.6768 32.8464 23.4214V30.1535H39.5786C40.3218 30.1535 40.925 30.7554 40.925 31.5C40.925 32.2446 40.3218 32.8464 39.5786 32.8464Z" fill="#F79D61"/>
</g>
<defs>
<filter id="filter0_d_2_1204" x="0.857143" y="0.857143" width="61.2857" height="61.2857" filterUnits="userSpaceOnUse" color-interpolation-filters="sRGB">
<feFlood flood-opacity="0" result="BackgroundImageFix"/>
<feColorMatrix in="SourceAlpha" type="matrix" values="0 0 0 0 0 0 0 0 0 0 0 0 0 0 0 0 0 0 127 0" result="hardAlpha"/>
<feOffset/>
<feGaussianBlur stdDeviation="5.57143"/>
<feComposite in2="hardAlpha" operator="out"/>
<feColorMatrix type="matrix" values="0 0 0 0 0 0 0 0 0 0 0 0 0 0 0 0 0 0 0.2 0"/>
<feBlend mode="normal" in2="BackgroundImageFix" result="effect1_dropShadow_2_1204"/>
<feBlend mode="normal" in="SourceGraphic" in2="effect1_dropShadow_2_1204" result="shape"/>
</filter>
</defs>
</svg>