<svg width="414" height="266" viewBox="0 0 414 266" fill="none" xmlns="http://www.w3.org/2000/svg">
<mask id="mask0_48_790" style="mask-type:alpha" maskUnits="userSpaceOnUse" x="0" y="0" width="414" height="258">
<rect width="414" height="258" transform="matrix(1 0 0 -1 0 258)" fill="url(#paint0_linear_48_790)"/>
</mask>
<g mask="url(#mask0_48_790)">
<path opacity="0.2" d="M362.561 159.995C382.566 192.463 410.093 169.492 419.808 199.859V-0.377182H136.968C157.881 42.3393 212.085 71.117 245.321 71.117C298.517 71.117 322.187 38.9579 352.235 76.4758C375.37 105.361 346.615 134.116 362.561 159.995Z" fill="url(#paint1_linear_48_790)"/>
<path d="M322.305 64.1898C376.619 64.1898 408.917 115.12 418.632 145.487V-0.115768H68.7419C87.3017 12.301 96.1187 3.14418 122.33 12.301C152.261 22.7571 186.374 -6.78159 228.068 17.1369C262.531 36.9072 248.066 64.1898 322.305 64.1898Z" fill="url(#paint2_linear_48_790)"/>
<rect width="414" height="268" transform="matrix(1 0 0 -1 1.99988 268)" fill="url(#paint3_linear_48_790)"/>
</g>
<defs>
<linearGradient id="paint0_linear_48_790" x1="207" y1="0" x2="207" y2="258" gradientUnits="userSpaceOnUse">
<stop stop-color="#C4C4C4" stop-opacity="0"/>
<stop offset="0.572917" stop-color="#C4C4C4"/>
</linearGradient>
<linearGradient id="paint1_linear_48_790" x1="158.011" y1="5.37384" x2="426.736" y2="107.06" gradientUnits="userSpaceOnUse">
<stop stop-color="#F0807C"/>
<stop offset="1" stop-color="#F7A15E"/>
</linearGradient>
<linearGradient id="paint2_linear_48_790" x1="164.547" y1="-4.55964" x2="433.271" y2="97.1268" gradientUnits="userSpaceOnUse">
<stop stop-color="#F7A05F"/>
<stop offset="1" stop-color="#F0817B"/>
</linearGradient>
<linearGradient id="paint3_linear_48_790" x1="207" y1="0" x2="207" y2="268" gradientUnits="userSpaceOnUse">
<stop stop-color="#EFDDD2"/>
<stop offset="1" stop-color="white" stop-opacity="0"/>
</linearGradient>
</defs>
</svg>
