<svg width="38" height="38" viewBox="0 0 38 38" fill="none" xmlns="http://www.w3.org/2000/svg">
<rect width="38" height="38" rx="6" fill="#E1E8F5"/>
<path d="M21.55 9H16.45C14.65 9 14.25 9.90001 14.02 11.01L13.2 14.93H24.8L23.98 11.01C23.75 9.90001 23.35 9 21.55 9Z" stroke="#214A9F" stroke-width="1.5" stroke-linecap="round" stroke-linejoin="round"/>
<path d="M26.24 21.32C26.32 22.17 25.64 22.9 24.77 22.9H23.41C22.63 22.9 22.52 22.57 22.38 22.15L22.23 21.72C22.03 21.13 21.9 20.73 20.85 20.73H17.14C16.1 20.73 15.94 21.18 15.76 21.72L15.61 22.15C15.47 22.56 15.36 22.9 14.58 22.9H13.22C12.35 22.9 11.67 22.17 11.75 21.32L12.16 16.9C12.26 15.81 12.47 14.92 14.37 14.92H23.62C25.52 14.92 25.73 15.81 25.83 16.9L26.24 21.32Z" stroke="#214A9F" stroke-width="1.5" stroke-linecap="round" stroke-linejoin="round"/>
<path d="M13.2 12.75H12.47" stroke="#214A9F" stroke-width="1.5" stroke-linecap="round" stroke-linejoin="round"/>
<path d="M25.53 12.75H24.8" stroke="#214A9F" stroke-width="1.5" stroke-linecap="round" stroke-linejoin="round"/>
<path d="M14.65 17.83H16.82" stroke="#214A9F" stroke-width="1.5" stroke-linecap="round" stroke-linejoin="round"/>
<path d="M21.18 17.83H23.35" stroke="#214A9F" stroke-width="1.5" stroke-linecap="round" stroke-linejoin="round"/>
<path d="M19 24V25" stroke="#214A9F" stroke-width="1.5" stroke-linecap="round" stroke-linejoin="round"/>
<path d="M19 28V29" stroke="#214A9F" stroke-width="1.5" stroke-linecap="round" stroke-linejoin="round"/>
<path d="M10 25L9 29" stroke="#214A9F" stroke-width="1.5" stroke-linecap="round" stroke-linejoin="round"/>
<path d="M28 25L29 29" stroke="#214A9F" stroke-width="1.5" stroke-linecap="round" stroke-linejoin="round"/>
</svg>