<svg width="38" height="38" viewBox="0 0 38 38" fill="none" xmlns="http://www.w3.org/2000/svg">
<rect width="38" height="38" rx="6" fill="#FFE8F5"/>
<path d="M19 27.5H14C11 27.5 9 26 9 22.5V15.5C9 12 11 10.5 14 10.5H24C27 10.5 29 12 29 15.5V18.5" stroke="#B2427D" stroke-width="1.5" stroke-miterlimit="10" stroke-linecap="round" stroke-linejoin="round"/>
<path d="M24 16L20.87 18.5C19.84 19.32 18.15 19.32 17.12 18.5L14 16" stroke="#B2427D" stroke-width="1.5" stroke-miterlimit="10" stroke-linecap="round" stroke-linejoin="round"/>
<path d="M26.21 21.77L22.67 25.31C22.53 25.45 22.4 25.71 22.37 25.9L22.18 27.25C22.11 27.74 22.45 28.0801 22.94 28.0101L24.29 27.82C24.48 27.79 24.75 27.66 24.88 27.52L28.42 23.9801C29.03 23.3701 29.32 22.6601 28.42 21.7601C27.53 20.8701 26.82 21.16 26.21 21.77Z" stroke="#B2427D" stroke-width="1.5" stroke-miterlimit="10" stroke-linecap="round" stroke-linejoin="round"/>
<path d="M25.7 22.28C26 23.36 26.84 24.2 27.92 24.5" stroke="#B2427D" stroke-width="1.5" stroke-miterlimit="10" stroke-linecap="round" stroke-linejoin="round"/>
</svg>
