<svg width="38" height="38" viewBox="0 0 38 38" fill="none" xmlns="http://www.w3.org/2000/svg">
<rect width="38" height="38" rx="6" fill="#FFF8E4"/>
<path d="M21 13.2V17C18.21 17.05 17.05 18.21 17 21H13.2C10.2 21 9 19.8 9 16.8V13.2C9 10.2 10.2 9 13.2 9H16.8C19.8 9 21 10.2 21 13.2Z" stroke="#FECC41" stroke-width="1.5" stroke-linecap="round" stroke-linejoin="round"/>
<path d="M13.96 12.87C13.43 12.51 12.73 12.51 12.2 12.89" stroke="#FECC41" stroke-width="1.5" stroke-miterlimit="10" stroke-linecap="round" stroke-linejoin="round"/>
<path d="M17.96 12.87C17.43 12.51 16.73 12.51 16.2 12.89" stroke="#FECC41" stroke-width="1.5" stroke-miterlimit="10" stroke-linecap="round" stroke-linejoin="round"/>
<path d="M15.16 18.42H12.84C12.54 18.42 12.3 18.18 12.3 17.88C12.3 16.39 13.51 15.1801 15 15.1801C15.64 15.1801 16.23 15.4 16.69 15.77" stroke="#FECC41" stroke-width="1.5" stroke-miterlimit="10" stroke-linecap="round" stroke-linejoin="round"/>
<path d="M29 21.2V24.8C29 27.8 27.8 29 24.8 29H21.2C18.2 29 17 27.8 17 24.8V21C17.05 18.21 18.21 17.05 21 17H24.8C27.8 17 29 18.2 29 21.2Z" stroke="#FECC41" stroke-width="1.5" stroke-linecap="round" stroke-linejoin="round"/>
<path d="M21.96 20.62C21.43 20.98 20.73 20.98 20.2 20.6" stroke="#FECC41" stroke-width="1.5" stroke-miterlimit="10" stroke-linecap="round" stroke-linejoin="round"/>
<path d="M25.96 20.62C25.43 20.98 24.73 20.98 24.2 20.6" stroke="#FECC41" stroke-width="1.5" stroke-miterlimit="10" stroke-linecap="round" stroke-linejoin="round"/>
<path d="M20.84 23.1801H25.16C25.46 23.1801 25.7 23.42 25.7 23.72C25.7 25.21 24.49 26.42 23 26.42C21.51 26.42 20.3 25.21 20.3 23.72C20.3 23.42 20.54 23.1801 20.84 23.1801Z" stroke="#FECC41" stroke-width="1.5" stroke-miterlimit="10" stroke-linecap="round" stroke-linejoin="round"/>
</svg>