<svg width="168" height="40" viewBox="0 0 168 40" fill="none" xmlns="http://www.w3.org/2000/svg">
<path d="M34.0532 0H6.05392C2.74319 0 0.0472991 2.69588 0.0472991 6.00662C0.0472991 6.81065 0.662146 7.56739 1.1824 8.13494L17.9252 21.9454C18.8239 22.7022 20.1482 22.6549 21.0468 21.8508L25.6818 17.5469C27.0534 16.2699 26.9588 14.0943 25.4926 12.9592C24.2629 12.0132 22.5603 12.1078 21.4725 13.2429C20.4792 14.2361 18.8712 14.3307 17.8307 13.3848L10.7835 7.14173H11.0673H28.9926C31.1209 7.14173 32.8708 8.89168 32.8708 11.02V28.9453C32.8708 31.0736 31.1209 32.8236 28.9926 32.8236H11.0673C8.93898 32.8236 7.18902 31.0736 7.18902 28.9453C7.18902 28.1885 6.57418 27.5737 5.81744 27.5737H1.37159C0.614847 27.5737 0 28.1885 0 28.9453V33.9587C0 37.2694 2.69589 39.9653 6.00662 39.9653H34.0059C37.3167 39.9653 40.0126 37.2694 40.0126 33.9587V5.95932C40.0599 2.69588 37.364 0 34.0532 0Z" fill="url(#paint0_linear_588_1528)"/>
<path d="M48.7939 21.4893C48.6547 21.4893 48.5364 21.4405 48.439 21.3431C48.3416 21.2457 48.2928 21.1274 48.2928 20.9882V7.3972C48.2928 7.2441 48.3416 7.11884 48.439 7.02142C48.5364 6.92399 48.6547 6.87527 48.7939 6.87527H54.389C55.4746 6.87527 56.421 7.04925 57.2283 7.3972C58.0355 7.73124 58.6618 8.24621 59.1072 8.94211C59.5526 9.6241 59.7753 10.4801 59.7753 11.51C59.7753 12.5539 59.5526 13.4168 59.1072 14.0988C58.6618 14.7668 58.0355 15.2679 57.2283 15.6019C56.421 15.9359 55.4746 16.103 54.389 16.103H51.2783V20.9882C51.2783 21.1274 51.2296 21.2457 51.1321 21.3431C51.0486 21.4405 50.9303 21.4893 50.7772 21.4893H48.7939ZM51.2365 13.7856H54.2846C55.0918 13.7856 55.7112 13.5977 56.1426 13.2219C56.5741 12.8322 56.7898 12.2616 56.7898 11.51C56.7898 10.8141 56.588 10.2574 56.1844 9.83983C55.7808 9.40837 55.1475 9.19263 54.2846 9.19263H51.2365V13.7856ZM62.5557 21.4893C62.4165 21.4893 62.2982 21.4405 62.2008 21.3431C62.1033 21.2457 62.0546 21.1274 62.0546 20.9882V7.3972C62.0546 7.2441 62.1033 7.11884 62.2008 7.02142C62.2982 6.92399 62.4165 6.87527 62.5557 6.87527H67.6497C69.0554 6.87527 70.2106 7.09101 71.1153 7.52247C72.0339 7.95393 72.7228 8.59416 73.1821 9.44316C73.6553 10.2922 73.8989 11.3291 73.9128 12.5539C73.9407 13.1662 73.9546 13.7091 73.9546 14.1823C73.9546 14.6555 73.9407 15.1913 73.9128 15.7898C73.885 17.0842 73.6484 18.1559 73.203 19.0049C72.7576 19.84 72.0826 20.4663 71.1779 20.8838C70.2872 21.2874 69.1459 21.4893 67.7541 21.4893H62.5557ZM64.9565 19.0884H67.6497C68.4291 19.0884 69.0624 18.977 69.5495 18.7544C70.0366 18.5317 70.3915 18.1768 70.6142 17.6896C70.8508 17.1886 70.9761 16.5344 70.99 15.7272C71.0039 15.3096 71.0109 14.9478 71.0109 14.6416C71.0248 14.3214 71.0248 14.0083 71.0109 13.7021C71.0109 13.382 71.0039 13.0201 70.99 12.6165C70.9622 11.4752 70.6769 10.6332 70.1341 10.0904C69.5913 9.54755 68.7283 9.27614 67.5453 9.27614H64.9565V19.0884ZM75.5507 21.4893C75.4393 21.4893 75.335 21.4475 75.2375 21.364C75.154 21.2805 75.1123 21.1761 75.1123 21.0508C75.1123 20.9952 75.1262 20.9325 75.154 20.8629L80.1854 7.3972C80.2272 7.25802 80.3037 7.13972 80.4151 7.04229C80.5403 6.93095 80.7073 6.87527 80.9161 6.87527H83.1917C83.4005 6.87527 83.5605 6.93095 83.6719 7.04229C83.7832 7.13972 83.8667 7.25802 83.9224 7.3972L88.9538 20.8629C88.9677 20.9325 88.9747 20.9952 88.9747 21.0508C88.9747 21.1761 88.9329 21.2805 88.8494 21.364C88.7659 21.4475 88.6685 21.4893 88.5571 21.4893H86.7408C86.546 21.4893 86.3998 21.4475 86.3024 21.364C86.2189 21.2666 86.1632 21.1761 86.1354 21.0926L85.1542 18.5456H78.9537L77.9724 21.0926C77.9446 21.1761 77.882 21.2666 77.7845 21.364C77.701 21.4475 77.5619 21.4893 77.367 21.4893H75.5507ZM79.6844 16.1447H84.4235L82.0435 9.69369L79.6844 16.1447ZM100.76 21.698C99.5213 21.698 98.4565 21.4962 97.5658 21.0926C96.675 20.6751 95.9791 20.0418 95.4781 19.1928C94.977 18.3299 94.7056 17.2582 94.6639 15.9777C94.6499 15.3792 94.643 14.7877 94.643 14.2031C94.643 13.6186 94.6499 13.0201 94.6639 12.4077C94.7056 11.1412 94.984 10.0834 95.4989 9.23439C96.0139 8.38539 96.7168 7.74516 97.6075 7.31369C98.5122 6.88223 99.563 6.6665 100.76 6.6665C101.957 6.6665 103.008 6.88223 103.912 7.31369C104.817 7.74516 105.527 8.38539 106.042 9.23439C106.557 10.0834 106.835 11.1412 106.877 12.4077C106.905 13.0201 106.919 13.6186 106.919 14.2031C106.919 14.7877 106.905 15.3792 106.877 15.9777C106.835 17.2582 106.564 18.3299 106.063 19.1928C105.562 20.0418 104.859 20.6751 103.954 21.0926C103.063 21.4962 101.999 21.698 100.76 21.698ZM100.76 19.2972C101.665 19.2972 102.402 19.0327 102.973 18.5038C103.544 17.961 103.85 17.0842 103.892 15.8733C103.919 15.2609 103.933 14.6972 103.933 14.1823C103.933 13.6534 103.919 13.0897 103.892 12.4912C103.864 11.684 103.711 11.0298 103.432 10.5288C103.168 10.0138 102.806 9.64497 102.347 9.42228C101.887 9.18568 101.358 9.06737 100.76 9.06737C100.175 9.06737 99.6535 9.18568 99.1942 9.42228C98.7349 9.64497 98.3661 10.0138 98.0877 10.5288C97.8233 11.0298 97.6771 11.684 97.6493 12.4912C97.6354 13.0897 97.6284 13.6534 97.6284 14.1823C97.6284 14.6972 97.6354 15.2609 97.6493 15.8733C97.691 17.0842 97.9972 17.961 98.5679 18.5038C99.1385 19.0327 99.8692 19.2972 100.76 19.2972ZM110.161 21.4893C110.022 21.4893 109.904 21.4405 109.806 21.3431C109.709 21.2457 109.66 21.1274 109.66 20.9882V7.3972C109.66 7.2441 109.709 7.11884 109.806 7.02142C109.904 6.92399 110.022 6.87527 110.161 6.87527H119.222C119.375 6.87527 119.5 6.92399 119.598 7.02142C119.695 7.11884 119.744 7.2441 119.744 7.3972V8.8586C119.744 9.0117 119.695 9.13696 119.598 9.23439C119.5 9.3179 119.375 9.35965 119.222 9.35965H112.52V13.3263H118.804C118.957 13.3263 119.083 13.375 119.18 13.4724C119.278 13.5699 119.326 13.6951 119.326 13.8482V15.3096C119.326 15.4488 119.278 15.5671 119.18 15.6645C119.083 15.762 118.957 15.8107 118.804 15.8107H112.52V20.9882C112.52 21.1274 112.472 21.2457 112.374 21.3431C112.277 21.4405 112.151 21.4893 111.998 21.4893H110.161ZM122.7 21.4893C122.561 21.4893 122.442 21.4405 122.345 21.3431C122.247 21.2457 122.199 21.1274 122.199 20.9882V7.3972C122.199 7.2441 122.247 7.11884 122.345 7.02142C122.442 6.92399 122.561 6.87527 122.7 6.87527H131.76C131.913 6.87527 132.039 6.92399 132.136 7.02142C132.234 7.11884 132.282 7.2441 132.282 7.3972V8.8586C132.282 9.0117 132.234 9.13696 132.136 9.23439C132.039 9.3179 131.913 9.35965 131.76 9.35965H125.059V13.3263H131.343C131.496 13.3263 131.621 13.375 131.719 13.4724C131.816 13.5699 131.865 13.6951 131.865 13.8482V15.3096C131.865 15.4488 131.816 15.5671 131.719 15.6645C131.621 15.762 131.496 15.8107 131.343 15.8107H125.059V20.9882C125.059 21.1274 125.01 21.2457 124.913 21.3431C124.815 21.4405 124.69 21.4893 124.537 21.4893H122.7ZM135.238 21.4893C135.099 21.4893 134.981 21.4405 134.883 21.3431C134.786 21.2457 134.737 21.1274 134.737 20.9882V7.37633C134.737 7.23714 134.786 7.11884 134.883 7.02142C134.981 6.92399 135.099 6.87527 135.238 6.87527H137.201C137.354 6.87527 137.472 6.92399 137.556 7.02142C137.653 7.11884 137.702 7.23714 137.702 7.37633V20.9882C137.702 21.1274 137.653 21.2457 137.556 21.3431C137.472 21.4405 137.354 21.4893 137.201 21.4893H135.238ZM146.613 21.698C145.318 21.698 144.219 21.4753 143.314 21.03C142.423 20.5707 141.741 19.9235 141.268 19.0884C140.795 18.2394 140.53 17.2234 140.475 16.0403C140.461 15.4697 140.454 14.8573 140.454 14.2031C140.454 13.549 140.461 12.9227 140.475 12.3242C140.53 11.1551 140.795 10.146 141.268 9.29702C141.755 8.44802 142.444 7.80083 143.335 7.35545C144.24 6.89615 145.332 6.6665 146.613 6.6665C147.559 6.6665 148.408 6.79177 149.16 7.04229C149.911 7.29282 150.551 7.64077 151.08 8.08615C151.609 8.51761 152.02 9.02562 152.312 9.61018C152.604 10.1947 152.757 10.828 152.771 11.51C152.785 11.6353 152.744 11.7396 152.646 11.8232C152.563 11.9067 152.458 11.9484 152.333 11.9484H150.35C150.197 11.9484 150.071 11.9136 149.974 11.844C149.876 11.7605 149.807 11.6283 149.765 11.4474C149.542 10.5288 149.16 9.90246 148.617 9.56842C148.074 9.23439 147.399 9.06737 146.592 9.06737C145.659 9.06737 144.915 9.33182 144.358 9.8607C143.801 10.3757 143.502 11.2316 143.46 12.4286C143.418 13.5699 143.418 14.739 143.46 15.9359C143.502 17.1329 143.801 17.9958 144.358 18.5247C144.915 19.0397 145.659 19.2972 146.592 19.2972C147.399 19.2972 148.074 19.1301 148.617 18.7961C149.16 18.4482 149.542 17.8218 149.765 16.9172C149.807 16.7223 149.876 16.5901 149.974 16.5205C150.071 16.4509 150.197 16.4161 150.35 16.4161H152.333C152.458 16.4161 152.563 16.4579 152.646 16.5414C152.744 16.6249 152.785 16.7293 152.771 16.8545C152.757 17.5365 152.604 18.1698 152.312 18.7544C152.02 19.3389 151.609 19.8539 151.08 20.2993C150.551 20.7307 149.911 21.0717 149.16 21.3222C148.408 21.5728 147.559 21.698 146.613 21.698ZM155.748 21.4893C155.609 21.4893 155.491 21.4405 155.393 21.3431C155.296 21.2457 155.247 21.1274 155.247 20.9882V7.3972C155.247 7.2441 155.296 7.11884 155.393 7.02142C155.491 6.92399 155.609 6.87527 155.748 6.87527H164.934C165.087 6.87527 165.213 6.92399 165.31 7.02142C165.407 7.11884 165.456 7.2441 165.456 7.3972V8.77509C165.456 8.91427 165.407 9.03258 165.31 9.13C165.213 9.22743 165.087 9.27614 164.934 9.27614H158.066V12.9714H164.475C164.628 12.9714 164.753 13.0201 164.851 13.1175C164.948 13.201 164.997 13.3193 164.997 13.4724V14.7668C164.997 14.9199 164.948 15.0452 164.851 15.1426C164.753 15.2261 164.628 15.2679 164.475 15.2679H158.066V19.0884H165.101C165.254 19.0884 165.38 19.1371 165.477 19.2345C165.575 19.332 165.623 19.4572 165.623 19.6103V20.9882C165.623 21.1274 165.575 21.2457 165.477 21.3431C165.38 21.4405 165.254 21.4893 165.101 21.4893H155.748Z" fill="#383838"/>
<path d="M50.5525 36.7863C51.0622 36.7863 51.4808 36.6989 51.8085 36.5242C52.1434 36.3422 52.4019 36.1383 52.5839 35.9126V34.329H50.76C50.6653 34.329 50.5852 34.2962 50.5197 34.2307C50.4542 34.1652 50.4214 34.0851 50.4214 33.9904C50.4214 33.8958 50.4542 33.8157 50.5197 33.7501C50.5852 33.6846 50.6653 33.6518 50.76 33.6518H52.9661C53.0535 33.6518 53.13 33.6846 53.1955 33.7501C53.2683 33.8157 53.3047 33.8958 53.3047 33.9904V35.9017C53.3047 36.0255 53.2574 36.1456 53.1627 36.2621C53.0317 36.415 52.8824 36.5642 52.7149 36.7099C52.5548 36.8555 52.3691 36.9829 52.1579 37.0921C51.9468 37.2013 51.7065 37.2887 51.4371 37.3542C51.175 37.427 50.8801 37.4634 50.5525 37.4634C50.021 37.4634 49.5441 37.3906 49.1218 37.245C48.7067 37.0994 48.35 36.8737 48.0515 36.5679C47.7602 36.2548 47.5345 35.858 47.3743 35.3774C47.2214 34.8896 47.145 34.3108 47.145 33.6409C47.145 32.9929 47.2214 32.4286 47.3743 31.9481C47.5345 31.4675 47.7602 31.0707 48.0515 30.7576C48.35 30.4373 48.7067 30.2007 49.1218 30.0478C49.5441 29.8876 50.021 29.8075 50.5525 29.8075C51.0767 29.8075 51.5536 29.9131 51.9832 30.1242C52.4128 30.3281 52.755 30.6084 53.0098 30.9652C53.0608 31.038 53.0863 31.1144 53.0863 31.1945C53.0863 31.2964 53.0535 31.3802 52.988 31.4457C52.9224 31.5112 52.8387 31.544 52.7368 31.544C52.6203 31.544 52.5256 31.4967 52.4528 31.402C52.2635 31.1472 52.0014 30.9324 51.6665 30.7576C51.3388 30.5756 50.9675 30.4846 50.5525 30.4846C49.7079 30.4846 49.0562 30.7431 48.5975 31.26C48.1388 31.7697 47.9095 32.5633 47.9095 33.6409C47.9095 34.2088 47.9677 34.693 48.0842 35.0935C48.2007 35.4939 48.3718 35.8216 48.5975 36.0764C48.8232 36.324 49.0999 36.506 49.4276 36.6225C49.7552 36.7317 50.1302 36.7863 50.5525 36.7863ZM55.3043 37.0484C55.3043 37.1504 55.2715 37.2341 55.206 37.2996C55.1404 37.3652 55.0567 37.3979 54.9548 37.3979C54.8529 37.3979 54.7691 37.3652 54.7036 37.2996C54.6381 37.2341 54.6053 37.1504 54.6053 37.0484V32.6143C54.6053 32.5124 54.6381 32.4286 54.7036 32.3631C54.7691 32.2976 54.8529 32.2648 54.9548 32.2648C55.0567 32.2648 55.1404 32.2976 55.206 32.3631C55.2715 32.4286 55.3043 32.5124 55.3043 32.6143V37.0484ZM54.9548 31.2382C54.6781 31.2382 54.5398 31.0999 54.5398 30.8232C54.5398 30.663 54.5762 30.5501 54.649 30.4846C54.7218 30.4191 54.8237 30.3863 54.9548 30.3863C55.0858 30.3863 55.1878 30.4191 55.2606 30.4846C55.3334 30.5501 55.3698 30.663 55.3698 30.8232C55.3698 31.0999 55.2315 31.2382 54.9548 31.2382ZM58.8358 31.7624C58.7339 31.7624 58.6757 31.7333 58.6611 31.6751C58.6538 31.6095 58.6502 31.5367 58.6502 31.4566C58.6502 31.3547 58.6793 31.2746 58.7375 31.2164C58.8031 31.1581 58.8795 31.0999 58.9669 31.0416C59.0324 31.0052 59.0834 30.9724 59.1198 30.9433C59.1635 30.9069 59.1853 30.8523 59.1853 30.7795C59.1853 30.6994 59.1562 30.6412 59.098 30.6047C59.0397 30.5611 58.9669 30.5392 58.8795 30.5392C58.6757 30.5392 58.5737 30.6229 58.5737 30.7904C58.5737 30.8414 58.5555 30.8851 58.5191 30.9215C58.4827 30.9506 58.4354 30.9652 58.3771 30.9652C58.3262 30.9652 58.2825 30.9506 58.2461 30.9215C58.2097 30.8851 58.1915 30.8414 58.1915 30.7904C58.1915 30.6157 58.2497 30.481 58.3662 30.3863C58.49 30.2844 58.6611 30.2334 58.8795 30.2334C59.0907 30.2334 59.2545 30.2807 59.371 30.3754C59.4948 30.4628 59.5567 30.5975 59.5567 30.7795C59.5567 30.9251 59.5203 31.0343 59.4474 31.1071C59.3819 31.1799 59.2982 31.2455 59.1963 31.3037C59.1526 31.3256 59.1125 31.351 59.0761 31.3802C59.047 31.402 59.0324 31.4202 59.0324 31.4348C59.0324 31.4493 59.0251 31.4639 59.0106 31.4785C59.0033 31.493 58.9997 31.504 58.9997 31.5112C59.0142 31.5695 59.0142 31.6277 58.9997 31.686C58.9851 31.7369 58.9305 31.7624 58.8358 31.7624ZM58.5519 32.8546C58.2606 32.8546 58.0167 32.9019 57.8201 32.9966C57.6308 33.0839 57.4525 33.2223 57.285 33.4116C57.2267 33.4698 57.1758 33.5099 57.1321 33.5317C57.0957 33.5536 57.052 33.5645 57.001 33.5645C56.9137 33.5645 56.8372 33.5353 56.7717 33.4771C56.7134 33.4116 56.6843 33.3351 56.6843 33.2477C56.6843 33.1822 56.7025 33.1203 56.7389 33.0621C56.8918 32.8218 57.1175 32.6179 57.416 32.4505C57.7146 32.283 58.0932 32.1993 58.5519 32.1993C59.1926 32.1993 59.6804 32.3704 60.0154 32.7126C60.3503 33.0475 60.5178 33.4953 60.5178 34.0559V37.0594C60.5178 37.154 60.485 37.2341 60.4195 37.2996C60.3539 37.3652 60.2738 37.3979 60.1792 37.3979C60.0845 37.3979 60.0044 37.3652 59.9389 37.2996C59.8734 37.2341 59.8406 37.154 59.8406 37.0594V36.6662C59.7023 36.921 59.4875 37.1176 59.1963 37.2559C58.9123 37.387 58.6065 37.4525 58.2788 37.4525C57.6964 37.4525 57.234 37.3178 56.8918 37.0484C56.5569 36.779 56.3894 36.3931 56.3894 35.8908C56.3894 35.4102 56.5605 35.0352 56.9027 34.7658C57.2449 34.4892 57.7109 34.3508 58.3007 34.3508H59.8406V34.0559C59.8406 33.6846 59.7241 33.3934 59.4911 33.1822C59.2654 32.9638 58.9523 32.8546 58.5519 32.8546ZM58.3444 36.8191C58.5337 36.8191 58.7193 36.79 58.9014 36.7317C59.0834 36.6735 59.2436 36.5861 59.3819 36.4696C59.5203 36.3531 59.6295 36.2075 59.7096 36.0327C59.7969 35.858 59.8406 35.6541 59.8406 35.4211V34.9624H58.3007C57.9439 34.9624 57.6527 35.0389 57.427 35.1918C57.2085 35.3374 57.0993 35.5704 57.0993 35.8908C57.0993 36.1747 57.1976 36.4004 57.3942 36.5679C57.5981 36.7353 57.9148 36.8191 58.3444 36.8191ZM62.5142 37.0484C62.5142 37.1504 62.4814 37.2341 62.4159 37.2996C62.3503 37.3652 62.2666 37.3979 62.1647 37.3979C62.0627 37.3979 61.979 37.3652 61.9135 37.2996C61.848 37.2341 61.8152 37.1504 61.8152 37.0484V32.6143C61.8152 32.5124 61.848 32.4286 61.9135 32.3631C61.979 32.2976 62.0627 32.2648 62.1647 32.2648C62.2666 32.2648 62.3503 32.2976 62.4159 32.3631C62.4814 32.4286 62.5142 32.5124 62.5142 32.6143V37.0484ZM62.1647 31.2382C61.888 31.2382 61.7497 31.0999 61.7497 30.8232C61.7497 30.663 61.7861 30.5501 61.8589 30.4846C61.9317 30.4191 62.0336 30.3863 62.1647 30.3863C62.2957 30.3863 62.3977 30.4191 62.4705 30.4846C62.5433 30.5501 62.5797 30.663 62.5797 30.8232C62.5797 31.0999 62.4414 31.2382 62.1647 31.2382ZM66.8898 32.2648C66.9844 32.2648 67.0645 32.2976 67.13 32.3631C67.2028 32.4286 67.2393 32.5124 67.2393 32.6143V32.9638C67.3412 32.7745 67.5196 32.5997 67.7744 32.4396C68.0365 32.2794 68.3532 32.1993 68.7246 32.1993C69.4308 32.1993 69.9878 32.4141 70.3956 32.8437C70.8033 33.266 71.0072 33.9249 71.0072 34.8204C71.0072 35.716 70.8033 36.3786 70.3956 36.8082C69.9878 37.2377 69.4308 37.4525 68.7246 37.4525C68.3532 37.4525 68.0402 37.3724 67.7853 37.2123C67.5378 37.0521 67.3557 36.8773 67.2393 36.688V39.1563C67.2393 39.2509 67.2028 39.331 67.13 39.3966C67.0645 39.4694 66.9844 39.5058 66.8898 39.5058C66.7951 39.5058 66.7114 39.4694 66.6386 39.3966C66.573 39.331 66.5403 39.2509 66.5403 39.1563V32.6143C66.5403 32.5124 66.573 32.4286 66.6386 32.3631C66.7114 32.2976 66.7951 32.2648 66.8898 32.2648ZM67.2174 34.8204C67.2174 35.1699 67.2538 35.4721 67.3266 35.7269C67.4067 35.9818 67.5123 36.1893 67.6433 36.3495C67.7817 36.5096 67.9419 36.6298 68.1239 36.7099C68.3132 36.7827 68.5134 36.8191 68.7246 36.8191C69.227 36.8191 69.6129 36.6589 69.8823 36.3385C70.1589 36.0109 70.2973 35.5049 70.2973 34.8204C70.2973 34.136 70.1553 33.6336 69.8713 33.3133C69.5947 32.9929 69.2051 32.8327 68.7027 32.8327C68.4989 32.8327 68.3059 32.8691 68.1239 32.9419C67.9491 33.0148 67.7926 33.1313 67.6543 33.2914C67.5232 33.4516 67.4176 33.6591 67.3375 33.914C67.2575 34.1615 67.2174 34.4637 67.2174 34.8204ZM74.2486 32.1993C74.6708 32.1993 75.0131 32.2575 75.2752 32.374C75.5373 32.4832 75.7412 32.6325 75.8868 32.8218C76.0324 33.0038 76.1307 33.2113 76.1817 33.4443C76.2326 33.67 76.2581 33.8994 76.2581 34.1324V37.0484C76.2581 37.1504 76.2253 37.2341 76.1598 37.2996C76.0943 37.3652 76.0106 37.3979 75.9086 37.3979C75.8067 37.3979 75.723 37.3652 75.6574 37.2996C75.5919 37.2341 75.5591 37.1504 75.5591 37.0484V34.2744C75.5591 34.0559 75.5409 33.8594 75.5045 33.6846C75.4681 33.5026 75.3989 33.3497 75.297 33.2259C75.2024 33.0948 75.0677 32.9966 74.8929 32.931C74.7255 32.8582 74.5107 32.8218 74.2486 32.8218C73.9792 32.8218 73.7498 32.8619 73.5605 32.9419C73.3785 33.0148 73.2292 33.1203 73.1127 33.2587C73.0035 33.397 72.9234 33.5608 72.8724 33.7501C72.8215 33.9322 72.796 34.1324 72.796 34.3508V37.0484C72.796 37.1504 72.7632 37.2341 72.6977 37.2996C72.6322 37.3652 72.5484 37.3979 72.4465 37.3979C72.3446 37.3979 72.2608 37.3652 72.1953 37.2996C72.1298 37.2341 72.097 37.1504 72.097 37.0484V29.8839C72.097 29.782 72.1298 29.6983 72.1953 29.6327C72.2608 29.5672 72.3446 29.5344 72.4465 29.5344C72.5484 29.5344 72.6322 29.5672 72.6977 29.6327C72.7632 29.6983 72.796 29.782 72.796 29.8839V32.9638C72.8979 32.7526 73.0763 32.5743 73.3311 32.4286C73.586 32.2757 73.8918 32.1993 74.2486 32.1993ZM79.3923 32.8546C79.7928 32.8546 80.1059 32.9638 80.3316 33.1822C80.5646 33.3934 80.6811 33.6846 80.6811 34.0559V34.3508H79.1411C78.5514 34.3508 78.0854 34.4892 77.7432 34.7658C77.401 35.0352 77.2299 35.4102 77.2299 35.8908C77.2299 36.3931 77.3973 36.779 77.7323 37.0484C78.0745 37.3178 78.5368 37.4525 79.1193 37.4525C79.4469 37.4525 79.7527 37.387 80.0367 37.2559C80.3279 37.1176 80.5427 36.921 80.6811 36.6662V37.0594C80.6811 37.154 80.7138 37.2341 80.7794 37.2996C80.8449 37.3652 80.925 37.3979 81.0196 37.3979C81.1143 37.3979 81.1944 37.3652 81.2599 37.2996C81.3254 37.2341 81.3582 37.154 81.3582 37.0594V34.0559C81.3582 33.4953 81.1907 33.0475 80.8558 32.7126C80.5209 32.3704 80.033 32.1993 79.3923 32.1993C78.9336 32.1993 78.555 32.283 78.2565 32.4505C77.958 32.6179 77.7323 32.8218 77.5794 33.0621C77.5429 33.1203 77.5247 33.1822 77.5247 33.2477C77.5247 33.3351 77.5539 33.4116 77.6121 33.4771C77.6776 33.5353 77.7541 33.5645 77.8415 33.5645C77.8924 33.5645 77.9361 33.5536 77.9725 33.5317C78.0162 33.5099 78.0672 33.4698 78.1254 33.4116C78.2929 33.2223 78.4713 33.0839 78.6606 32.9966C78.8572 32.9019 79.1011 32.8546 79.3923 32.8546ZM79.1848 36.8191C78.7552 36.8191 78.4385 36.7353 78.2346 36.5679C78.0381 36.4004 77.9398 36.1747 77.9398 35.8908C77.9398 35.5704 78.049 35.3374 78.2674 35.1918C78.4931 35.0389 78.7844 34.9624 79.1411 34.9624H80.6811V35.4211C80.6811 35.6541 80.6374 35.858 80.55 36.0327C80.4699 36.2075 80.3607 36.3531 80.2224 36.4696C80.084 36.5861 79.9238 36.6735 79.7418 36.7317C79.5598 36.79 79.3741 36.8191 79.1848 36.8191ZM79.294 31.7078C79.2431 31.6714 79.2176 31.6314 79.2176 31.5877C79.2249 31.5367 79.2431 31.493 79.2722 31.4566L80.0585 30.4955C80.0949 30.4518 80.1386 30.4264 80.1896 30.4191C80.2478 30.4118 80.317 30.4373 80.3971 30.4955C80.5209 30.6193 80.5282 30.7285 80.4189 30.8232L79.5561 31.6969C79.5197 31.7333 79.4797 31.7588 79.436 31.7733C79.3996 31.7806 79.3523 31.7588 79.294 31.7078ZM83.016 32.2648C83.1107 32.2648 83.1908 32.2976 83.2563 32.3631C83.3291 32.4286 83.3655 32.5124 83.3655 32.6143V32.9638C83.4675 32.7745 83.6458 32.5997 83.9007 32.4396C84.1628 32.2794 84.4795 32.1993 84.8509 32.1993C85.5571 32.1993 86.1141 32.4141 86.5218 32.8437C86.9296 33.266 87.1334 33.9249 87.1334 34.8204C87.1334 35.716 86.9296 36.3786 86.5218 36.8082C86.1141 37.2377 85.5571 37.4525 84.8509 37.4525C84.4795 37.4525 84.1664 37.3724 83.9116 37.2123C83.664 37.0521 83.482 36.8773 83.3655 36.688V39.1563C83.3655 39.2509 83.3291 39.331 83.2563 39.3966C83.1908 39.4694 83.1107 39.5058 83.016 39.5058C82.9214 39.5058 82.8377 39.4694 82.7648 39.3966C82.6993 39.331 82.6666 39.2509 82.6666 39.1563V32.6143C82.6666 32.5124 82.6993 32.4286 82.7648 32.3631C82.8377 32.2976 82.9214 32.2648 83.016 32.2648ZM83.3437 34.8204C83.3437 35.1699 83.3801 35.4721 83.4529 35.7269C83.533 35.9818 83.6386 36.1893 83.7696 36.3495C83.908 36.5096 84.0681 36.6298 84.2502 36.7099C84.4395 36.7827 84.6397 36.8191 84.8509 36.8191C85.3532 36.8191 85.7391 36.6589 86.0085 36.3385C86.2852 36.0109 86.4235 35.5049 86.4235 34.8204C86.4235 34.136 86.2816 33.6336 85.9976 33.3133C85.7209 32.9929 85.3314 32.8327 84.829 32.8327C84.6251 32.8327 84.4322 32.8691 84.2502 32.9419C84.0754 33.0148 83.9189 33.1313 83.7805 33.2914C83.6495 33.4516 83.5439 33.6591 83.4638 33.914C83.3837 34.1615 83.3437 34.4637 83.3437 34.8204ZM92.3765 32.8764C92.2528 32.8764 92.1326 32.8873 92.0161 32.9092C91.8996 32.931 91.7941 32.9674 91.6994 33.0184C91.612 33.0694 91.5392 33.1385 91.481 33.2259C91.43 33.306 91.4045 33.4079 91.4045 33.5317C91.4045 33.721 91.4737 33.8739 91.612 33.9904C91.7576 34.1069 91.936 34.2088 92.1472 34.2962C92.3583 34.3763 92.5877 34.4564 92.8352 34.5365C93.0901 34.6166 93.3231 34.7185 93.5342 34.8423C93.7454 34.9588 93.9201 35.108 94.0584 35.2901C94.2041 35.4721 94.2769 35.7087 94.2769 36C94.2769 36.2475 94.2295 36.4623 94.1349 36.6443C94.0402 36.8264 93.9092 36.9756 93.7417 37.0921C93.5743 37.2086 93.3777 37.296 93.152 37.3542C92.9262 37.4125 92.6823 37.4416 92.4202 37.4416C92.1945 37.4416 91.9834 37.4161 91.7868 37.3652C91.5902 37.3215 91.4118 37.2632 91.2516 37.1904C91.0987 37.1103 90.9604 37.0229 90.8366 36.9283C90.7201 36.8336 90.6254 36.7426 90.5526 36.6553C90.5017 36.5824 90.4762 36.5133 90.4762 36.4477C90.4762 36.3604 90.5053 36.2876 90.5636 36.2293C90.6291 36.1638 90.7055 36.131 90.7929 36.131C90.8293 36.131 90.8657 36.1383 90.9021 36.1529C90.9458 36.1674 90.9895 36.1966 91.0332 36.2402C91.2006 36.4077 91.3972 36.5388 91.6229 36.6334C91.8487 36.7281 92.1144 36.7754 92.4202 36.7754C92.7333 36.7754 93.0027 36.7171 93.2284 36.6006C93.4614 36.4842 93.5779 36.2839 93.5779 36C93.5779 35.8107 93.5051 35.6614 93.3595 35.5522C93.2211 35.443 93.0464 35.3483 92.8352 35.2682C92.6241 35.1809 92.3911 35.0971 92.1363 35.017C91.8887 34.9369 91.6594 34.8386 91.4482 34.7222C91.2371 34.5984 91.0587 34.4455 90.913 34.2634C90.7747 34.0741 90.7055 33.8302 90.7055 33.5317C90.7055 33.306 90.7492 33.1094 90.8366 32.9419C90.924 32.7745 91.0405 32.6361 91.1861 32.5269C91.339 32.4177 91.5174 32.3376 91.7212 32.2867C91.9251 32.2357 92.1435 32.2102 92.3765 32.2102C92.7479 32.2102 93.0755 32.2721 93.3595 32.3959C93.6434 32.5124 93.8691 32.6835 94.0366 32.9092C94.0512 32.931 94.0657 32.9601 94.0803 32.9966C94.1021 33.0257 94.113 33.0657 94.113 33.1167C94.113 33.2041 94.0803 33.2805 94.0148 33.346C93.9565 33.4043 93.8837 33.4334 93.7963 33.4334C93.7672 33.4334 93.7308 33.4298 93.6871 33.4225C93.6507 33.4079 93.6107 33.3788 93.567 33.3351C93.4214 33.1895 93.2575 33.0766 93.0755 32.9966C92.8935 32.9165 92.6605 32.8764 92.3765 32.8764ZM98.305 30.6921C98.2541 30.6557 98.2286 30.6157 98.2286 30.572C98.2359 30.521 98.2541 30.4773 98.2832 30.4409L99.0695 29.4798C99.1059 29.4361 99.1496 29.4107 99.2006 29.4034C99.2588 29.3961 99.328 29.4216 99.4081 29.4798C99.5319 29.6036 99.5392 29.7128 99.4299 29.8075L98.5671 30.6812C98.5307 30.7176 98.4907 30.7431 98.447 30.7576C98.4106 30.7649 98.3633 30.7431 98.305 30.6921ZM97.4204 32.1993C96.7141 32.1993 96.1535 32.4141 95.7385 32.8437C95.3307 33.266 95.1269 33.9249 95.1269 34.8204C95.1269 35.716 95.3307 36.3786 95.7385 36.8082C96.1535 37.2377 96.7141 37.4525 97.4204 37.4525C98.1266 37.4525 98.6836 37.2377 99.0914 36.8082C99.5064 36.3786 99.7139 35.716 99.7139 34.8204C99.7139 33.9249 99.5064 33.266 99.0914 32.8437C98.6836 32.4141 98.1266 32.1993 97.4204 32.1993ZM97.4204 36.8191C96.918 36.8191 96.5285 36.6625 96.2518 36.3495C95.9751 36.0364 95.8368 35.5267 95.8368 34.8204C95.8368 34.1288 95.9751 33.6264 96.2518 33.3133C96.5285 32.9929 96.918 32.8327 97.4204 32.8327C97.9228 32.8327 98.3123 32.9929 98.589 33.3133C98.8657 33.6264 99.004 34.1288 99.004 34.8204C99.004 35.5267 98.8657 36.0364 98.589 36.3495C98.3123 36.6625 97.9228 36.8191 97.4204 36.8191ZM98.2177 31.7078C98.2322 31.7224 98.2504 31.7369 98.2723 31.7515C98.2941 31.7588 98.3269 31.7624 98.3706 31.7624C98.4288 31.7624 98.4798 31.7406 98.5235 31.6969C98.5671 31.6532 98.589 31.6022 98.589 31.544C98.589 31.4785 98.5599 31.4166 98.5016 31.3583L97.617 30.6266C97.5951 30.612 97.5733 30.6011 97.5514 30.5938C97.5296 30.5793 97.5005 30.572 97.4641 30.572C97.4277 30.572 97.3985 30.5793 97.3767 30.5938C97.3549 30.6011 97.333 30.612 97.3112 30.6266L96.4265 31.3583C96.3683 31.4166 96.3392 31.4785 96.3392 31.544C96.3392 31.6022 96.361 31.6532 96.4047 31.6969C96.4484 31.7406 96.4993 31.7624 96.5576 31.7624C96.6013 31.7624 96.634 31.7588 96.6559 31.7515C96.6777 31.7369 96.6959 31.7224 96.7105 31.7078L97.4641 31.0744L98.2177 31.7078ZM103.662 31.7187C103.597 31.7624 103.527 31.7843 103.455 31.7843C103.36 31.7843 103.276 31.7515 103.203 31.686C103.138 31.6132 103.105 31.5294 103.105 31.4348C103.105 31.3765 103.116 31.3219 103.138 31.271C103.167 31.22 103.207 31.1763 103.258 31.1399L104.973 29.9495C105.046 29.8985 105.118 29.873 105.191 29.873C105.293 29.873 105.377 29.9094 105.442 29.9822C105.515 30.0478 105.552 30.1315 105.552 30.2334V37.0375C105.552 37.1394 105.515 37.2268 105.442 37.2996C105.377 37.3652 105.293 37.3979 105.191 37.3979C105.089 37.3979 105.002 37.3652 104.929 37.2996C104.864 37.2268 104.831 37.1394 104.831 37.0375V30.8778L103.662 31.7187ZM113.195 33.7938C113.101 33.6118 112.988 33.4516 112.857 33.3133C112.74 33.1895 112.591 33.0803 112.409 32.9856C112.227 32.8837 112.008 32.8327 111.754 32.8327C111.251 32.8327 110.869 32.9966 110.607 33.3242C110.345 33.6446 110.214 34.1433 110.214 34.8204C110.214 35.5049 110.345 36.0109 110.607 36.3385C110.869 36.6589 111.251 36.8191 111.754 36.8191C112.176 36.8191 112.522 36.6989 112.791 36.4587C113.061 36.2111 113.195 35.8252 113.195 35.301V33.7938ZM111.71 32.1993C112.059 32.1993 112.362 32.2757 112.616 32.4286C112.878 32.5743 113.071 32.7344 113.195 32.9092V29.8839C113.195 29.782 113.228 29.6983 113.294 29.6327C113.359 29.5672 113.443 29.5344 113.545 29.5344C113.647 29.5344 113.73 29.5672 113.796 29.6327C113.861 29.6983 113.894 29.782 113.894 29.8839V35.301C113.894 35.665 113.84 35.9818 113.73 36.2512C113.628 36.5133 113.483 36.7353 113.294 36.9174C113.104 37.0994 112.878 37.2341 112.616 37.3215C112.354 37.4088 112.067 37.4525 111.754 37.4525C111.047 37.4525 110.498 37.2414 110.104 36.8191C109.711 36.3895 109.515 35.7233 109.515 34.8204C109.515 33.9176 109.704 33.255 110.083 32.8327C110.461 32.4104 111.004 32.1993 111.71 32.1993ZM117.28 32.1993C117.986 32.1993 118.543 32.4141 118.951 32.8437C119.366 33.266 119.573 33.9249 119.573 34.8204C119.573 35.716 119.366 36.3786 118.951 36.8082C118.543 37.2377 117.986 37.4525 117.28 37.4525C116.573 37.4525 116.013 37.2377 115.598 36.8082C115.19 36.3786 114.986 35.716 114.986 34.8204C114.986 33.9249 115.19 33.266 115.598 32.8437C116.013 32.4141 116.573 32.1993 117.28 32.1993ZM117.28 36.8191C117.782 36.8191 118.172 36.6625 118.448 36.3495C118.725 36.0364 118.863 35.5267 118.863 34.8204C118.863 34.1288 118.725 33.6264 118.448 33.3133C118.172 32.9929 117.782 32.8327 117.28 32.8327C116.777 32.8327 116.388 32.9929 116.111 33.3133C115.834 33.6264 115.696 34.1288 115.696 34.8204C115.696 35.5267 115.834 36.0364 116.111 36.3495C116.388 36.6625 116.777 36.8191 117.28 36.8191ZM122.492 32.8546C122.2 32.8546 121.957 32.9019 121.76 32.9966C121.571 33.0839 121.392 33.2223 121.225 33.4116C121.167 33.4698 121.116 33.5099 121.072 33.5317C121.036 33.5536 120.992 33.5645 120.941 33.5645C120.853 33.5645 120.777 33.5353 120.712 33.4771C120.653 33.4116 120.624 33.3351 120.624 33.2477C120.624 33.1822 120.642 33.1203 120.679 33.0621C120.832 32.8218 121.057 32.6179 121.356 32.4505C121.654 32.283 122.033 32.1993 122.492 32.1993C123.132 32.1993 123.62 32.3704 123.955 32.7126C124.29 33.0475 124.458 33.4953 124.458 34.0559V37.0594C124.458 37.154 124.425 37.2341 124.359 37.2996C124.294 37.3652 124.214 37.3979 124.119 37.3979C124.024 37.3979 123.944 37.3652 123.879 37.2996C123.813 37.2341 123.78 37.154 123.78 37.0594V36.6662C123.642 36.921 123.427 37.1176 123.136 37.2559C122.852 37.387 122.546 37.4525 122.219 37.4525C121.636 37.4525 121.174 37.3178 120.832 37.0484C120.497 36.779 120.329 36.3931 120.329 35.8908C120.329 35.4102 120.5 35.0352 120.843 34.7658C121.185 34.4892 121.651 34.3508 122.241 34.3508H123.78V34.0559C123.78 33.6846 123.664 33.3934 123.431 33.1822C123.205 32.9638 122.892 32.8546 122.492 32.8546ZM122.284 36.8191C122.474 36.8191 122.659 36.79 122.841 36.7317C123.023 36.6735 123.183 36.5861 123.322 36.4696C123.46 36.3531 123.569 36.2075 123.649 36.0327C123.737 35.858 123.78 35.6541 123.78 35.4211V34.9624H122.241C121.884 34.9624 121.593 35.0389 121.367 35.1918C121.148 35.3374 121.039 35.5704 121.039 35.8908C121.039 36.1747 121.137 36.4004 121.334 36.5679C121.538 36.7353 121.855 36.8191 122.284 36.8191ZM127.917 32.1993C128.34 32.1993 128.682 32.2575 128.944 32.374C129.206 32.4832 129.41 32.6325 129.556 32.8218C129.701 33.0038 129.8 33.2113 129.851 33.4443C129.902 33.67 129.927 33.8994 129.927 34.1324V37.0484C129.927 37.1504 129.894 37.2341 129.829 37.2996C129.763 37.3652 129.679 37.3979 129.578 37.3979C129.476 37.3979 129.392 37.3652 129.326 37.2996C129.261 37.2341 129.228 37.1504 129.228 37.0484V34.2744C129.228 34.0559 129.21 33.8594 129.173 33.6846C129.137 33.5026 129.068 33.3497 128.966 33.2259C128.871 33.0948 128.737 32.9966 128.562 32.931C128.394 32.8582 128.18 32.8218 127.917 32.8218C127.648 32.8218 127.419 32.8619 127.229 32.9419C127.047 33.0148 126.898 33.1203 126.782 33.2587C126.672 33.397 126.592 33.5608 126.541 33.7501C126.49 33.9322 126.465 34.1324 126.465 34.3508V37.0484C126.465 37.1504 126.432 37.2341 126.367 37.2996C126.301 37.3652 126.217 37.3979 126.115 37.3979C126.013 37.3979 125.93 37.3652 125.864 37.2996C125.799 37.2341 125.766 37.1504 125.766 37.0484V32.6143C125.766 32.5124 125.799 32.4286 125.864 32.3631C125.93 32.2976 126.013 32.2648 126.115 32.2648C126.217 32.2648 126.301 32.2976 126.367 32.3631C126.432 32.4286 126.465 32.5124 126.465 32.6143V32.9638C126.567 32.7526 126.745 32.5743 127 32.4286C127.255 32.2757 127.561 32.1993 127.917 32.1993ZM133.389 32.1993C133.811 32.1993 134.153 32.2575 134.416 32.374C134.678 32.4832 134.881 32.6325 135.027 32.8218C135.173 33.0038 135.271 33.2113 135.322 33.4443C135.373 33.67 135.398 33.8994 135.398 34.1324V37.0484C135.398 37.1504 135.366 37.2341 135.3 37.2996C135.235 37.3652 135.151 37.3979 135.049 37.3979C134.947 37.3979 134.863 37.3652 134.798 37.2996C134.732 37.2341 134.699 37.1504 134.699 37.0484V34.2744C134.699 34.0559 134.681 33.8594 134.645 33.6846C134.608 33.5026 134.539 33.3497 134.437 33.2259C134.343 33.0948 134.208 32.9966 134.033 32.931C133.866 32.8582 133.651 32.8218 133.389 32.8218C133.119 32.8218 132.89 32.8619 132.701 32.9419C132.519 33.0148 132.37 33.1203 132.253 33.2587C132.144 33.397 132.064 33.5608 132.013 33.7501C131.962 33.9322 131.936 34.1324 131.936 34.3508V37.0484C131.936 37.1504 131.904 37.2341 131.838 37.2996C131.773 37.3652 131.689 37.3979 131.587 37.3979C131.485 37.3979 131.401 37.3652 131.336 37.2996C131.27 37.2341 131.237 37.1504 131.237 37.0484V29.8839C131.237 29.782 131.27 29.6983 131.336 29.6327C131.401 29.5672 131.485 29.5344 131.587 29.5344C131.689 29.5344 131.773 29.5672 131.838 29.6327C131.904 29.6983 131.936 29.782 131.936 29.8839V32.9638C132.038 32.7526 132.217 32.5743 132.471 32.4286C132.726 32.2757 133.032 32.1993 133.389 32.1993ZM141.463 32.1993C141.885 32.1993 142.227 32.2575 142.489 32.374C142.751 32.4832 142.955 32.6325 143.101 32.8218C143.247 33.0038 143.345 33.2113 143.396 33.4443C143.447 33.67 143.472 33.8994 143.472 34.1324V37.0484C143.472 37.1504 143.439 37.2341 143.374 37.2996C143.308 37.3652 143.225 37.3979 143.123 37.3979C143.021 37.3979 142.937 37.3652 142.872 37.2996C142.806 37.2341 142.773 37.1504 142.773 37.0484V34.2744C142.773 34.0559 142.755 33.8594 142.719 33.6846C142.682 33.5026 142.613 33.3497 142.511 33.2259C142.417 33.0948 142.282 32.9966 142.107 32.931C141.94 32.8582 141.725 32.8218 141.463 32.8218C141.193 32.8218 140.964 32.8619 140.775 32.9419C140.593 33.0148 140.443 33.1203 140.327 33.2587C140.218 33.397 140.138 33.5608 140.087 33.7501C140.036 33.9322 140.01 34.1324 140.01 34.3508V37.0484C140.01 37.1504 139.977 37.2341 139.912 37.2996C139.846 37.3652 139.763 37.3979 139.661 37.3979C139.559 37.3979 139.475 37.3652 139.409 37.2996C139.344 37.2341 139.311 37.1504 139.311 37.0484V32.6143C139.311 32.5124 139.344 32.4286 139.409 32.3631C139.475 32.2976 139.559 32.2648 139.661 32.2648C139.763 32.2648 139.846 32.2976 139.912 32.3631C139.977 32.4286 140.01 32.5124 140.01 32.6143V32.9638C140.112 32.7526 140.29 32.5743 140.545 32.4286C140.8 32.2757 141.106 32.1993 141.463 32.1993ZM148.19 34.3617C148.19 34.0996 148.15 33.8739 148.07 33.6846C147.997 33.4953 147.892 33.3388 147.753 33.215C147.622 33.0839 147.466 32.9893 147.284 32.931C147.109 32.8655 146.92 32.8327 146.716 32.8327C146.213 32.8327 145.827 32.9966 145.558 33.3242C145.289 33.6446 145.154 34.147 145.154 34.8314C145.154 35.5085 145.289 36.0109 145.558 36.3385C145.827 36.6589 146.213 36.8191 146.716 36.8191C146.971 36.8191 147.189 36.7754 147.371 36.688C147.56 36.5934 147.717 36.4914 147.841 36.3822C147.979 36.2512 148.095 36.1019 148.19 35.9344V34.3617ZM146.661 38.8505C146.887 38.8505 147.091 38.8214 147.273 38.7631C147.462 38.7049 147.622 38.6175 147.753 38.501C147.892 38.3845 147.997 38.2352 148.07 38.0532C148.15 37.8712 148.19 37.6564 148.19 37.4088V36.7863C148.059 36.9538 147.87 37.1067 147.622 37.245C147.375 37.3834 147.072 37.4525 146.716 37.4525C146.002 37.4525 145.445 37.2414 145.045 36.8191C144.652 36.3895 144.455 35.7269 144.455 34.8314C144.455 33.9285 144.652 33.266 145.045 32.8437C145.445 32.4141 146.002 32.1993 146.716 32.1993C147.029 32.1993 147.316 32.2466 147.578 32.3413C147.848 32.4286 148.081 32.5633 148.277 32.7454C148.474 32.9201 148.627 33.1458 148.736 33.4225C148.845 33.6919 148.9 34.005 148.9 34.3617V37.4088C148.9 37.7802 148.838 38.0969 148.714 38.359C148.598 38.6284 148.438 38.8468 148.234 39.0143C148.037 39.1818 147.801 39.3055 147.524 39.3856C147.254 39.4657 146.967 39.5058 146.661 39.5058C146.231 39.5058 145.864 39.433 145.558 39.2873C145.259 39.149 145.019 38.9706 144.837 38.7522C144.793 38.6939 144.772 38.6284 144.772 38.5556C144.772 38.4609 144.804 38.3809 144.87 38.3153C144.935 38.2498 145.016 38.217 145.11 38.217C145.154 38.217 145.194 38.2243 145.23 38.2389C145.274 38.2534 145.321 38.2862 145.372 38.3372C145.496 38.4609 145.656 38.5774 145.853 38.6867C146.049 38.7959 146.319 38.8505 146.661 38.8505ZM152.342 32.1993C152.764 32.1993 153.106 32.2575 153.368 32.374C153.63 32.4832 153.834 32.6325 153.98 32.8218C154.125 33.0038 154.224 33.2113 154.275 33.4443C154.326 33.67 154.351 33.8994 154.351 34.1324V37.0484C154.351 37.1504 154.318 37.2341 154.253 37.2996C154.187 37.3652 154.104 37.3979 154.002 37.3979C153.9 37.3979 153.816 37.3652 153.75 37.2996C153.685 37.2341 153.652 37.1504 153.652 37.0484V34.2744C153.652 34.0559 153.634 33.8594 153.597 33.6846C153.561 33.5026 153.492 33.3497 153.39 33.2259C153.295 33.0948 153.161 32.9966 152.986 32.931C152.818 32.8582 152.604 32.8218 152.342 32.8218C152.072 32.8218 151.843 32.8619 151.653 32.9419C151.471 33.0148 151.322 33.1203 151.206 33.2587C151.096 33.397 151.016 33.5608 150.965 33.7501C150.914 33.9322 150.889 34.1324 150.889 34.3508V37.0484C150.889 37.1504 150.856 37.2341 150.791 37.2996C150.725 37.3652 150.641 37.3979 150.539 37.3979C150.438 37.3979 150.354 37.3652 150.288 37.2996C150.223 37.2341 150.19 37.1504 150.19 37.0484V29.8839C150.19 29.782 150.223 29.6983 150.288 29.6327C150.354 29.5672 150.438 29.5344 150.539 29.5344C150.641 29.5344 150.725 29.5672 150.791 29.6327C150.856 29.6983 150.889 29.782 150.889 29.8839V32.9638C150.991 32.7526 151.169 32.5743 151.424 32.4286C151.679 32.2757 151.985 32.1993 152.342 32.1993ZM156.349 37.0484C156.349 37.1504 156.317 37.2341 156.251 37.2996C156.186 37.3652 156.102 37.3979 156 37.3979C155.898 37.3979 155.814 37.3652 155.749 37.2996C155.683 37.2341 155.65 37.1504 155.65 37.0484V32.6143C155.65 32.5124 155.683 32.4286 155.749 32.3631C155.814 32.2976 155.898 32.2648 156 32.2648C156.102 32.2648 156.186 32.2976 156.251 32.3631C156.317 32.4286 156.349 32.5124 156.349 32.6143V37.0484ZM156 31.2382C155.723 31.2382 155.585 31.0999 155.585 30.8232C155.585 30.663 155.621 30.5501 155.694 30.4846C155.767 30.4191 155.869 30.3863 156 30.3863C156.131 30.3863 156.233 30.4191 156.306 30.4846C156.379 30.5501 156.415 30.663 156.415 30.8232C156.415 31.0999 156.277 31.2382 156 31.2382ZM159.674 38.632C159.448 38.632 159.335 38.5192 159.335 38.2935C159.335 38.0678 159.448 37.9549 159.674 37.9549C159.892 37.9549 160.001 38.0678 160.001 38.2935C160.001 38.5192 159.892 38.632 159.674 38.632ZM157.446 34.8204C157.446 33.9758 157.642 33.3278 158.035 32.8764C158.428 32.425 158.982 32.1993 159.695 32.1993C160.132 32.1993 160.485 32.2757 160.755 32.4286C161.031 32.5815 161.243 32.7672 161.388 32.9856C161.541 33.2041 161.643 33.4371 161.694 33.6846C161.752 33.9322 161.781 34.147 161.781 34.329C161.781 34.4091 161.778 34.4928 161.77 34.5802C161.77 34.6603 161.756 34.7331 161.727 34.7986C161.698 34.8641 161.654 34.9187 161.596 34.9624C161.537 35.0061 161.454 35.028 161.345 35.028H158.155C158.155 35.574 158.301 36.0072 158.592 36.3276C158.884 36.648 159.288 36.8082 159.805 36.8082C160.125 36.8082 160.383 36.7608 160.58 36.6662C160.784 36.5642 160.962 36.455 161.115 36.3385C161.152 36.3167 161.181 36.3021 161.203 36.2948C161.232 36.2803 161.268 36.273 161.312 36.273C161.399 36.273 161.472 36.3058 161.53 36.3713C161.596 36.4295 161.628 36.5024 161.628 36.5897C161.628 36.648 161.618 36.6953 161.596 36.7317C161.574 36.7681 161.545 36.8045 161.508 36.8409C161.465 36.8846 161.395 36.9429 161.301 37.0157C161.213 37.0812 161.097 37.1467 160.951 37.2123C160.813 37.2778 160.646 37.3324 160.449 37.3761C160.26 37.427 160.045 37.4525 159.805 37.4525C159.076 37.4525 158.501 37.245 158.079 36.83C157.657 36.4077 157.446 35.7379 157.446 34.8204ZM161.093 34.4163C161.093 34.2198 161.071 34.0268 161.028 33.8375C160.991 33.6482 160.919 33.4807 160.809 33.3351C160.707 33.1822 160.565 33.0621 160.383 32.9747C160.209 32.8801 159.979 32.8327 159.695 32.8327C159.215 32.8327 158.847 32.9747 158.592 33.2587C158.337 33.5426 158.192 33.9285 158.155 34.4163H161.093ZM159.717 31.0744L158.964 31.7078C158.949 31.7224 158.931 31.7369 158.909 31.7515C158.887 31.7588 158.854 31.7624 158.811 31.7624C158.752 31.7624 158.702 31.7406 158.658 31.6969C158.614 31.6532 158.592 31.6022 158.592 31.544C158.592 31.4785 158.621 31.4166 158.68 31.3583L159.564 30.6266C159.586 30.612 159.608 30.6011 159.63 30.5938C159.652 30.5793 159.681 30.572 159.717 30.572C159.754 30.572 159.783 30.5793 159.805 30.5938C159.826 30.6011 159.848 30.612 159.87 30.6266L160.755 31.3583C160.813 31.4166 160.842 31.4785 160.842 31.544C160.842 31.6022 160.82 31.6532 160.777 31.6969C160.733 31.7406 160.682 31.7624 160.624 31.7624C160.58 31.7624 160.547 31.7588 160.525 31.7515C160.504 31.7369 160.485 31.7224 160.471 31.7078L159.717 31.0744ZM163.21 32.2648C163.305 32.2648 163.385 32.2976 163.45 32.3631C163.523 32.4286 163.56 32.5124 163.56 32.6143V32.9638C163.662 32.7745 163.84 32.5997 164.095 32.4396C164.357 32.2794 164.674 32.1993 165.045 32.1993C165.751 32.1993 166.308 32.4141 166.716 32.8437C167.124 33.266 167.328 33.9249 167.328 34.8204C167.328 35.716 167.124 36.3786 166.716 36.8082C166.308 37.2377 165.751 37.4525 165.045 37.4525C164.674 37.4525 164.361 37.3724 164.106 37.2123C163.858 37.0521 163.676 36.8773 163.56 36.688V39.1563C163.56 39.2509 163.523 39.331 163.45 39.3966C163.385 39.4694 163.305 39.5058 163.21 39.5058C163.115 39.5058 163.032 39.4694 162.959 39.3966C162.893 39.331 162.861 39.2509 162.861 39.1563V32.6143C162.861 32.5124 162.893 32.4286 162.959 32.3631C163.032 32.2976 163.115 32.2648 163.21 32.2648ZM163.538 34.8204C163.538 35.1699 163.574 35.4721 163.647 35.7269C163.727 35.9818 163.833 36.1893 163.964 36.3495C164.102 36.5096 164.262 36.6298 164.444 36.7099C164.634 36.7827 164.834 36.8191 165.045 36.8191C165.547 36.8191 165.933 36.6589 166.203 36.3385C166.479 36.0109 166.618 35.5049 166.618 34.8204C166.618 34.136 166.476 33.6336 166.192 33.3133C165.915 32.9929 165.525 32.8327 165.023 32.8327C164.819 32.8327 164.626 32.8691 164.444 32.9419C164.27 33.0148 164.113 33.1313 163.975 33.2914C163.844 33.4516 163.738 33.6591 163.658 33.914C163.578 34.1615 163.538 34.4637 163.538 34.8204Z" fill="#F07F7E"/>
<defs>
<linearGradient id="paint0_linear_588_1528" x1="4.89624" y1="2.41925" x2="38.4354" y2="41.2943" gradientUnits="userSpaceOnUse">
<stop stop-color="#F07F7E"/>
<stop offset="1" stop-color="#FBAF51"/>
</linearGradient>
</defs>
</svg>
