<svg width="19" height="18" viewBox="0 0 19 18" fill="none" xmlns="http://www.w3.org/2000/svg">
<rect width="18" height="18" rx="4" fill="white"/>
<path d="M15.3373 0H2.72663C1.23551 0 0.0213031 1.2142 0.0213031 2.70533C0.0213031 3.06746 0.298225 3.40828 0.532544 3.66391L8.07337 9.88403C8.47811 10.2249 9.07456 10.2035 9.47929 9.84142L11.5669 7.90296C12.1846 7.32781 12.142 6.34793 11.4817 5.83669C10.9278 5.41065 10.1609 5.45325 9.671 5.9645C9.22367 6.41183 8.49941 6.45444 8.03077 6.0284L4.85681 3.21657H4.98461H13.058C14.0166 3.21657 14.8047 4.00473 14.8047 4.96331V13.0367C14.8047 13.9953 14.0166 14.7834 13.058 14.7834H4.98461C4.02603 14.7834 3.23787 13.9953 3.23787 13.0367C3.23787 12.6959 2.96095 12.4189 2.62012 12.4189H0.61775C0.276922 12.4189 0 12.6959 0 13.0367V15.2947C0 16.7858 1.2142 18 2.70533 18H15.316C16.8071 18 18.0213 16.7858 18.0213 15.2947V2.68402C18.0426 1.2142 16.8284 0 15.3373 0Z" fill="url(#paint0_linear_667_2384)"/>
<defs>
<linearGradient id="paint0_linear_667_2384" x1="2.20522" y1="1.08961" x2="17.311" y2="18.5986" gradientUnits="userSpaceOnUse">
<stop stop-color="#F07F7E"/>
<stop offset="1" stop-color="#FBAF51"/>
</linearGradient>
</defs>
</svg>
