    <svg width="25" height="25" viewBox="0 0 25 25" fill="none" xmlns="http://www.w3.org/2000/svg">
    <rect width="25" height="25" rx="3" fill="#F4F6FC"/>
    <path d="M12.2555 19.1176C12.9664 19.1176 13.548 18.552 13.548 17.8607H10.963C10.963 18.552 11.5382 19.1176 12.2555 19.1176ZM16.133 15.3468V12.2046C16.133 10.2752 15.0732 8.66006 13.2249 8.23271V7.80536C13.2249 7.28374 12.7919 6.86267 12.2555 6.86267C11.7191 6.86267 11.2861 7.28374 11.2861 7.80536V8.23271C9.4314 8.66006 8.37801 10.2689 8.37801 12.2046V15.3468L7.54435 16.1575C7.13721 16.5535 7.42156 17.2322 7.99673 17.2322H16.5078C17.083 17.2322 17.3738 16.5535 16.9667 16.1575L16.133 15.3468Z" fill="#CACACA"/>
    </svg>