<svg width="365" height="288" viewBox="0 0 365 288" fill="none" xmlns="http://www.w3.org/2000/svg">
<path opacity="0.6" d="M8.33541 260.638C8.33541 260.638 -16.874 226.486 20.3893 195.314C35.3594 182.806 93.555 173.993 44.6266 104.132C15.8529 63.0454 57.6526 3.29452 124.403 41.2707C181.172 73.6088 220.704 4.78505 270.928 0.183841C309.164 -3.31567 332.17 43.8629 309.099 80.543C283.242 121.695 332.559 114.76 343.316 128.37C362.24 152.348 300.869 180.798 328.994 211.256C357.639 242.298 338.002 260.573 338.002 260.573H8.33541V260.638Z" fill="#FFE2CE"/>
<g opacity="0.25">
<path opacity="0.25" d="M251.357 59.0277V184.168C251.357 189.611 246.95 194.018 241.507 194.018H88.6946C83.2509 194.018 78.8441 189.611 78.8441 184.168V59.0277C78.8441 53.584 83.2509 49.1772 88.6946 49.1772H241.571C246.95 49.2421 251.357 53.584 251.357 59.0277Z" fill="#2A507A"/>
<path opacity="0.25" d="M251.357 59.0277V76.5253H78.8441V59.0277C78.8441 53.584 83.2509 49.1772 88.6946 49.1772H241.571C246.95 49.2421 251.357 53.584 251.357 59.0277Z" fill="#2A507A"/>
<path opacity="0.25" d="M103.859 103.938H87.204C86.3616 103.938 85.7135 103.29 85.7135 102.447V85.7923C85.7135 84.9498 86.3616 84.3018 87.204 84.3018H103.859C104.702 84.3018 105.35 84.9498 105.35 85.7923V102.447C105.35 103.29 104.702 103.938 103.859 103.938Z" fill="#2A507A"/>
<path opacity="0.25" d="M131.855 103.938H115.2C114.358 103.938 113.71 103.29 113.71 102.447V85.7923C113.71 84.9498 114.358 84.3018 115.2 84.3018H131.855C132.698 84.3018 133.346 84.9498 133.346 85.7923V102.447C133.346 103.29 132.698 103.938 131.855 103.938Z" fill="#2A507A"/>
<path opacity="0.25" d="M159.851 103.938H143.196C142.354 103.938 141.706 103.29 141.706 102.447V85.7923C141.706 84.9498 142.354 84.3018 143.196 84.3018H159.851C160.694 84.3018 161.342 84.9498 161.342 85.7923V102.447C161.407 103.29 160.694 103.938 159.851 103.938Z" fill="#2A507A"/>
<path opacity="0.25" d="M187.912 103.938H171.257C170.415 103.938 169.767 103.29 169.767 102.447V85.7923C169.767 84.9498 170.415 84.3018 171.257 84.3018H187.912C188.755 84.3018 189.403 84.9498 189.403 85.7923V102.447C189.403 103.29 188.69 103.938 187.912 103.938Z" fill="#2A507A"/>
<path opacity="0.25" d="M215.908 103.938H199.253C198.411 103.938 197.763 103.29 197.763 102.447V85.7923C197.763 84.9498 198.411 84.3018 199.253 84.3018H215.908C216.751 84.3018 217.399 84.9498 217.399 85.7923V102.447C217.399 103.29 216.751 103.938 215.908 103.938Z" stroke="#2A507A" stroke-width="0.843706" stroke-miterlimit="10"/>
<path opacity="0.25" d="M243.904 103.938H227.249C226.407 103.938 225.759 103.29 225.759 102.447V85.7923C225.759 84.9498 226.407 84.3018 227.249 84.3018H243.904C244.747 84.3018 245.395 84.9498 245.395 85.7923V102.447C245.395 103.29 244.747 103.938 243.904 103.938Z" fill="#2A507A"/>
<path opacity="0.25" d="M103.859 130.314H87.204C86.3616 130.314 85.7135 129.666 85.7135 128.824V112.169C85.7135 111.326 86.3616 110.678 87.204 110.678H103.859C104.702 110.678 105.35 111.326 105.35 112.169V128.824C105.35 129.666 104.702 130.314 103.859 130.314Z" fill="#2A507A"/>
<path opacity="0.25" d="M131.855 130.314H115.2C114.358 130.314 113.71 129.666 113.71 128.824V112.169C113.71 111.326 114.358 110.678 115.2 110.678H131.855C132.698 110.678 133.346 111.326 133.346 112.169V128.824C133.346 129.666 132.698 130.314 131.855 130.314Z" fill="#2A507A"/>
<path opacity="0.25" d="M159.851 130.314H143.196C142.354 130.314 141.706 129.666 141.706 128.824V112.169C141.706 111.326 142.354 110.678 143.196 110.678H159.851C160.694 110.678 161.342 111.326 161.342 112.169V128.824C161.407 129.666 160.694 130.314 159.851 130.314Z" stroke="#2A507A" stroke-width="0.843706" stroke-miterlimit="10"/>
<path opacity="0.25" d="M187.912 130.314H171.257C170.415 130.314 169.767 129.666 169.767 128.824V112.169C169.767 111.326 170.415 110.678 171.257 110.678H187.912C188.755 110.678 189.403 111.326 189.403 112.169V128.824C189.403 129.666 188.69 130.314 187.912 130.314Z" fill="#2A507A"/>
<path opacity="0.25" d="M215.908 130.314H199.253C198.411 130.314 197.763 129.666 197.763 128.824V112.169C197.763 111.326 198.411 110.678 199.253 110.678H215.908C216.751 110.678 217.399 111.326 217.399 112.169V128.824C217.399 129.666 216.751 130.314 215.908 130.314Z" fill="#2A507A"/>
<path opacity="0.25" d="M243.904 130.314H227.249C226.407 130.314 225.759 129.666 225.759 128.824V112.169C225.759 111.326 226.407 110.678 227.249 110.678H243.904C244.747 110.678 245.395 111.326 245.395 112.169V128.824C245.395 129.666 244.747 130.314 243.904 130.314Z" fill="#2A507A"/>
<path opacity="0.25" d="M103.859 156.69H87.204C86.3616 156.69 85.7135 156.042 85.7135 155.199V138.544C85.7135 137.702 86.3616 137.054 87.204 137.054H103.859C104.702 137.054 105.35 137.702 105.35 138.544V155.199C105.35 156.042 104.702 156.69 103.859 156.69Z" fill="#2A507A"/>
<path opacity="0.25" d="M131.855 156.69H115.2C114.358 156.69 113.71 156.042 113.71 155.199V138.544C113.71 137.702 114.358 137.054 115.2 137.054H131.855C132.698 137.054 133.346 137.702 133.346 138.544V155.199C133.346 156.042 132.698 156.69 131.855 156.69Z" fill="#2A507A"/>
<path opacity="0.25" d="M159.851 156.69H143.196C142.354 156.69 141.706 156.042 141.706 155.199V138.544C141.706 137.702 142.354 137.054 143.196 137.054H159.851C160.694 137.054 161.342 137.702 161.342 138.544V155.199C161.407 156.042 160.694 156.69 159.851 156.69Z" fill="#2A507A"/>
<path opacity="0.25" d="M187.912 156.69H171.257C170.415 156.69 169.767 156.042 169.767 155.199V138.544C169.767 137.702 170.415 137.054 171.257 137.054H187.912C188.755 137.054 189.403 137.702 189.403 138.544V155.199C189.403 156.042 188.69 156.69 187.912 156.69Z" fill="#2A507A"/>
<path opacity="0.25" d="M215.908 156.69H199.253C198.411 156.69 197.763 156.042 197.763 155.199V138.544C197.763 137.702 198.411 137.054 199.253 137.054H215.908C216.751 137.054 217.399 137.702 217.399 138.544V155.199C217.399 156.042 216.751 156.69 215.908 156.69Z" fill="#2A507A"/>
<path opacity="0.25" d="M243.904 156.69H227.249C226.407 156.69 225.759 156.042 225.759 155.199V138.544C225.759 137.702 226.407 137.054 227.249 137.054H243.904C244.747 137.054 245.395 137.702 245.395 138.544V155.199C245.395 156.042 244.747 156.69 243.904 156.69Z" fill="#2A507A"/>
<path opacity="0.25" d="M103.859 183.066H87.204C86.3616 183.066 85.7135 182.418 85.7135 181.575V164.92C85.7135 164.078 86.3616 163.43 87.204 163.43H103.859C104.702 163.43 105.35 164.078 105.35 164.92V181.575C105.35 182.418 104.702 183.066 103.859 183.066Z" stroke="#2A507A" stroke-width="0.843706" stroke-miterlimit="10"/>
<path opacity="0.25" d="M131.855 183.066H115.2C114.358 183.066 113.71 182.418 113.71 181.575V164.92C113.71 164.078 114.358 163.43 115.2 163.43H131.855C132.698 163.43 133.346 164.078 133.346 164.92V181.575C133.346 182.418 132.698 183.066 131.855 183.066Z" fill="#2A507A"/>
<path opacity="0.25" d="M159.851 183.066H143.196C142.354 183.066 141.706 182.418 141.706 181.575V164.92C141.706 164.078 142.354 163.43 143.196 163.43H159.851C160.694 163.43 161.342 164.078 161.342 164.92V181.575C161.407 182.418 160.694 183.066 159.851 183.066Z" fill="#2A507A"/>
<path opacity="0.25" d="M187.912 183.066H171.257C170.415 183.066 169.767 182.418 169.767 181.575V164.92C169.767 164.078 170.415 163.43 171.257 163.43H187.912C188.755 163.43 189.403 164.078 189.403 164.92V181.575C189.403 182.418 188.69 183.066 187.912 183.066Z" fill="#2A507A"/>
<path opacity="0.25" d="M215.908 183.066H199.253C198.411 183.066 197.763 182.418 197.763 181.575V164.92C197.763 164.078 198.411 163.43 199.253 163.43H215.908C216.751 163.43 217.399 164.078 217.399 164.92V181.575C217.399 182.418 216.751 183.066 215.908 183.066Z" fill="#2A507A"/>
<path opacity="0.25" d="M243.904 183.066H227.249C226.407 183.066 225.759 182.418 225.759 181.575V164.92C225.759 164.078 226.407 163.43 227.249 163.43H243.904C244.747 163.43 245.395 164.078 245.395 164.92V181.575C245.395 182.418 244.747 183.066 243.904 183.066Z" fill="#2A507A"/>
<path opacity="0.25" d="M92.8421 64.4713C92.8421 66.4155 91.222 68.0356 89.2778 68.0356C87.3336 68.0356 85.7135 66.4155 85.7135 64.4713C85.7135 62.5271 87.3336 60.907 89.2778 60.907C91.222 60.907 92.8421 62.4623 92.8421 64.4713Z" fill="#2A507A"/>
<path opacity="0.25" d="M123.236 64.4713C123.236 66.4155 121.616 68.0356 119.672 68.0356C117.728 68.0356 116.107 66.4155 116.107 64.4713C116.107 62.5271 117.728 60.907 119.672 60.907C121.681 60.907 123.236 62.4623 123.236 64.4713Z" fill="#2A507A"/>
<path opacity="0.25" d="M153.695 64.4713C153.695 66.4155 152.075 68.0356 150.13 68.0356C148.186 68.0356 146.566 66.4155 146.566 64.4713C146.566 62.5271 148.186 60.907 150.13 60.907C152.139 60.907 153.695 62.4623 153.695 64.4713Z" fill="#2A507A"/>
<path opacity="0.25" d="M184.153 64.4713C184.153 66.4155 182.533 68.0356 180.589 68.0356C178.645 68.0356 177.025 66.4155 177.025 64.4713C177.025 62.5271 178.645 60.907 180.589 60.907C182.533 60.907 184.153 62.4623 184.153 64.4713Z" fill="#2A507A"/>
<path opacity="0.25" d="M214.612 64.4713C214.612 66.4155 212.992 68.0356 211.048 68.0356C209.104 68.0356 207.484 66.4155 207.484 64.4713C207.484 62.5271 209.104 60.907 211.048 60.907C212.992 60.907 214.612 62.4623 214.612 64.4713Z" fill="#2A507A"/>
<path opacity="0.25" d="M245.071 64.4713C245.071 66.4155 243.451 68.0356 241.507 68.0356C239.562 68.0356 237.942 66.4155 237.942 64.4713C237.942 62.5271 239.562 60.907 241.507 60.907C243.451 60.907 245.071 62.4623 245.071 64.4713Z" fill="#2A507A"/>
<path opacity="0.25" d="M89.2778 64.4715V47.6868" stroke="#2A507A" stroke-width="3.50852" stroke-miterlimit="10" stroke-linecap="round"/>
<path opacity="0.25" d="M119.672 64.4715V47.6868" stroke="#2A507A" stroke-width="3.50852" stroke-miterlimit="10" stroke-linecap="round"/>
<path opacity="0.25" d="M150.13 64.4715V47.6868" stroke="#2A507A" stroke-width="3.50852" stroke-miterlimit="10" stroke-linecap="round"/>
<path opacity="0.25" d="M211.048 64.4715V47.6868" stroke="#2A507A" stroke-width="3.50852" stroke-miterlimit="10" stroke-linecap="round"/>
<path opacity="0.25" d="M241.442 64.4715V47.6868" stroke="#2A507A" stroke-width="3.50852" stroke-miterlimit="10" stroke-linecap="round"/>
<path opacity="0.25" d="M157.194 141.59C156.611 141.785 156.028 141.979 155.445 142.109C155.833 143.534 156.093 145.025 156.093 146.516H159.268C159.203 144.636 158.426 142.886 157.194 141.59ZM154.602 139.776C154.861 140.294 155.056 140.877 155.25 141.396C155.704 141.266 156.157 141.137 156.611 141.007C155.963 140.489 155.315 140.1 154.602 139.776ZM153.63 139.387C153.112 139.257 152.528 139.128 151.945 139.128V141.785C152.787 141.785 153.695 141.655 154.537 141.525C154.278 140.813 153.954 140.1 153.63 139.387ZM154.732 142.238C153.824 142.433 152.852 142.498 151.945 142.498V146.451H155.445C155.38 145.09 155.12 143.664 154.732 142.238ZM151.556 139.128C151.427 139.128 151.297 139.128 151.167 139.128H151.88C151.815 139.128 151.686 139.128 151.556 139.128ZM149.482 139.387C149.158 140.1 148.834 140.813 148.575 141.525C149.418 141.655 150.325 141.785 151.167 141.785V139.128C150.584 139.192 150.066 139.257 149.482 139.387ZM146.501 141.007C146.955 141.137 147.409 141.266 147.862 141.396C148.057 140.813 148.251 140.294 148.51 139.776C147.797 140.1 147.085 140.489 146.501 141.007ZM148.381 142.238C147.992 143.599 147.733 145.025 147.733 146.516H151.232V142.562C150.26 142.498 149.288 142.433 148.381 142.238ZM145.918 141.59C144.687 142.886 143.909 144.636 143.844 146.516H147.02C147.02 145.025 147.279 143.534 147.668 142.109C147.085 141.914 146.501 141.785 145.918 141.59ZM151.945 147.228V151.182C152.917 151.182 153.824 151.311 154.732 151.441C155.12 150.08 155.38 148.589 155.38 147.164H151.945V147.228ZM156.093 147.228C156.093 148.719 155.833 150.209 155.445 151.635C156.028 151.765 156.611 151.959 157.194 152.154C158.426 150.858 159.203 149.108 159.268 147.228H156.093ZM147.862 152.348C147.409 152.478 146.955 152.607 146.501 152.737C147.085 153.255 147.797 153.709 148.575 154.033C148.316 153.45 148.057 152.931 147.862 152.348ZM155.185 152.348C154.991 152.931 154.796 153.45 154.537 154.033C155.315 153.709 155.963 153.255 156.611 152.737C156.157 152.542 155.704 152.413 155.185 152.348ZM151.945 151.959V154.616C152.528 154.616 153.047 154.487 153.63 154.357C154.019 153.644 154.278 152.931 154.537 152.218C153.63 152.024 152.787 151.959 151.945 151.959ZM148.575 152.218C148.834 152.931 149.158 153.644 149.482 154.357C150.001 154.487 150.584 154.616 151.167 154.616V151.959C150.325 151.959 149.482 152.024 148.575 152.218ZM147.02 147.228H143.844C143.909 149.108 144.687 150.858 145.918 152.154C146.501 151.959 147.085 151.765 147.668 151.635C147.279 150.209 147.02 148.719 147.02 147.228ZM147.733 147.228C147.733 148.654 147.992 150.08 148.381 151.506C149.288 151.311 150.26 151.246 151.167 151.246V147.293H147.733V147.228Z" fill="#2A507A"/>
<path opacity="0.25" d="M89.7963 95.4484L94.5271 99.4664L101.332 89.9399" stroke="#2A507A" stroke-width="2.53105" stroke-miterlimit="10" stroke-linecap="round" stroke-linejoin="round"/>
<path opacity="0.25" d="M202.364 95.4484L207.095 99.4664L213.899 89.9399" stroke="#2A507A" stroke-width="2.53105" stroke-miterlimit="10" stroke-linecap="round" stroke-linejoin="round"/>
<path opacity="0.25" d="M117.728 173.41L122.523 177.428L129.328 167.901" stroke="#2A507A" stroke-width="2.53105" stroke-miterlimit="10" stroke-linecap="round" stroke-linejoin="round"/>
</g>
<path d="M247.987 55.6576V180.798C247.987 186.241 243.58 190.648 238.137 190.648H85.3247C79.881 190.648 75.4742 186.241 75.4742 180.798V55.6576C75.4742 50.2139 79.881 45.8071 85.3247 45.8071H238.201C243.58 45.8071 247.987 50.2139 247.987 55.6576Z" fill="white"/>
<path d="M247.987 55.6576V73.1552H75.4742V55.6576C75.4742 50.2139 79.881 45.8071 85.3247 45.8071H238.201C243.58 45.8071 247.987 50.2139 247.987 55.6576Z" fill="#F79D61"/>
<path d="M100.489 100.568H83.8341C82.9916 100.568 82.3436 99.92 82.3436 99.0775V82.4224C82.3436 81.5799 82.9916 80.9319 83.8341 80.9319H100.489C101.332 80.9319 101.98 81.5799 101.98 82.4224V99.0775C101.98 99.92 101.332 100.568 100.489 100.568Z" fill="#FFE6D6"/>
<path d="M128.485 100.568H111.83C110.988 100.568 110.34 99.92 110.34 99.0775V82.4224C110.34 81.5799 110.988 80.9319 111.83 80.9319H128.485C129.328 80.9319 129.976 81.5799 129.976 82.4224V99.0775C129.976 99.92 129.328 100.568 128.485 100.568Z" fill="#FFE6D6"/>
<path d="M156.481 100.568H139.826C138.984 100.568 138.336 99.92 138.336 99.0775V82.4224C138.336 81.5799 138.984 80.9319 139.826 80.9319H156.481C157.324 80.9319 157.972 81.5799 157.972 82.4224V99.0775C158.037 99.92 157.324 100.568 156.481 100.568Z" fill="#FFE6D6"/>
<path d="M184.478 100.568H167.822C166.98 100.568 166.332 99.92 166.332 99.0775V82.4224C166.332 81.5799 166.98 80.9319 167.822 80.9319H184.478C185.32 80.9319 185.968 81.5799 185.968 82.4224V99.0775C186.033 99.92 185.32 100.568 184.478 100.568Z" fill="#FFE6D6"/>
<path d="M212.538 100.568H195.883C195.041 100.568 194.393 99.92 194.393 99.0775V82.4224C194.393 81.5799 195.041 80.9319 195.883 80.9319H212.538C213.381 80.9319 214.029 81.5799 214.029 82.4224V99.0775C214.029 99.92 213.381 100.568 212.538 100.568Z" stroke="#FFE6D6" stroke-width="0.843706" stroke-miterlimit="10"/>
<path d="M240.535 100.568H223.879C223.037 100.568 222.389 99.92 222.389 99.0775V82.4224C222.389 81.5799 223.037 80.9319 223.879 80.9319H240.535C241.377 80.9319 242.025 81.5799 242.025 82.4224V99.0775C242.025 99.92 241.377 100.568 240.535 100.568Z" fill="#FFE6D6"/>
<path d="M100.489 126.944H83.8341C82.9917 126.944 82.3436 126.296 82.3436 125.453V108.798C82.3436 107.956 82.9917 107.308 83.8341 107.308H100.489C101.332 107.308 101.98 107.956 101.98 108.798V125.453C101.98 126.296 101.332 126.944 100.489 126.944Z" fill="#FFE6D6"/>
<path d="M128.485 126.944H111.83C110.988 126.944 110.34 126.296 110.34 125.453V108.798C110.34 107.956 110.988 107.308 111.83 107.308H128.485C129.328 107.308 129.976 107.956 129.976 108.798V125.453C129.976 126.296 129.328 126.944 128.485 126.944Z" fill="#FFE6D6"/>
<path d="M156.481 126.944H139.826C138.984 126.944 138.336 126.296 138.336 125.453V108.798C138.336 107.956 138.984 107.308 139.826 107.308H156.481C157.324 107.308 157.972 107.956 157.972 108.798V125.453C158.037 126.296 157.324 126.944 156.481 126.944Z" stroke="#FFE6D6" stroke-width="0.843706" stroke-miterlimit="10"/>
<path d="M184.478 126.944H167.822C166.98 126.944 166.332 126.296 166.332 125.453V108.798C166.332 107.956 166.98 107.308 167.822 107.308H184.478C185.32 107.308 185.968 107.956 185.968 108.798V125.453C186.033 126.296 185.32 126.944 184.478 126.944Z" fill="#FFE6D6"/>
<path d="M212.538 126.944H195.883C195.041 126.944 194.393 126.296 194.393 125.453V108.798C194.393 107.956 195.041 107.308 195.883 107.308H212.538C213.381 107.308 214.029 107.956 214.029 108.798V125.453C214.029 126.296 213.381 126.944 212.538 126.944Z" fill="#FFE6D6"/>
<path d="M240.535 126.944H223.879C223.037 126.944 222.389 126.296 222.389 125.453V108.798C222.389 107.956 223.037 107.308 223.879 107.308H240.535C241.377 107.308 242.025 107.956 242.025 108.798V125.453C242.025 126.296 241.377 126.944 240.535 126.944Z" fill="#FFE6D6"/>
<path d="M100.489 153.32H83.8341C82.9916 153.32 82.3436 152.672 82.3436 151.829V135.174C82.3436 134.332 82.9916 133.684 83.8341 133.684H100.489C101.332 133.684 101.98 134.332 101.98 135.174V151.829C101.98 152.672 101.332 153.32 100.489 153.32Z" fill="#FFE6D6"/>
<path d="M128.485 153.32H111.83C110.988 153.32 110.34 152.672 110.34 151.829V135.174C110.34 134.332 110.988 133.684 111.83 133.684H128.485C129.328 133.684 129.976 134.332 129.976 135.174V151.829C129.976 152.672 129.328 153.32 128.485 153.32Z" fill="#FFE6D6"/>
<path d="M156.481 153.32H139.826C138.984 153.32 138.336 152.672 138.336 151.829V135.174C138.336 134.332 138.984 133.684 139.826 133.684H156.481C157.324 133.684 157.972 134.332 157.972 135.174V151.829C158.037 152.672 157.324 153.32 156.481 153.32Z" fill="#FFE6D6"/>
<path d="M184.478 153.32H167.822C166.98 153.32 166.332 152.672 166.332 151.829V135.174C166.332 134.332 166.98 133.684 167.822 133.684H184.478C185.32 133.684 185.968 134.332 185.968 135.174V151.829C186.033 152.672 185.32 153.32 184.478 153.32Z" fill="#FFE6D6"/>
<path d="M212.538 153.32H195.883C195.041 153.32 194.393 152.672 194.393 151.829V135.174C194.393 134.332 195.041 133.684 195.883 133.684H212.538C213.381 133.684 214.029 134.332 214.029 135.174V151.829C214.029 152.672 213.381 153.32 212.538 153.32Z" fill="#FFE6D6"/>
<path d="M240.535 153.32H223.879C223.037 153.32 222.389 152.672 222.389 151.829V135.174C222.389 134.332 223.037 133.684 223.879 133.684H240.535C241.377 133.684 242.025 134.332 242.025 135.174V151.829C242.025 152.672 241.377 153.32 240.535 153.32Z" fill="#FFE6D6"/>
<path d="M100.489 179.696H83.8341C82.9916 179.696 82.3436 179.048 82.3436 178.206V161.551C82.3436 160.708 82.9916 160.06 83.8341 160.06H100.489C101.332 160.06 101.98 160.708 101.98 161.551V178.206C101.98 179.048 101.332 179.696 100.489 179.696Z" stroke="#FFE6D6" stroke-width="0.843706" stroke-miterlimit="10"/>
<path d="M128.485 179.696H111.83C110.988 179.696 110.34 179.048 110.34 178.206V161.551C110.34 160.708 110.988 160.06 111.83 160.06H128.485C129.328 160.06 129.976 160.708 129.976 161.551V178.206C129.976 179.048 129.328 179.696 128.485 179.696Z" fill="#FFE6D6"/>
<path d="M156.481 179.696H139.826C138.984 179.696 138.336 179.048 138.336 178.206V161.551C138.336 160.708 138.984 160.06 139.826 160.06H156.481C157.324 160.06 157.972 160.708 157.972 161.551V178.206C158.037 179.048 157.324 179.696 156.481 179.696Z" fill="#FFE6D6"/>
<path d="M184.478 179.696H167.822C166.98 179.696 166.332 179.048 166.332 178.206V161.551C166.332 160.708 166.98 160.06 167.822 160.06H184.478C185.32 160.06 185.968 160.708 185.968 161.551V178.206C186.033 179.048 185.32 179.696 184.478 179.696Z" fill="#FFE6D6"/>
<path d="M212.538 179.696H195.883C195.041 179.696 194.393 179.048 194.393 178.206V161.551C194.393 160.708 195.041 160.06 195.883 160.06H212.538C213.381 160.06 214.029 160.708 214.029 161.551V178.206C214.029 179.048 213.381 179.696 212.538 179.696Z" fill="#FFE6D6"/>
<path d="M240.535 179.696H223.879C223.037 179.696 222.389 179.048 222.389 178.206V161.551C222.389 160.708 223.037 160.06 223.879 160.06H240.535C241.377 160.06 242.025 160.708 242.025 161.551V178.206C242.025 179.048 241.377 179.696 240.535 179.696Z" fill="#FFE6D6"/>
<path d="M89.4722 61.1014C89.4722 63.0456 87.8521 64.6657 85.9079 64.6657C83.9637 64.6657 82.3436 63.0456 82.3436 61.1014C82.3436 59.1573 83.9637 57.5371 85.9079 57.5371C87.8521 57.5371 89.4722 59.0924 89.4722 61.1014Z" fill="#BDE7FF"/>
<path d="M116.302 64.6657C118.27 64.6657 119.866 63.0699 119.866 61.1014C119.866 59.1329 118.27 57.5371 116.302 57.5371C114.333 57.5371 112.738 59.1329 112.738 61.1014C112.738 63.0699 114.333 64.6657 116.302 64.6657Z" fill="#BDE7FF"/>
<path d="M146.761 64.6657C148.729 64.6657 150.325 63.0699 150.325 61.1014C150.325 59.1329 148.729 57.5371 146.761 57.5371C144.792 57.5371 143.196 59.1329 143.196 61.1014C143.196 63.0699 144.792 64.6657 146.761 64.6657Z" fill="#BDE7FF"/>
<path d="M180.784 61.1014C180.784 63.0455 179.163 64.6657 177.219 64.6657C175.275 64.6657 173.655 63.0455 173.655 61.1014C173.655 59.1572 175.275 57.537 177.219 57.537C179.163 57.4722 180.784 59.0924 180.784 61.1014Z" fill="#BDE7FF"/>
<path d="M211.242 61.1014C211.242 63.0455 209.622 64.6657 207.678 64.6657C205.734 64.6657 204.114 63.0455 204.114 61.1014C204.114 59.1572 205.734 57.537 207.678 57.537C209.622 57.4722 211.242 59.0924 211.242 61.1014Z" fill="#BDE7FF"/>
<path d="M241.701 61.1014C241.701 63.0455 240.081 64.6657 238.137 64.6657C236.193 64.6657 234.572 63.0455 234.572 61.1014C234.572 59.1572 236.193 57.537 238.137 57.537C240.081 57.4722 241.701 59.0924 241.701 61.1014Z" fill="#BDE7FF"/>
<path d="M85.8431 61.1016V44.3169" stroke="#192469" stroke-width="3.50852" stroke-miterlimit="10" stroke-linecap="round"/>
<path d="M116.302 61.1016V44.3169" stroke="#192469" stroke-width="3.50852" stroke-miterlimit="10" stroke-linecap="round"/>
<path d="M146.761 61.1016V44.3169" stroke="#192469" stroke-width="3.50852" stroke-miterlimit="10" stroke-linecap="round"/>
<path d="M207.678 61.1016V44.3169" stroke="#192469" stroke-width="3.50852" stroke-miterlimit="10" stroke-linecap="round"/>
<path d="M238.072 61.1016V44.3169" stroke="#192469" stroke-width="3.50852" stroke-miterlimit="10" stroke-linecap="round"/>
<path d="M153.824 138.22C153.241 138.415 152.658 138.609 152.075 138.739C152.463 140.165 152.723 141.655 152.723 143.146H155.898C155.833 141.266 155.056 139.517 153.824 138.22ZM151.167 136.406C151.427 136.924 151.621 137.508 151.815 138.026C152.269 137.896 152.723 137.767 153.176 137.637C152.593 137.119 151.945 136.665 151.167 136.406ZM150.26 136.017C149.742 135.887 149.158 135.758 148.575 135.758V138.415C149.418 138.415 150.325 138.285 151.167 138.156C150.908 137.443 150.584 136.73 150.26 136.017ZM151.362 138.868C150.454 139.063 149.482 139.128 148.575 139.128V143.081H152.075C152.01 141.72 151.751 140.229 151.362 138.868ZM148.186 135.758C148.057 135.758 147.927 135.758 147.797 135.758H148.51C148.445 135.758 148.316 135.758 148.186 135.758ZM146.112 136.017C145.788 136.73 145.464 137.443 145.205 138.156C146.048 138.285 146.955 138.415 147.797 138.415V135.758C147.214 135.823 146.696 135.887 146.112 136.017ZM143.131 137.637C143.585 137.767 144.039 137.896 144.492 138.026C144.687 137.443 144.881 136.924 145.14 136.406C144.428 136.665 143.715 137.119 143.131 137.637ZM145.011 138.868C144.622 140.229 144.363 141.655 144.363 143.146H147.862V139.193C146.89 139.128 145.918 139.063 145.011 138.868ZM142.548 138.22C141.317 139.517 140.539 141.266 140.474 143.146H143.65C143.65 141.655 143.909 140.165 144.298 138.739C143.715 138.544 143.131 138.415 142.548 138.22ZM148.51 143.859V147.812C149.482 147.812 150.39 147.941 151.297 148.071C151.686 146.71 151.945 145.219 151.945 143.794H148.51V143.859ZM152.723 143.859C152.723 145.349 152.463 146.84 152.075 148.265C152.658 148.395 153.241 148.589 153.824 148.784C155.056 147.488 155.833 145.738 155.898 143.859H152.723ZM144.492 148.978C144.039 149.108 143.585 149.237 143.131 149.367C143.715 149.885 144.428 150.339 145.205 150.663C144.946 150.08 144.687 149.497 144.492 148.978ZM151.815 148.978C151.621 149.561 151.427 150.08 151.167 150.663C151.945 150.339 152.593 149.885 153.241 149.367C152.787 149.173 152.334 149.043 151.815 148.978ZM148.51 148.525V151.182C149.094 151.182 149.612 151.052 150.195 150.922C150.584 150.209 150.843 149.497 151.103 148.784C150.26 148.654 149.418 148.589 148.51 148.525ZM145.205 148.849C145.464 149.561 145.788 150.274 146.112 150.987C146.631 151.117 147.214 151.246 147.797 151.246V148.589C146.955 148.589 146.112 148.654 145.205 148.849ZM143.65 143.859H140.474C140.539 145.738 141.317 147.488 142.548 148.784C143.131 148.589 143.715 148.395 144.298 148.265C143.844 146.84 143.65 145.349 143.65 143.859ZM144.363 143.859C144.363 145.284 144.622 146.71 145.011 148.136C145.918 147.941 146.89 147.877 147.797 147.877V143.859H144.363Z" fill="white"/>
<path d="M86.3616 92.0786L91.1572 96.0965L97.9618 86.5701" stroke="#F79D61" stroke-width="2.53105" stroke-miterlimit="10" stroke-linecap="round" stroke-linejoin="round"/>
<path d="M198.929 92.0786L203.725 96.0965L210.529 86.5701" stroke="#F79D61" stroke-width="2.53105" stroke-miterlimit="10" stroke-linecap="round" stroke-linejoin="round"/>
<path d="M114.358 170.04L119.153 173.993L125.958 164.531" stroke="#F79D61" stroke-width="2.53105" stroke-miterlimit="10" stroke-linecap="round" stroke-linejoin="round"/>
<g opacity="0.25">
<path opacity="0.25" d="M213.433 102.356L202.684 109.002L207.592 116.94L218.341 110.294L213.433 102.356Z" fill="#2A507A"/>
<path opacity="0.25" d="M202.688 108.993C205.215 105.364 209.104 102.966 213.446 102.383L202.688 108.993Z" fill="#2A507A"/>
<path opacity="0.25" d="M294.425 102.361L289.518 110.298L300.267 116.944L305.175 109.006L294.425 102.361Z" fill="#2A507A"/>
<path opacity="0.25" d="M305.146 108.993C302.618 105.364 298.73 102.966 294.388 102.383L305.146 108.993Z" fill="#2A507A"/>
<path opacity="0.25" d="M263.8 95.3188H244.034V101.799H263.8V95.3188Z" fill="#2A507A"/>
<path opacity="0.25" d="M267.364 82.2281V95.3189H240.47V82.2281C249.089 78.923 258.68 78.923 267.364 82.2281Z" fill="#2A507A"/>
<path opacity="0.25" d="M241.96 95.3188V82.228" stroke="#2A507A" stroke-width="0.701717" stroke-miterlimit="10"/>
<path opacity="0.25" d="M244.099 95.3188V82.228" stroke="#2A507A" stroke-width="0.701717" stroke-miterlimit="10"/>
<path opacity="0.25" d="M246.302 95.3188V82.228" stroke="#2A507A" stroke-width="0.701717" stroke-miterlimit="10"/>
<path opacity="0.25" d="M248.441 95.3188V82.228" stroke="#2A507A" stroke-width="0.701717" stroke-miterlimit="10"/>
<path opacity="0.25" d="M250.579 95.3188V82.228" stroke="#2A507A" stroke-width="0.701717" stroke-miterlimit="10"/>
<path opacity="0.25" d="M252.718 95.3188V82.228" stroke="#2A507A" stroke-width="0.701717" stroke-miterlimit="10"/>
<path opacity="0.25" d="M254.857 95.3188V82.228" stroke="#2A507A" stroke-width="0.701717" stroke-miterlimit="10"/>
<path opacity="0.25" d="M256.995 95.3188V82.228" stroke="#2A507A" stroke-width="0.701717" stroke-miterlimit="10"/>
<path opacity="0.25" d="M259.134 95.3188V82.228" stroke="#2A507A" stroke-width="0.701717" stroke-miterlimit="10"/>
<path opacity="0.25" d="M261.337 95.3188V82.228" stroke="#2A507A" stroke-width="0.701717" stroke-miterlimit="10"/>
<path opacity="0.25" d="M263.476 95.3188V82.228" stroke="#2A507A" stroke-width="0.701717" stroke-miterlimit="10"/>
<path opacity="0.25" d="M265.614 95.3188V82.228" stroke="#2A507A" stroke-width="0.701717" stroke-miterlimit="10"/>
<path opacity="0.25" d="M267.364 82.2281H240.47C249.089 78.923 258.68 78.923 267.364 82.2281Z" fill="#2A507A"/>
<path opacity="0.25" d="M308.948 232.408C339.368 201.988 339.368 152.667 308.948 122.247C278.528 91.8268 229.207 91.8268 198.787 122.247C168.367 152.667 168.367 201.988 198.787 232.408C229.207 262.828 278.528 262.828 308.948 232.408Z" fill="#2A507A"/>
<path opacity="0.7" d="M303.495 226.955C330.904 199.547 330.904 155.109 303.495 127.7C276.087 100.292 231.649 100.292 204.24 127.7C176.832 155.109 176.832 199.547 204.24 226.955C231.649 254.364 276.087 254.364 303.495 226.955Z" fill="#2A507A"/>
<path opacity="0.25" d="M301.754 225.214C328.201 198.767 328.201 155.888 301.754 129.441C275.307 102.995 232.428 102.995 205.981 129.441C179.535 155.888 179.535 198.767 205.981 225.214C232.428 251.661 275.307 251.661 301.754 225.214Z" fill="#2A507A"/>
<path opacity="0.25" d="M317.394 177.298H310.719" stroke="#2A507A" stroke-width="3.50852" stroke-miterlimit="10" stroke-linecap="round"/>
<path opacity="0.25" d="M253.884 240.808V234.198" stroke="#2A507A" stroke-width="3.50852" stroke-miterlimit="10" stroke-linecap="round"/>
<path opacity="0.25" d="M190.44 177.298H197.05" stroke="#2A507A" stroke-width="3.50852" stroke-miterlimit="10" stroke-linecap="round"/>
<path opacity="0.25" d="M253.884 113.854V120.464" stroke="#2A507A" stroke-width="3.50852" stroke-miterlimit="10" stroke-linecap="round"/>
<path opacity="0.25" d="M308.905 209.053L303.137 205.748" stroke="#2A507A" stroke-width="2.10509" stroke-miterlimit="10" stroke-linecap="round"/>
<path opacity="0.25" d="M222.13 232.318L225.5 226.551" stroke="#2A507A" stroke-width="2.10509" stroke-miterlimit="10" stroke-linecap="round"/>
<path opacity="0.25" d="M198.929 145.543L204.697 148.913" stroke="#2A507A" stroke-width="2.10509" stroke-miterlimit="10" stroke-linecap="round"/>
<path opacity="0.25" d="M285.639 122.343L282.334 128.11" stroke="#2A507A" stroke-width="2.10509" stroke-miterlimit="10" stroke-linecap="round"/>
<path opacity="0.25" d="M285.639 232.318L282.334 226.551" stroke="#2A507A" stroke-width="2.10509" stroke-miterlimit="10" stroke-linecap="round"/>
<path opacity="0.25" d="M198.929 209.053L204.697 205.748" stroke="#2A507A" stroke-width="2.10509" stroke-miterlimit="10" stroke-linecap="round"/>
<path opacity="0.25" d="M222.194 122.343L225.5 128.11" stroke="#2A507A" stroke-width="2.10509" stroke-miterlimit="10" stroke-linecap="round"/>
<path opacity="0.25" d="M308.905 145.608L303.137 148.913" stroke="#2A507A" stroke-width="2.10509" stroke-miterlimit="10" stroke-linecap="round"/>
<path opacity="0.25" d="M270.41 202.119C269.762 202.119 269.114 201.795 268.725 201.276L251.551 177.687L268.466 131.869C268.855 130.767 270.086 130.249 271.188 130.638C272.289 131.027 272.808 132.258 272.419 133.36L256.282 177.039L272.16 198.814C272.873 199.721 272.613 201.082 271.706 201.73C271.317 201.989 270.864 202.119 270.41 202.119Z" fill="#2A507A"/>
<path opacity="0.25" d="M259.199 177.298C259.199 180.214 256.866 182.547 253.949 182.547C251.033 182.547 248.7 180.214 248.7 177.298C248.7 174.382 251.033 172.049 253.949 172.049C256.801 172.049 259.199 174.447 259.199 177.298Z" fill="#2A507A"/>
</g>
<path d="M210.065 98.986L199.316 105.632L204.224 113.57L214.973 106.924L210.065 98.986Z" fill="#C13D4C"/>
<path d="M199.318 105.623C201.845 101.994 205.734 99.5964 210.076 99.0132L199.318 105.623Z" fill="#C13D4C"/>
<path d="M291.055 98.9814L286.147 106.919L296.896 113.565L301.804 105.627L291.055 98.9814Z" fill="#C13D4C"/>
<path d="M301.776 105.623C299.249 101.994 295.36 99.5962 291.018 99.0129L301.776 105.623Z" fill="#C13D4C"/>
<path d="M260.43 91.949H240.664V98.4296H260.43V91.949Z" fill="#C13D4C"/>
<path d="M263.994 78.8582V91.949H237.1V78.8582C245.719 75.5531 255.31 75.5531 263.994 78.8582Z" fill="#F79D61"/>
<path d="M238.59 91.9492V78.8584" stroke="#101747" stroke-width="0.701717" stroke-miterlimit="10"/>
<path d="M240.729 91.9492V78.8584" stroke="#101747" stroke-width="0.701717" stroke-miterlimit="10"/>
<path d="M242.932 91.9492V78.8584" stroke="#101747" stroke-width="0.701717" stroke-miterlimit="10"/>
<path d="M245.071 91.9492V78.8584" stroke="#101747" stroke-width="0.701717" stroke-miterlimit="10"/>
<path d="M247.209 91.9492V78.8584" stroke="#101747" stroke-width="0.701717" stroke-miterlimit="10"/>
<path d="M249.348 91.9492V78.8584" stroke="#101747" stroke-width="0.701717" stroke-miterlimit="10"/>
<path d="M251.487 91.9492V78.8584" stroke="#101747" stroke-width="0.701717" stroke-miterlimit="10"/>
<path d="M253.625 91.9492V78.8584" stroke="#101747" stroke-width="0.701717" stroke-miterlimit="10"/>
<path d="M255.764 91.9492V78.8584" stroke="#101747" stroke-width="0.701717" stroke-miterlimit="10"/>
<path d="M257.967 91.9492V78.8584" stroke="#101747" stroke-width="0.701717" stroke-miterlimit="10"/>
<path d="M260.106 91.9492V78.8584" stroke="#101747" stroke-width="0.701717" stroke-miterlimit="10"/>
<path d="M262.244 91.9492V78.8584" stroke="#101747" stroke-width="0.701717" stroke-miterlimit="10"/>
<path d="M263.994 78.8582H237.1C245.719 75.5531 255.31 75.5531 263.994 78.8582Z" fill="#C13D4C"/>
<path d="M305.58 229.034C336.001 198.613 336.001 149.292 305.58 118.872C275.16 88.4521 225.839 88.452 195.419 118.872C164.999 149.292 164.999 198.613 195.419 229.034C225.839 259.454 275.16 259.454 305.58 229.034Z" fill="#F79D61"/>
<path opacity="0.7" d="M300.127 223.58C327.536 196.172 327.536 151.734 300.127 124.325C272.719 96.9167 228.281 96.9168 200.872 124.325C173.464 151.734 173.464 196.172 200.872 223.58C228.281 250.989 272.719 250.989 300.127 223.58Z" fill="#FFE6D6"/>
<path d="M250.515 241.65C287.916 241.65 318.237 211.33 318.237 173.928C318.237 136.526 287.916 106.206 250.515 106.206C213.113 106.206 182.793 136.526 182.793 173.928C182.793 211.33 213.113 241.65 250.515 241.65Z" fill="white"/>
<path d="M314.024 173.928H307.349" stroke="#192469" stroke-width="3.50852" stroke-miterlimit="10" stroke-linecap="round"/>
<path d="M250.515 237.438V230.763" stroke="#192469" stroke-width="3.50852" stroke-miterlimit="10" stroke-linecap="round"/>
<path d="M187.005 173.928H193.68" stroke="#192469" stroke-width="3.50852" stroke-miterlimit="10" stroke-linecap="round"/>
<path d="M250.515 110.419V117.094" stroke="#192469" stroke-width="3.50852" stroke-miterlimit="10" stroke-linecap="round"/>
<g opacity="0.3">
<g opacity="0.3">
<g opacity="0.3">
<path opacity="0.3" d="M305.535 205.683L299.767 202.378" stroke="#101747" stroke-width="2.10509" stroke-miterlimit="10" stroke-linecap="round"/>
</g>
<g opacity="0.3">
<path opacity="0.3" d="M218.76 228.949L222.13 223.181" stroke="#101747" stroke-width="2.10509" stroke-miterlimit="10" stroke-linecap="round"/>
</g>
<g opacity="0.3">
<path opacity="0.3" d="M195.559 142.174L201.327 145.544" stroke="#101747" stroke-width="2.10509" stroke-miterlimit="10" stroke-linecap="round"/>
</g>
<g opacity="0.3">
<path opacity="0.3" d="M282.269 118.973L278.964 124.741" stroke="#101747" stroke-width="2.10509" stroke-miterlimit="10" stroke-linecap="round"/>
</g>
<g opacity="0.3">
<path opacity="0.3" d="M282.269 228.949L278.964 223.181" stroke="#101747" stroke-width="2.10509" stroke-miterlimit="10" stroke-linecap="round"/>
</g>
<g opacity="0.3">
<path opacity="0.3" d="M195.559 205.683L201.327 202.378" stroke="#101747" stroke-width="2.10509" stroke-miterlimit="10" stroke-linecap="round"/>
</g>
<g opacity="0.3">
<path opacity="0.3" d="M218.825 118.973L222.13 124.741" stroke="#101747" stroke-width="2.10509" stroke-miterlimit="10" stroke-linecap="round"/>
</g>
<g opacity="0.3">
<path opacity="0.3" d="M305.535 142.238L299.767 145.543" stroke="#101747" stroke-width="2.10509" stroke-miterlimit="10" stroke-linecap="round"/>
</g>
</g>
</g>
<path d="M267.04 198.749C266.392 198.749 265.744 198.425 265.355 197.906L248.182 174.252L265.096 128.435C265.485 127.333 266.716 126.814 267.818 127.203C268.919 127.592 269.438 128.823 269.049 129.925L252.912 173.604L268.79 195.379C269.503 196.286 269.243 197.647 268.336 198.295C267.947 198.619 267.494 198.749 267.04 198.749Z" fill="#F79D61"/>
<path d="M250.515 179.178C253.414 179.178 255.764 176.828 255.764 173.928C255.764 171.029 253.414 168.679 250.515 168.679C247.615 168.679 245.265 171.029 245.265 173.928C245.265 176.828 247.615 179.178 250.515 179.178Z" fill="#192469"/>
<path d="M313.376 253.445L315.32 256.685L317.718 256.232L316.033 252.408" fill="#FDAEB3"/>
<path d="M317.718 255.972C317.718 255.972 317.135 256.426 316.033 256.426C316.033 256.426 315.45 256.232 315.256 256.296C315.061 256.361 314.737 256.88 314.608 257.009C314.478 257.139 313.765 257.657 313.311 257.852C312.987 257.981 311.691 258.435 311.432 258.953C311.302 259.148 311.497 259.407 311.756 259.407C312.145 259.407 313.182 259.407 313.959 259.342C314.413 259.342 314.867 259.278 315.32 259.148C316.746 258.694 318.431 258.111 318.561 258.046C318.625 258.046 318.431 256.556 317.718 255.972Z" fill="#004BA8"/>
<path d="M296.332 221.496C287.065 215.534 288.167 224.412 288.167 224.412L314.348 255.454C314.348 255.454 316.033 255.389 316.876 253.834C316.94 253.834 306.831 228.301 296.332 221.496Z" fill="#003977"/>
<path d="M299.378 194.926C299.378 194.926 300.48 197.194 300.221 200.11C299.961 202.767 299.378 204.97 299.119 207.368C298.924 209.766 296.138 224.088 296.138 224.088C296.138 224.088 288.62 226.356 288.037 224.153C286.935 219.617 285.38 195.12 285.38 195.12C285.38 195.12 292.638 196.546 299.378 194.926Z" fill="#003977"/>
<path d="M302.23 194.213C302.23 194.213 304.433 200.239 296.98 207.109C295.036 208.923 293.286 209.571 290.889 211.775C289.139 213.395 278.251 224.153 278.251 224.153C278.251 224.153 271.576 218.839 272.419 216.7C274.104 212.358 286.158 190.648 286.158 190.648C286.158 190.648 295.749 191.685 302.23 194.213Z" fill="#004BA8"/>
<path d="M263.411 253.445L262.504 257.204L264.966 257.269L266.975 253.769" fill="#FDAEB3"/>
<path d="M280.325 219.228C279.677 206.72 272.484 216.7 272.484 216.7L262.957 254.806C262.957 254.806 264.059 255.972 265.938 255.972C265.938 255.972 280.973 231.735 280.325 219.228Z" fill="#004BA8"/>
<path d="M304.757 152.931C301.646 154.422 296.462 153.126 296.462 153.126L298.212 147.617L298.989 145.284C298.989 145.284 299.508 144.83 300.285 144.182C302.683 142.238 307.479 138.674 306.248 142.173C304.627 146.71 304.757 152.931 304.757 152.931Z" fill="#FDAEB3"/>
<path d="M301.906 144.895C301.906 144.895 300.545 146.71 298.212 147.617L298.989 145.284C298.989 145.284 299.508 144.83 300.285 144.182L300.545 144.117L301.906 144.895Z" fill="#E58099"/>
<path d="M295.295 134.527C295.295 134.527 293.286 144.572 294.907 146.257C296.527 147.941 303.915 144.831 303.915 144.831C303.915 144.831 309.747 139.387 309.293 134.462C308.969 130.314 300.221 126.88 296.527 131.157C295.814 131.999 295.555 133.166 295.295 134.527Z" fill="#FDAEB3"/>
<path d="M294.518 127.787C294.518 127.787 292.898 132.971 296.786 134.85C299.378 136.082 302.294 136.341 302.294 137.637C302.294 138.933 302.813 137.961 303.396 137.767C304.627 137.248 305.211 138.933 304.433 140.489C303.85 141.655 303.915 143.534 305.729 143.988C305.729 143.988 307.738 141.331 308.775 139.516C309.617 138.091 311.691 132.971 308.321 131.869C308.127 130.703 307.025 129.601 305.859 129.083C302.618 127.592 299.573 128.046 297.24 128.111C296.138 128.175 294.971 125.907 294.518 127.787Z" fill="#1D2468"/>
<path d="M288.102 161.809C286.871 161.291 285.121 160.513 283.306 159.671C281.881 158.958 280.39 158.245 279.029 157.597C276.566 156.366 274.622 155.394 274.622 155.394C274.622 155.394 276.242 150.468 277.279 150.274C277.863 150.144 282.464 150.987 286.093 151.7C286.871 151.829 287.583 152.024 288.232 152.153C289.657 152.413 290.565 152.607 290.565 152.607L288.102 161.809Z" fill="#FDAEB3"/>
<path d="M274.622 155.394C272.289 154.227 271.317 152.737 268.855 147.941C267.947 146.192 265.938 142.174 265.161 140.553L266.003 138.22C266.457 138.48 273.067 144.895 273.909 145.868C275.27 147.488 277.279 150.274 277.279 150.274C278.251 151.959 276.891 156.56 274.622 155.394Z" fill="#FDAEB3"/>
<path d="M296.527 153.644C292.768 152.413 284.214 150.857 284.214 150.857C284.214 150.857 281.881 156.107 281.816 159.93C284.538 161.68 291.472 163.754 291.472 163.754" fill="#F79D61"/>
<path d="M306.572 176.715C306.442 176.91 306.377 177.169 306.248 177.363C305.729 178.465 305.146 179.567 304.692 180.668C300.869 189.482 302.23 194.213 302.23 194.213C295.943 195.055 285.51 191.88 285.51 191.88C285.51 191.88 285.51 190.972 285.51 190.26C285.445 187.149 285.315 178.011 286.158 170.364C286.223 169.716 286.287 169.068 286.417 168.485C286.806 165.374 287.454 162.717 288.296 160.967C291.861 153.774 296.462 153.126 296.462 153.126C300.804 153.644 304.757 152.931 304.757 152.931C312.274 157.209 310.266 168.938 306.572 176.715Z" fill="#FFCFAA"/>
<path d="M274.298 167.189C274.298 167.189 273.974 162.004 274.882 161.421C275.4 161.097 280.001 160.19 283.63 159.477C284.408 159.347 285.121 159.218 285.769 159.088C287.13 158.829 288.102 158.634 288.102 158.634L289.204 168.161C284.991 168.226 274.298 167.189 274.298 167.189Z" fill="#FDAEB3"/>
<path d="M274.882 161.421C274.882 161.421 272.484 159.347 270.604 158.375C269.438 157.727 264.966 156.042 261.856 154.616C259.976 153.774 258.615 152.931 258.615 152.931L257.643 154.422C257.643 154.422 262.115 158.829 266.198 162.393C270.28 165.957 271.706 166.994 274.298 167.253C276.891 167.383 276.437 162.652 274.882 161.421Z" fill="#FDAEB3"/>
<path d="M299.832 168.225C295.101 170.882 287.778 170.494 286.158 170.364C286.223 169.716 286.287 169.068 286.417 168.485L299.832 168.225Z" fill="#FCAE24"/>
<path d="M301.063 167.837C295.231 170.234 285.899 168.938 285.899 168.938C284.602 164.402 284.862 159.153 284.862 159.153C287.259 158.31 294.647 157.144 294.647 157.144C294.647 157.144 302.1 156.236 303.202 161.226C304.303 166.476 301.063 167.837 301.063 167.837Z" fill="#FFCFAA"/>
<path d="M258.162 154.876C258.162 154.876 257.514 154.228 256.801 154.228C256.088 154.228 255.181 153.644 255.116 153.256C255.051 152.867 256.153 151.117 256.347 151.052C256.542 150.923 257.514 151.7 257.838 151.765C258.162 151.895 258.097 152.543 259.134 153.191" fill="#FDAEB3"/>
<path d="M258.226 152.543C258.226 152.543 258.291 152.089 257.902 151.376C257.838 151.182 257.578 150.534 257.449 150.534C257.319 150.534 257.19 150.663 257.125 150.858C257.06 151.052 257.125 151.7 257.125 151.7" fill="#FDAEB3"/>
<path d="M296.527 153.126L297.499 151.83C297.499 151.83 301.322 152.672 304.822 151.895V152.867L301.776 153.515C301.711 153.58 299.184 154.098 296.527 153.126Z" fill="#FCAE24"/>
<path d="M297.499 151.83L297.758 154.746C297.758 154.746 302.683 154.551 305.405 153.255L304.822 151.57C304.757 151.57 302.1 152.348 297.499 151.83Z" fill="#F79D61"/>
<path d="M265.161 256.945C265.161 256.945 264.124 257.333 263.087 257.139C263.087 257.139 262.828 256.621 262.439 256.621C262.05 256.621 261.532 257.204 261.272 257.333C261.013 257.463 255.764 259.083 257.514 259.407C257.578 259.472 263.735 259.472 265.096 259.537C265.225 259.537 265.42 259.407 265.42 259.278C265.55 258.759 265.744 257.722 265.161 256.945Z" fill="#004BA8"/>
<path d="M295.231 156.69C295.231 156.69 297.304 155.783 299.637 156.82C302.294 158.051 304.109 160.384 303.202 164.143" stroke="white" stroke-width="0.160005" stroke-miterlimit="10" stroke-linecap="round"/>
<path d="M302.489 154.487C302.489 154.487 302.878 156.56 301.258 157.792" stroke="white" stroke-width="0.160005" stroke-miterlimit="10" stroke-linecap="round"/>
<path d="M261.985 136.86C261.985 136.86 261.92 134.462 262.504 133.879C263.087 133.231 264.124 133.166 264.253 134.008C264.383 134.851 262.244 136.212 262.244 136.212L261.985 136.86Z" fill="#FDAEB3"/>
<path d="M99.0635 221.042C98.221 227.522 94.6567 252.602 94.6567 252.602H91.9997C91.9997 252.602 89.7315 231.994 90.5091 227.069C91.2868 222.144 91.8053 220.588 91.546 218.45C91.546 218.19 90.3795 213.2 89.4723 209.118C89.3426 208.534 89.213 207.951 89.0834 207.433C88.565 205.294 88.2409 203.739 88.2409 203.739H99.1283C99.1283 203.739 99.3227 219.292 99.0635 221.042Z" fill="#FDAEB3"/>
<path d="M98.2858 207.109C95.24 208.405 89.7315 209.118 89.4722 209.183C89.3426 208.599 89.213 208.016 89.0834 207.498V207.368L91.7404 206.266C91.7404 206.266 101.461 205.748 98.2858 207.109Z" fill="#E58099"/>
<path d="M94.7215 252.602C94.7215 252.602 94.6567 253.251 94.9159 253.769C95.1751 254.287 96.0176 256.426 97.7674 257.852L97.9618 258.435L96.4064 258.565C96.4064 258.565 94.1382 257.204 94.0086 256.944C93.879 256.685 93.2958 255.584 93.1013 255.195C92.9069 254.871 92.1941 254.223 92.1941 253.899C92.1941 253.575 91.87 252.538 91.87 252.538C91.87 252.538 92.7773 251.825 92.9069 251.76C93.0365 251.695 93.6846 251.63 93.6846 251.63L94.7215 252.602Z" fill="#FDAEB3"/>
<path d="M91.9997 252.019C91.9997 252.019 90.8331 253.574 91.0276 255.195C91.0924 256.167 91.546 258.111 91.546 259.472H91.9348L92.5181 256.296C92.5181 256.296 95.1751 259.213 95.7584 259.342C96.3416 259.472 98.7395 259.472 98.8691 259.472C98.9987 259.472 100.878 259.018 97.7674 257.852C97.7674 257.852 97.7674 258.5 96.5361 257.852C95.3047 257.204 94.1382 255.908 93.3606 254.871C92.9069 254.287 92.1941 253.121 91.9997 252.019Z" fill="#423D73"/>
<path d="M90.1203 202.961C90.1203 202.961 90.1203 204.063 89.9907 205.748C89.9907 206.266 89.9259 206.785 89.8611 207.368C89.6018 210.997 88.889 216.311 87.3336 221.366C85.3895 227.652 76.9647 252.019 76.9647 252.019L74.3077 251.63C74.3077 251.63 76.2518 231.346 77.6776 226.615C79.1033 221.884 81.3715 220.005 81.4363 217.802C81.5011 216.57 80.9179 212.164 80.3994 208.599C80.2698 207.368 80.0754 206.331 79.9458 205.424C79.8162 204.322 79.6866 203.674 79.6866 203.674L90.1203 202.961Z" fill="#FDAEB3"/>
<path d="M77.0943 252.084C77.0943 252.084 76.8999 252.732 77.1591 253.251C77.3536 253.769 77.872 256.037 79.4274 257.722L79.557 258.305L78.0016 258.241C78.0016 258.241 75.9926 256.62 75.863 256.361C75.7334 256.102 75.3446 254.871 75.215 254.547C75.0854 254.158 74.4373 253.445 74.5021 253.121C74.5669 252.797 74.3725 251.76 74.3725 251.76C74.3725 251.76 75.3446 251.177 75.539 251.112C75.6686 251.112 76.3815 251.112 76.3815 251.112L77.0943 252.084Z" fill="#FDAEB3"/>
<path d="M74.5021 251.112C74.5021 251.112 73.1412 252.538 73.0764 254.093C73.0116 255.065 73.206 257.009 73.0116 258.435L73.4004 258.5L74.4373 255.389C74.4373 255.389 76.6407 258.629 77.224 258.824C77.8072 259.018 80.205 259.407 80.3346 259.407C80.4642 259.407 82.4084 259.277 79.4922 257.657C79.4922 257.657 79.4274 258.241 78.2609 257.463C77.0943 256.685 76.1871 255.26 75.539 254.093C75.0854 253.575 74.5021 252.278 74.5021 251.112Z" fill="#423D73"/>
<path d="M90.5739 206.979C90.3795 207.109 90.1851 207.303 89.9259 207.433C87.0744 209.117 82.0844 208.858 80.5938 208.729C80.4642 207.497 80.2698 206.46 80.1402 205.553C83.3157 205.424 88.0465 205.294 89.9907 205.812C90.9628 206.007 91.2868 206.396 90.5739 206.979Z" fill="#E58099"/>
<path d="M111.312 146.839C111.312 146.839 111.377 150.145 110.34 150.987C109.562 151.57 102.498 151.376 99.1931 151.246C98.1562 151.181 97.5081 151.181 97.5081 151.181L97.897 147.941L98.2858 144.895L111.312 146.839Z" fill="#FDAEB3"/>
<path d="M109.821 147.228C109.821 147.228 112.219 145.932 114.358 145.543C116.496 145.154 126.087 142.757 126.087 142.757L126.865 144.636C126.865 144.636 117.987 150.274 109.303 151.246L109.821 147.228Z" fill="#FDAEB3"/>
<path d="M126.152 142.756C126.152 142.756 126.671 142.303 126.93 141.849C127.124 141.396 127.578 140.748 128.226 140.488C128.874 140.229 129.393 139.905 129.587 140.035C129.781 140.099 129.717 140.553 129.328 140.683C128.939 140.812 128.42 141.266 128.485 141.396C128.485 141.525 130.041 140.683 130.235 140.618C130.429 140.553 132.114 139.905 132.374 139.905C132.633 139.97 132.438 140.488 131.531 140.812C130.883 141.072 130.494 141.396 130.559 141.59C130.624 141.784 131.207 142.303 130.689 143.275C130.105 144.182 129.522 144.636 128.809 144.701C128.096 144.765 127.319 144.636 126.8 144.83" fill="#FDAEB3"/>
<path d="M101.397 145.155C101.397 145.155 101.397 149.626 100.813 151.506C100.813 151.506 99.1283 151.635 96.7953 151.441C95.9528 151.376 95.0455 151.311 94.0735 151.117C93.6846 151.052 93.231 150.987 92.8421 150.857V143.405C92.8421 143.47 97.7674 143.923 101.397 145.155Z" fill="#F79D61"/>
<path d="M96.7953 151.44C95.9528 151.376 95.0455 151.311 94.0734 151.116L93.879 150.792L94.3975 148.524C94.4623 148.524 95.6936 150.144 96.7953 151.44Z" fill="#FCAE24"/>
<path d="M96.8601 175.159C96.8601 175.159 90.9628 179.048 79.2977 175.483C79.2977 175.483 81.1771 168.808 80.529 164.402C80.3346 163.17 79.6866 161.356 78.8441 159.282C78.3256 158.051 77.6776 156.69 77.0943 155.394C75.9926 153.125 74.8909 150.987 74.1133 149.431C73.4004 148.135 74.0485 146.45 75.4094 145.932C78.5849 144.636 84.6118 142.886 92.9069 143.404C93.4254 144.571 94.3327 148.459 94.7863 149.237C97.3137 152.931 96.9897 153.32 96.4712 156.042C95.6936 159.93 94.9159 169.327 96.8601 175.159Z" fill="#FFCFAA"/>
<path d="M79.6866 152.931C79.6866 152.931 79.3625 156.625 78.8441 159.282C78.3256 158.051 77.6776 156.69 77.0943 155.394L79.6866 152.931Z" fill="#FCAE24"/>
<path d="M80.0106 174.641C80.0106 174.641 77.9368 176.391 77.2239 182.418C76.5111 188.445 80.0106 206.979 80.0106 206.979C80.0106 206.979 85.3894 209.572 99.3875 206.979C99.3875 206.979 99.6467 184.362 96.536 173.993L80.0106 174.641Z" fill="#003977"/>
<path d="M81.7603 142.108C81.7603 142.108 80.4642 144.377 79.6217 144.636C79.6217 144.636 83.7045 146.256 86.2967 146.062C88.889 145.867 90.2499 143.405 90.2499 143.405C90.2499 143.405 88.1113 143.21 87.8521 140.748" fill="#FDAEB3"/>
<path d="M88.1113 137.248C88.1113 137.248 88.0465 137.831 87.9817 138.415C87.9169 138.933 87.8521 139.387 87.8521 139.516C87.7225 140.748 87.7873 141.72 87.5929 143.34L81.6955 142.044C81.6955 142.044 82.7324 140.942 82.0196 135.304L87.9169 137.183L88.1113 137.248Z" fill="#FDAEB3"/>
<path d="M88.1113 137.248C88.1113 137.248 88.0465 137.831 87.9817 138.415C86.6856 138.479 85.2599 138.155 85.2599 138.155L87.9817 137.183L88.1113 137.248Z" fill="#E58099"/>
<path d="M83.2509 122.408C83.2509 122.408 85.0654 121.111 86.4912 122.213C87.9817 123.315 88.1761 125.648 87.3985 127.268C86.6856 128.888 82.9917 123.963 82.9917 123.963" fill="#332F62"/>
<path d="M91.1572 135.952C91.1572 136.471 90.898 136.924 90.4443 137.054C89.0834 137.572 86.1023 138.479 82.9917 138.026C79.1033 137.443 75.3446 126.814 83.1861 123.25C84.6766 122.537 90.6387 127.268 91.1572 135.952Z" fill="#FDAEB3"/>
<path d="M74.1781 130.055C74.1781 130.055 72.8171 130.379 72.4931 131.156C72.4931 131.156 74.1133 130.444 74.8261 131.027" fill="#332F62"/>
<path d="M75.4094 130.379C75.4094 130.379 72.4931 131.092 70.6786 129.083C68.2159 126.296 72.9468 120.528 76.7703 125.907" fill="#332F62"/>
<path d="M74.5669 131.351C74.5669 131.351 74.0485 131.156 73.9189 130.573C73.7244 129.731 73.53 127.138 75.863 124.805C75.863 124.805 76.4463 124.287 76.8999 124.611" fill="#FAC12A"/>
<path d="M82.3436 138.868C82.3436 138.868 75.9278 137.054 74.4373 130.897C72.882 124.74 82.214 118.649 86.1023 124.546C86.1023 124.546 83.3157 125.129 82.6028 127.203C81.8252 129.277 82.3436 132.258 81.5011 131.74C80.6587 131.221 79.4921 131.869 79.6866 133.036C79.8162 134.008 81.3067 135.174 82.0844 136.47C82.4732 137.248 82.538 138.35 82.3436 138.868Z" fill="#332F62"/>
<path d="M86.1023 123.445C86.1023 123.445 89.0834 126.49 82.7973 129.536C83.1213 128.37 81.4363 125.389 81.4363 125.389" fill="#332F62"/>
<path d="M58.6247 171.854L84.8062 165.568C85.0654 165.503 85.3247 165.633 85.3895 165.892L89.6667 183.714C89.7315 183.973 89.6018 184.232 89.3426 184.297L63.1611 190.583C62.9019 190.648 62.6427 190.518 62.5778 190.259L58.3007 172.373C58.2359 172.178 58.3655 171.919 58.6247 171.854Z" fill="#423D73"/>
<path d="M63.7463 189.351L88.0734 183.525L84.0586 166.761L59.7315 172.587L63.7463 189.351Z" fill="white"/>
<path d="M86.0809 172.374L84.8211 172.678L86.3738 179.103L87.6336 178.799L86.0809 172.374Z" fill="#9E9DBA"/>
<path d="M74.0485 168.938C74.0485 168.938 70.7434 168.42 70.1601 167.253C69.7065 166.346 71.197 159.477 71.9099 156.236C72.1691 155.199 72.2987 154.551 72.2987 154.551L75.4094 155.523L78.3256 156.431L74.0485 168.938Z" fill="#FDAEB3"/>
<path d="M73.9836 167.383C73.9836 167.383 74.8261 169.975 74.8261 172.178C74.8261 174.382 75.539 184.232 75.539 184.232L73.53 184.621C73.53 184.621 69.5769 174.9 70.1601 166.151L73.9836 167.383Z" fill="#FDAEB3"/>
<path d="M73.53 184.621C73.53 184.621 73.7244 186.695 74.0485 187.472C74.9557 189.417 77.4184 187.537 77.6776 187.019C77.6776 187.019 76.9647 187.084 76.4463 185.723C76.2519 185.269 75.7982 184.945 75.6686 184.815C75.539 184.686 75.4742 184.232 75.4742 184.232" fill="#FDAEB3"/>
<path d="M73.9189 147.423C73.9189 147.423 72.1691 153.32 71.6507 157.079C71.6507 157.079 74.3077 158.31 77.9368 158.375C77.9368 158.375 79.2977 155.07 79.8162 152.024" fill="#F79D61"/>
<path d="M170.091 235.494C170.091 235.494 180.395 234.911 180.46 232.837C180.46 231.217 174.173 232.578 174.173 232.578C174.173 232.578 181.108 230.569 184.283 228.948C184.996 228.56 185.709 228.171 186.162 227.587C186.681 226.939 186.875 226.097 186.486 225.384C185.968 224.477 184.672 224.412 183.57 224.542C179.293 225.06 176.312 227.328 172.488 229.272C175.275 227.847 177.802 226.032 180.136 223.958C182.274 222.014 184.802 220.264 186.227 217.672C187.135 216.052 187.459 213.654 185.903 212.358C184.348 211.062 182.144 211.645 180.46 212.293C175.923 213.913 171.905 217.089 169.313 221.107C169.961 219.228 170.544 217.283 170.868 215.274C170.998 214.497 171.063 213.525 170.415 213.006C169.572 212.423 168.406 213.201 167.758 214.043C166.137 215.987 164.906 218.255 164.193 220.718C164.712 215.274 165.23 209.766 164.064 204.452C163.804 203.221 163.416 201.989 162.638 201.017C161.86 200.045 160.694 199.332 159.398 199.462C158.231 199.591 157.259 200.434 156.481 201.276C153.954 204.128 152.463 207.887 152.399 211.645C152.334 215.469 153.63 219.292 156.028 222.209C154.796 220.912 153.371 219.746 151.815 218.774C151.491 218.579 150.973 218.385 150.714 218.709C150.584 218.904 150.584 219.098 150.584 219.292C150.843 221.885 152.528 224.023 154.213 226.032C150.843 222.144 145.594 219.94 140.41 220.329C139.762 220.394 139.113 220.524 138.789 221.042C138.595 221.366 138.595 221.755 138.66 222.079C138.919 224.671 141.187 226.551 143.455 227.847C145.335 228.948 147.344 229.856 149.288 230.828C148.121 230.633 147.02 230.633 145.853 230.698C145.594 230.698 145.27 230.763 145.14 230.957C144.816 231.346 145.27 231.865 145.659 232.189C148.51 234.262 152.139 235.299 155.639 234.975" fill="#F79E61"/>
<path opacity="0.45" d="M181.82 216.182C181.95 216.117 182.08 216.311 181.95 216.376C178.645 218.839 175.599 221.625 172.942 224.801C170.22 227.976 168.082 231.411 165.943 234.911C165.878 235.04 165.684 234.911 165.749 234.781C169.248 227.458 175.275 220.913 181.82 216.182ZM166.98 218.839C165.101 223.699 163.934 229.791 164.323 234.975C164.323 235.105 164.517 235.105 164.517 234.975C164.582 229.726 165.36 223.894 167.239 218.968C167.304 218.774 167.045 218.709 166.98 218.839ZM160.435 208.146C159.527 217.024 160.24 226.486 162.638 235.105C162.703 235.235 162.897 235.17 162.832 235.04C161.925 230.504 161.083 226.032 160.759 221.431C160.37 217.024 160.435 212.617 160.564 208.146C160.564 208.081 160.435 208.081 160.435 208.146ZM152.399 221.431C155.056 225.254 158.037 232.254 161.536 235.299C161.666 235.429 161.86 235.235 161.731 235.105C158.555 231.605 155.445 225.125 152.593 221.301C152.528 221.172 152.269 221.301 152.399 221.431ZM181.108 227.328C175.794 229.726 170.35 232.513 165.878 236.271C165.749 236.401 165.878 236.595 166.008 236.531C170.933 233.226 175.729 230.05 181.172 227.588C181.367 227.458 181.302 227.263 181.108 227.328ZM148.251 226.68C152.075 229.013 156.222 233.874 160.435 235.494C160.564 235.559 160.694 235.364 160.564 235.299C156.481 233.29 152.334 228.754 148.381 226.486C148.186 226.356 148.121 226.551 148.251 226.68Z" fill="url(#paint0_linear_81_1252)"/>
<path d="M171.711 259.472H157.065L153.111 234.846H175.664L171.711 259.472Z" fill="#757575"/>
<path d="M171.646 259.472H167.239L171.192 234.846H175.664L171.646 259.472Z" fill="#A6AEBA"/>
<path d="M195.689 45.8075H164.193C164.193 45.8075 164.193 45.3539 164.517 44.7058C166.332 42.0488 167.239 40.7527 168.924 39.0677C172.164 38.0957 173.849 37.8364 178.775 37.0588L184.348 36.6699C184.348 36.6699 191.412 38.2901 193.745 39.975C194.976 41.4007 195.754 43.2801 195.689 45.8075Z" fill="#FFE6D6"/>
<path d="M185.255 45.8076H164.193C164.193 45.8076 164.193 45.3539 164.517 44.7059C165.295 44.4467 166.267 44.5115 167.045 44.7059C167.822 44.9003 168.341 45.0299 168.341 45.0299C168.341 45.0299 179.358 45.0299 182.015 45.0299C184.672 45.0299 185.255 45.8076 185.255 45.8076Z" fill="#F29127"/>
<path d="M182.922 31.5501C182.922 31.5501 183.181 30.0595 182.987 29.1523C182.793 28.245 181.95 27.0137 181.885 27.0137C181.82 27.0137 180.719 27.2729 180.719 27.2729C180.719 27.3377 180.719 28.893 180.719 28.893C180.719 28.893 181.108 31.1612 181.237 31.4205C181.367 31.6797 181.82 32.587 181.885 32.587C181.95 32.587 182.404 32.3926 182.404 32.3926L182.922 31.5501Z" fill="#FDAEB3"/>
<path d="M180.071 39.8454C179.228 39.9102 178.451 39.327 178.256 38.4845C178.191 38.2253 177.997 37.8365 177.803 37.3828C177.543 36.8644 177.284 36.2811 177.09 35.8275L178.969 34.4666L182.922 31.5503C182.922 31.5503 183.441 35.2442 184.348 36.67C184.348 36.7348 184.672 39.5862 180.071 39.8454Z" fill="#FDAEB3"/>
<path d="M180.978 33.8184C180.848 34.0128 179.228 36.4754 177.803 37.3827C177.543 36.8642 177.284 36.281 177.09 35.8273L178.969 34.4664L180.978 33.8184Z" fill="#E58099"/>
<path d="M182.209 29.8651C182.274 30.7076 182.339 31.4852 182.274 32.0685C182.274 32.1333 182.274 32.1981 182.209 32.3277C182.209 32.3925 182.209 32.4573 182.144 32.5869C181.496 35.0496 173.914 37.901 173.655 37.7714C169.378 35.0496 167.887 24.8751 168.341 24.227C168.859 23.5141 174.886 22.8013 175.016 22.8013C175.145 22.8013 180.978 23.1901 180.978 23.1901C180.978 23.1901 181.885 26.9488 182.209 29.8651Z" fill="#FDAEB3"/>
<path d="M165.554 21.6997C165.554 21.6997 165.749 26.1065 173.007 24.3567C175.016 23.8383 176.766 23.3846 177.738 23.9679C179.228 28.6339 179.293 30.9021 179.811 30.7077C180.46 30.4484 178.71 26.5601 180.978 27.0137C182.728 27.3378 182.857 31.5501 182.857 31.5501C182.857 31.5501 182.987 31.8742 183.052 30.9021C183.117 30.3188 183.505 20.7924 182.08 18.7834C180.654 16.7744 178.58 18.0057 178.58 18.0057C178.58 18.0057 178.71 13.2101 171.776 16.7096C167.822 18.7834 165.878 17.3577 165.878 17.4873C165.943 17.6817 165.23 18.913 165.554 21.6997Z" fill="#1D2468"/>
<path d="M175.405 77.6919C175.405 77.6919 174.951 78.2752 174.497 78.5992C174.109 78.9232 173.914 78.9232 173.331 79.0528C172.748 79.1824 172.229 79.8305 172.1 80.0249C171.905 80.2193 172.1 80.3489 172.488 80.2841C172.877 80.2193 173.331 79.8953 173.461 79.8953C173.59 79.8953 173.59 80.0897 173.461 80.4137C173.331 80.7378 172.877 81.321 172.618 81.5154C172.359 81.7099 171.711 82.0987 171.581 82.2931C171.516 82.5523 171.581 82.6171 171.905 82.5523C172.294 82.4227 172.683 82.1635 173.137 81.9043C173.396 81.7747 173.461 81.645 173.59 81.5802C173.72 81.645 174.238 81.7099 174.627 81.7099C174.821 81.7099 174.951 81.5802 175.081 81.5154C175.145 81.5154 175.21 81.5154 175.21 81.4506C175.534 81.321 175.729 80.2193 175.858 79.8953C176.053 79.5713 177.478 78.4696 177.478 78.4696L175.405 77.6919Z" fill="#FDAEB3"/>
<path d="M166.786 48.0111C166.591 48.0111 166.332 47.8167 166.008 47.4278C165.878 47.2982 165.749 47.1686 165.619 46.9742C165.489 46.8446 165.36 46.7798 165.23 46.715C164.971 46.5205 164.712 46.5205 164.647 46.5205C163.156 46.5205 162.508 45.8725 160.694 45.8725C160.694 45.8725 164.971 43.7987 167.563 45.2892C167.822 45.354 168.341 45.4188 168.665 45.4188C169.443 45.4188 169.183 45.8077 168.989 45.9373C168.924 45.9373 168.73 46.0021 168.47 46.0021C168.47 46.0021 168.47 46.0021 168.535 46.0669C168.665 46.1965 168.73 46.3261 168.859 46.4557C169.183 46.8446 169.637 47.363 169.702 47.4926C169.831 47.6222 169.767 47.687 169.767 47.687C169.767 47.8167 168.146 48.6591 166.786 48.0111Z" fill="#FDAEB3"/>
<path opacity="0.47" d="M168.859 45.8722C168.795 45.8722 168.6 45.937 168.341 45.937C168.341 45.937 167.693 45.3537 167.434 45.2241C167.693 45.2889 168.211 45.3537 168.535 45.3537C169.313 45.3537 169.119 45.7426 168.859 45.8722Z" fill="url(#paint1_linear_81_1252)"/>
<path d="M190.569 66.9342C190.569 66.9342 185.903 66.2214 185.579 65.3141C185.385 64.7956 185.45 60.5184 185.514 57.1485C185.514 56.4357 185.579 55.7228 185.579 55.1396C185.579 53.8434 185.644 53.001 185.644 53.001L194.393 53.8434C193.55 57.667 190.569 66.9342 190.569 66.9342Z" fill="#FDAEB3"/>
<path d="M185.579 65.3787C185.579 65.3787 183.246 67.1285 182.015 68.619C181.237 69.5263 178.839 73.2202 177.025 75.7477C175.923 77.2382 174.886 78.2751 174.886 78.2751L176.053 79.4416C176.053 79.4416 180.848 76.2661 184.737 73.3498C188.69 70.3688 189.856 69.2671 190.569 67.0637C191.282 64.7307 187.005 64.2122 185.579 65.3787Z" fill="#FDAEB3"/>
<path d="M185.255 45.8076L185.579 53.7787C185.579 53.7787 190.31 55.3988 194.522 54.4267C194.522 54.4267 197.179 48.0758 195.106 42.0488" fill="#FFE6D6"/>
<path d="M177.219 61.1018V44.3171" stroke="#192469" stroke-width="3.50852" stroke-miterlimit="10" stroke-linecap="round"/>
<defs>
<linearGradient id="paint0_linear_81_1252" x1="164.558" y1="207.887" x2="165.699" y2="236.698" gradientUnits="userSpaceOnUse">
<stop offset="0.3656" stop-color="#86CF94"/>
<stop offset="0.9892" stop-color="#008166"/>
</linearGradient>
<linearGradient id="paint1_linear_81_1252" x1="167.483" y1="45.5997" x2="169.091" y2="45.5997" gradientUnits="userSpaceOnUse">
<stop stop-color="#F7941E"/>
<stop offset="1" stop-color="#F7941E" stop-opacity="0"/>
</linearGradient>
</defs>
</svg>
