<svg width="413" height="236" viewBox="0 0 413 236" fill="none" xmlns="http://www.w3.org/2000/svg">
<path d="M342.563 26.0566H60.536V204.726H342.563V26.0566Z" fill="#FCF4EF"/>
<path d="M344 206.163H59.0989V24.5972H344V206.163ZM61.9731 203.267H341.103V27.4938H61.9731V203.267Z" fill="#FDAEB3"/>
<path d="M342.563 62.1184H60.536V64.9926H342.563V62.1184Z" fill="#FDAEB3"/>
<path d="M141.956 109.587H60.536V111.81H141.956V109.587Z" fill="#FDAEB3"/>
<path d="M141.956 154.788H60.536V157.011H141.956V154.788Z" fill="#FDAEB3"/>
<path d="M102.346 63.5554H100.123V204.726H102.346V63.5554Z" fill="#FDAEB3"/>
<path d="M342.54 109.587H261.121V111.81H342.54V109.587Z" fill="#FDAEB3"/>
<path d="M342.541 154.788H261.121V157.011H342.541V154.788Z" fill="#FDAEB3"/>
<path d="M302.953 63.5554H300.73V204.726H302.953V63.5554Z" fill="#FDAEB3"/>
<path d="M262.783 206.365H140.294V61.8938H262.783V206.365ZM143.595 203.064H259.459V65.217H143.595V203.064Z" fill="#FDAEB3"/>
<path d="M202.807 63.5554H200.27V204.726H202.807V63.5554Z" fill="#FDAEB3"/>
<path d="M189.991 137.086C191.627 137.066 192.938 135.723 192.918 134.086C192.898 132.45 191.555 131.139 189.918 131.159C188.282 131.179 186.971 132.522 186.991 134.159C187.011 135.796 188.354 137.106 189.991 137.086Z" fill="#FDAEB3"/>
<path d="M209.611 134.13C209.611 132.491 210.935 131.166 212.575 131.166C214.214 131.166 215.538 132.491 215.538 134.13C215.538 135.769 214.214 137.094 212.575 137.094C210.935 137.094 209.611 135.769 209.611 134.13Z" fill="#FDAEB3"/>
<path opacity="0.2" d="M345.065 46.9843C368.644 8.71732 401.087 35.7903 412.538 0L412.538 236L79.1802 236C103.828 185.654 167.714 151.736 206.885 151.736C269.582 151.736 297.48 189.639 332.896 145.42C360.162 111.376 326.272 77.4856 345.065 46.9843Z" fill="url(#paint0_linear_554_830)"/>
<path d="M298.851 159.901C362.866 159.901 400.933 99.8737 412.384 64.0835V235.692L0 235.692C21.8747 221.057 32.2664 231.85 63.1593 221.057C98.436 208.734 138.642 243.548 187.783 215.358C228.401 192.056 211.353 159.901 298.851 159.901Z" fill="url(#paint1_linear_554_830)"/>
<path d="M26.8749 32.5382C26.8749 32.5382 27.5586 32.6236 27.1527 33.8629C26.7467 35.1021 24.14 41.6617 24.14 41.6617C24.14 41.6617 21.9392 44.418 18.0078 42.9223L17.089 41.042L18.4351 36.5123L19.6957 32.8159L22.4948 32.239L26.8749 32.5382Z" fill="#8C9DF4"/>
<path d="M8.56377 41.9609H2.88026V40.9566H7.88004L9.0552 37.9226L9.99533 38.2858L8.56377 41.9609Z" fill="#2B478B"/>
<path d="M8.60651 38.5636C8.35011 37.2816 9.16204 36.0423 10.444 35.7645C11.726 35.5081 12.9653 36.3201 13.2431 37.6021C13.4995 38.8841 12.6875 40.1233 11.4055 40.4011C10.1235 40.6575 8.86291 39.8455 8.60651 38.5636Z" fill="#2B478B"/>
<path d="M1 33.8201C1 33.8201 1.27777 34.8457 3.24349 35.7858C5.20921 36.7259 18.0291 42.9009 18.0291 42.9009C18.0291 42.9009 17.4095 41.683 17.73 40.8924L1 33.8201Z" fill="#6980E2"/>
<path d="M2.34611 27.8589L1.00002 33.8202L17.73 40.9139L20.2727 34.7176L2.34611 27.8589Z" fill="#5270D1"/>
<path d="M2.3461 27.859C2.3461 27.859 4.97419 25.5941 7.70911 26.0642L26.8963 32.5383C26.8963 32.5383 22.9221 32.1537 20.294 34.7177L2.3461 27.859Z" fill="#6980E2"/>
<path d="M2.7948 43.713C2.02561 43.713 1.40598 43.0934 1.40598 42.3242V40.8285C1.40598 40.0593 2.02561 39.4397 2.7948 39.4397C3.564 39.4397 4.18363 40.0593 4.18363 40.8285V42.3242C4.18363 43.0934 3.564 43.713 2.7948 43.713Z" fill="#2B478B"/>
<path d="M23.9477 38.8412C23.1571 40.5505 21.811 41.5975 20.9564 41.2129C20.1017 40.8069 20.059 39.0976 20.8709 37.4096C21.6615 35.7003 23.0076 34.6534 23.8622 35.038C24.7169 35.4226 24.7596 37.1319 23.9477 38.8412Z" fill="#2B478B"/>
<path d="M25.9348 34.5252C25.7852 34.8243 25.5502 35.0166 25.4006 34.9525C25.2511 34.8884 25.2297 34.5679 25.3792 34.2688C25.5288 33.9696 25.7638 33.7773 25.9134 33.8414C26.063 33.9055 26.0844 34.2047 25.9348 34.5252Z" fill="#F77D48"/>
<path d="M403.412 29.4301H409.096V28.4259H404.096L402.921 25.3918L401.981 25.7551L403.412 29.4301Z" fill="#2B478B"/>
<path d="M403.369 26.0113C403.626 24.7293 402.814 23.49 401.532 23.2123C400.25 22.9559 399.011 23.7678 398.733 25.0498C398.476 26.3318 399.288 27.5711 400.57 27.8488C401.852 28.1052 403.113 27.2933 403.369 26.0113Z" fill="#2B478B"/>
<path d="M409.181 31.1608C409.95 31.1608 410.57 30.5411 410.57 29.7719V28.2763C410.57 27.5071 409.95 26.8875 409.181 26.8875C408.412 26.8875 407.792 27.5071 407.792 28.2763V29.7719C407.792 30.5411 408.412 31.1608 409.181 31.1608Z" fill="#2B478B"/>
<path d="M385.208 24.7508C385.208 24.7508 384.61 25.0713 385.443 26.0756C386.276 27.0798 391.084 32.2291 391.084 32.2291C391.084 32.2291 394.139 34.0026 397.259 31.1608L397.43 29.0883L394.524 25.3705L392.002 22.3792L389.182 22.8706L385.208 24.7508Z" fill="#8C9DF4"/>
<path d="M409.779 16.5032C409.779 16.5032 409.908 17.5715 408.412 19.1526C406.916 20.7551 397.259 31.182 397.259 31.182C397.259 31.182 397.387 29.8145 396.81 29.2163L409.779 16.5032Z" fill="#6980E2"/>
<path d="M406.339 11.4392L409.779 16.5031L396.81 29.2162L392.152 24.366L406.339 11.4392Z" fill="#5270D1"/>
<path d="M406.339 11.4394C406.339 11.4394 403.07 10.2856 400.699 11.7172L385.208 24.7508C385.208 24.7508 388.776 22.9346 392.152 24.3662L406.339 11.4394Z" fill="#6980E2"/>
<path d="M390.229 29.5582C391.596 30.8616 393.242 31.353 393.883 30.6692C394.524 29.9855 393.947 28.383 392.579 27.0797C391.212 25.7763 389.567 25.2849 388.926 25.9686C388.285 26.6523 388.862 28.2548 390.229 29.5582Z" fill="#2B478B"/>
<path d="M386.832 26.2677C387.088 26.5027 387.366 26.5882 387.494 26.46C387.601 26.3318 387.515 26.054 387.259 25.819C387.003 25.584 386.725 25.4985 386.597 25.6267C386.468 25.7335 386.575 26.0327 386.832 26.2677Z" fill="#F77D48"/>
<path d="M205.705 146.527C205.705 146.527 204.957 149.283 205.534 150.394C206.111 151.505 207.222 152.467 207.756 151.847C208.29 151.206 207.243 147.168 207.243 147.168L205.705 146.527Z" fill="#FFB27D"/>
<path d="M214.465 91.6361C214.465 91.6361 217.371 91.337 219.956 93.0036C222.542 94.6915 222.499 102.533 224.144 104.349C226.751 107.255 220.661 109.37 216.837 109.563C213.739 109.712 205.619 108.986 206.987 106.7C209.871 101.828 205.662 92.1275 214.465 91.6361Z" fill="#163560"/>
<path d="M210.384 163.043C212.435 176.312 214.123 190.606 213.333 198.127C212.692 200.221 210.747 200.926 209.038 201.182L210.213 202.464L213.525 202.678L217.948 200.969C217.948 200.969 217.692 200.093 217.499 198.576C217.264 196.802 218.119 192.764 218.119 192.764C218.119 192.764 220.341 178.812 219.144 175.671C218.803 174.773 218.568 173.748 218.439 172.658C218.097 169.838 218.311 166.44 218.568 163.15C218.845 159.582 219.166 156.099 218.845 153.599C217.371 142.168 217.392 132.297 217.392 132.297L208.718 132.254C208.718 132.254 206.218 139.219 207.329 145.202C208.269 150.287 209.38 156.526 210.384 163.043Z" fill="#E8945B"/>
<path d="M209.423 110.353C209.423 110.353 207.521 110.823 206.624 113.045C205.705 115.267 205.299 132.232 205.128 134.07C204.957 135.907 205.534 147.317 205.534 147.317C205.534 147.317 206.88 147.787 207.863 147.018C211.495 144.24 209.829 128.878 209.829 128.878L209.423 110.353Z" fill="#FFE6D6"/>
<path d="M206.901 139.006C206.901 139.006 205.919 125.652 206.453 122.212C206.645 120.994 208.824 123.109 209.081 126.25C209.337 129.348 206.901 139.006 206.901 139.006Z" fill="#F79E61"/>
<path d="M214.316 203.148C212.393 202.892 212.905 203.405 210.192 203.405C207.478 203.405 206.56 202.507 206.453 202.123C206.346 201.781 207.649 201.503 209.038 201.182L209.081 201.225C209.081 201.225 210.769 202.165 213.012 201.973C214.828 201.823 216.687 201.076 217.948 200.969C218.012 201.375 218.098 201.802 218.055 202.229C217.948 203.426 216.26 203.405 214.316 203.148Z" fill="#233862"/>
<path d="M215.277 161.697C217.328 174.966 220.597 190.713 219.807 198.234C219.166 200.328 217.221 201.033 215.512 201.289L216.687 202.571L219.999 202.785L224.422 201.075C224.422 201.075 224.166 200.199 223.973 198.682C223.738 196.909 224.593 192.871 224.593 192.871C224.593 192.871 226.815 178.918 225.619 175.777C225.277 174.88 225.042 173.854 224.913 172.765C224.572 169.944 224.785 166.547 225.042 163.257C225.319 159.688 225.64 156.206 225.319 153.706C223.845 142.275 223.866 132.403 223.866 132.403L215.192 132.361C215.192 132.361 212.692 139.326 213.803 145.309C214.743 150.373 214.273 155.18 215.277 161.697Z" fill="#FFB27D"/>
<path d="M220.79 203.255C218.867 202.999 219.379 203.511 216.666 203.511C213.952 203.511 213.034 202.614 212.927 202.229C212.82 201.888 214.123 201.61 215.512 201.289L215.555 201.332C215.555 201.332 217.243 202.272 219.486 202.08C221.302 201.93 223.161 201.183 224.422 201.076C224.486 201.482 224.572 201.909 224.529 202.336C224.422 203.511 222.713 203.511 220.79 203.255Z" fill="#233862"/>
<path d="M226.174 119.242C226.174 119.242 226.324 121.57 226.153 124.369C226.024 126.228 224.144 128.707 223.866 129.327C223.183 130.865 222.435 131.121 222.435 131.121L216.602 132.532L214.551 133.023L208.098 131.057C208.098 131.057 205.192 122.81 206.41 118.195C207.628 113.579 209.444 110.374 209.444 110.374C209.444 110.374 216.901 108.473 222.649 110.182L226.174 119.242Z" fill="#FFB27D"/>
<path d="M206.795 147.082C207.457 155.842 208.269 163.214 208.269 163.214C208.269 163.214 212.329 165.992 218.119 166.376C220.747 166.547 223.76 166.227 226.879 164.902C226.879 164.902 228.183 143.77 227.435 140.394C226.687 137.019 223.375 132.361 223.375 132.361L208.29 132.873C208.29 132.873 206.132 138.322 206.795 147.082Z" fill="#ED7D2B"/>
<path d="M207.991 130.758C207.991 130.758 209.273 131.784 211.837 131.848C214.893 131.933 222.456 131.121 222.456 131.121C222.456 131.121 222.777 132.061 222.777 133.044C222.777 133.044 213.525 135.331 208.183 133.301C208.162 133.322 207.478 132.019 207.991 130.758Z" fill="#203D77"/>
<path d="M211.068 134.476C210.299 134.476 209.679 133.771 209.679 132.895C209.679 132.019 210.32 131.314 211.089 131.335C211.858 131.335 212.478 132.04 212.478 132.916C212.478 133.771 211.837 134.476 211.068 134.476ZM211.089 131.784C210.576 131.784 210.149 132.275 210.149 132.895C210.149 133.515 210.555 134.006 211.068 134.006C211.581 134.006 212.008 133.515 212.008 132.895C212.008 132.275 211.602 131.784 211.089 131.784Z" fill="white"/>
<path d="M221.164 119.701L211.662 127.887L222.875 140.902L232.377 132.716L221.164 119.701Z" fill="#233862"/>
<path d="M220.298 132.66C220.298 132.66 216.837 133.044 216.837 133.878C216.837 134.711 217.692 136.399 218.119 136.463C218.546 136.549 220.961 134.198 220.961 134.198L220.298 132.66Z" fill="#FFB27D"/>
<path d="M221.58 109.969C221.58 109.969 226.217 110.31 227.969 114.648C229.721 118.964 233.054 126.228 233.033 127.446C233.033 128.664 231.131 132.403 221.025 134.519C221.025 134.519 219.978 133.408 220.063 132.553C220.063 132.553 226.388 127.169 226.388 126.528C226.366 125.331 225.362 123.75 219.871 118.173C218.333 116.678 221.58 109.969 221.58 109.969Z" fill="#FFE6D6"/>
<path d="M220.854 109.755C219.914 109.541 219.145 108.879 218.824 107.982C218.439 106.892 218.14 105.268 218.162 103.26L217.863 103.324L212.927 104.264C212.927 104.264 213.034 105.823 213.034 107.276C213.034 107.298 213.034 107.298 213.034 107.319C213.034 108.58 212.2 109.712 210.982 110.054C210.363 110.225 213.931 114.968 214.337 114.883C215.17 114.669 221.153 109.819 220.854 109.755Z" fill="#FFB27D"/>
<path d="M212.927 104.264C212.927 104.264 213.034 105.824 213.034 107.277C215.79 107.212 217.264 104.713 217.862 103.324L212.927 104.264Z" fill="#E8945B"/>
<path d="M212.008 105.631C212.008 105.631 218.525 105.781 218.546 101.721C218.568 97.6614 219.422 94.9479 215.277 94.6701C211.111 94.4137 210.299 95.9521 209.957 97.2982C209.615 98.6443 210.299 105.482 212.008 105.631Z" fill="#FFB27D"/>
<path d="M212.307 94.5633C212.307 94.5633 214.059 99.328 216.794 100.054C219.529 100.781 220.726 100.054 220.726 100.054C220.726 100.054 218.632 98.3665 218.204 95.4607C218.204 95.4393 213.653 92.2984 212.307 94.5633Z" fill="#163560"/>
<path d="M212.735 94.948C212.735 94.948 211.41 95.4395 210.854 96.401C210.32 97.3411 209.85 98.5803 209.957 100.119C209.957 100.119 208.632 96.871 210.149 95.0549C211.773 93.1105 212.735 94.948 212.735 94.948Z" fill="#163560"/>
<path d="M214.316 114.861C214.316 114.861 218.76 110.182 218.931 108.238C218.931 108.238 220.063 108.558 221.367 109.84C221.367 109.84 220.298 112.49 219.016 113.366C219.016 113.366 218.098 113.238 217.371 112.938C217.371 112.938 217.82 113.708 218.183 114.156C218.204 114.156 216.196 115.289 214.316 114.861Z" fill="#F79E61"/>
<path d="M212.82 108.387C212.82 108.387 211.068 111.55 214.337 114.861C214.337 114.861 212.286 114.455 211.217 113.002C211.217 113.002 211.559 112.233 211.837 112.041C211.837 112.041 211.217 111.785 210.833 112.148C210.833 112.148 210.598 110.438 210.854 109.926C211.068 109.413 212.307 108.366 212.82 108.387Z" fill="#F79E61"/>
<path d="M214.658 114.862C214.658 114.691 214.508 114.541 214.337 114.541C214.166 114.541 214.017 114.691 214.017 114.862C214.017 115.032 214.166 115.182 214.337 115.182C214.508 115.182 214.658 115.032 214.658 114.862Z" fill="#233862"/>
<path d="M212.884 119.519C212.884 119.349 212.735 119.199 212.564 119.199C212.393 119.199 212.243 119.349 212.243 119.519C212.243 119.69 212.393 119.84 212.564 119.84C212.735 119.84 212.884 119.69 212.884 119.519Z" fill="#233862"/>
<path d="M212.521 124.968C212.521 124.797 212.371 124.647 212.2 124.647C212.029 124.647 211.88 124.797 211.88 124.968C211.88 125.139 212.029 125.288 212.2 125.288C212.371 125.288 212.521 125.16 212.521 124.968Z" fill="#233862"/>
<path d="M201.218 93.0463H200V86.0808H206.752V87.2987H201.218V93.0463Z" fill="#1C468A"/>
<path d="M233.033 92.9396H231.815V87.4056H226.046V86.1877H233.033V92.9396Z" fill="#1C468A"/>
<path d="M233.033 115.353H226.281V114.135H231.815V108.366H233.033V115.353Z" fill="#1C468A"/>
<path d="M206.987 115.225H200V108.473H201.218V114.007H206.987V115.225Z" fill="#1C468A"/>
<path d="M253.327 77.7382H209.696C207.645 77.7382 206 76.0717 206 74.0418V57.6964C206 55.6452 207.667 54 209.696 54H253.327C255.378 54 257.023 55.6666 257.023 57.6964V74.0418C257.023 76.0717 255.378 77.7382 253.327 77.7382Z" fill="#F0807C"/>
<path d="M225.593 65.4737C225.593 67.1617 225.08 68.7215 224.183 70.0034C223.82 70.559 223.371 71.0504 222.88 71.4991C222.837 71.5418 222.794 71.5846 222.73 71.6273C222.495 71.841 222.217 72.0333 221.961 72.2042C221.683 72.3965 221.384 72.5674 221.085 72.717C220.016 73.2298 218.841 73.5289 217.581 73.5289C217.517 73.5289 217.452 73.5289 217.388 73.5289C216.705 73.5076 216.042 73.4221 215.401 73.2298C215.294 73.1871 215.166 73.1657 215.059 73.123C214.354 72.8879 213.692 72.5674 213.094 72.1615C212.645 71.8623 212.218 71.4991 211.833 71.1145C211.534 70.8154 211.256 70.4735 211.021 70.1316C210.85 69.8752 210.679 69.6189 210.551 69.3625C209.91 68.2087 209.568 66.9053 209.568 65.4951C209.568 61.0509 213.158 57.4613 217.602 57.4613C222.004 57.4399 225.593 61.0509 225.593 65.4737Z" fill="#E1EFFF"/>
<path d="M218.2 58.8287C218.2 58.8287 216.641 58.6578 215.252 59.5766C213.863 60.4953 213.884 64.6832 213.008 65.666C211.598 67.2258 214.888 68.3582 216.94 68.4651C218.606 68.5505 222.965 68.1659 222.239 66.9267C220.657 64.2986 222.922 59.0851 218.2 58.8287Z" fill="#163560"/>
<path d="M222.41 69.3625C222.068 68.5506 221.491 68.166 221.149 68.0164C220.999 67.9523 220.892 67.9096 220.892 67.9096C220.892 67.9096 220.102 67.7173 218.948 67.5677C218.072 67.4609 216.982 67.3754 215.893 67.4609C215.252 67.5036 214.589 67.5891 213.97 67.76C213.906 67.7814 213.863 67.8028 213.799 67.8028C213.414 67.9096 212.859 68.1019 212.324 68.4651C211.812 68.8284 211.32 69.3412 211 70.0676C211.256 70.4095 211.513 70.7514 211.812 71.0505C212.196 71.4351 212.602 71.7983 213.072 72.0974C213.671 72.5034 214.333 72.8239 215.038 73.0589C215.145 73.1017 215.273 73.123 215.38 73.1658C216.021 73.3367 216.683 73.4435 217.367 73.4649C217.431 73.4649 217.495 73.4649 217.559 73.4649C218.82 73.4649 220.016 73.1658 221.063 72.653C221.363 72.5034 221.662 72.3325 221.939 72.1402C222.217 71.9693 222.474 71.7769 222.709 71.5633C222.645 70.5163 222.538 69.683 222.41 69.3625Z" fill="#F99746"/>
<path d="M216.662 68.9993C215.743 68.7002 215.679 68.0806 215.85 67.6105C216.064 67.0336 216.213 66.1576 216.213 65.0679L216.363 65.0892L219.012 65.602C219.012 65.602 218.948 66.4353 218.948 67.2259V67.2473C218.948 67.931 218.969 68.2942 218.628 68.8925C218.435 69.2557 217.752 69.3412 216.662 68.9993Z" fill="#FFB27D"/>
<path d="M219.012 65.6021C219.012 65.6021 218.948 66.4354 218.948 67.226C217.474 67.1833 216.683 65.8372 216.363 65.0894L219.012 65.6021Z" fill="#E8945B"/>
<path d="M219.525 66.3498C219.525 66.3498 216.021 66.4353 216 64.2345C215.978 62.0551 215.529 60.6022 217.752 60.4526C219.995 60.3031 220.422 61.1364 220.615 61.8628C220.807 62.6107 220.422 66.2643 219.525 66.3498Z" fill="#FFB27D"/>
<path d="M219.354 60.3886C219.354 60.3886 218.414 62.9525 216.94 63.3371C215.465 63.7217 214.824 63.3371 214.824 63.3371C214.824 63.3371 215.957 62.4397 216.17 60.8586C216.17 60.88 218.628 59.192 219.354 60.3886Z" fill="#163560"/>
<path d="M219.119 60.6023C219.119 60.6023 219.824 60.8587 220.123 61.3715C220.422 61.8843 220.657 62.5466 220.615 63.3799C220.615 63.3799 221.32 61.6279 220.508 60.6664C219.632 59.6194 219.119 60.6023 219.119 60.6023Z" fill="#163560"/>
<path d="M239.332 58.2092H229.225V59.4271H239.332V58.2092Z" fill="#E1EFFF"/>
<path d="M246.874 68.5293H229.225V69.2558H246.874V68.5293Z" fill="#E1EFFF"/>
<path d="M240.016 65.8584H229.225V66.5849H240.016V65.8584Z" fill="#E1EFFF"/>
<path d="M253.049 65.8584H242.259V66.5849H253.049V65.8584Z" fill="#E1EFFF"/>
<path d="M240.016 71.2002H229.225V71.9267H240.016V71.2002Z" fill="#E1EFFF"/>
<path d="M253.049 71.2002H242.259V71.9267H253.049V71.2002Z" fill="#E1EFFF"/>
<path d="M248.434 58.2092H241.298V59.4271H248.434V58.2092Z" fill="#E1EFFF"/>
<path d="M168.636 107.183C168.636 107.183 177.225 116.092 177.631 119.447C178.037 122.802 173.507 128.036 173.507 128.036L168.636 107.183Z" fill="#ED7D2B"/>
<path d="M164.747 199.55C164.747 199.55 164.448 204.272 163.529 204.336C163.401 204.336 158.892 204.336 158.892 204.336L153.123 204.294C153.123 204.294 153.166 202.905 154.854 202.606C156.542 202.307 159.363 201.131 160.388 198.909C161.456 196.58 164.747 199.55 164.747 199.55Z" fill="#163560"/>
<path d="M177.588 199.593C177.588 199.593 177.289 204.315 176.37 204.379C176.242 204.379 171.734 204.379 171.734 204.379L165.965 204.336C165.965 204.336 166.008 202.948 167.695 202.648C169.383 202.349 172.204 201.174 173.229 198.952C174.319 196.623 177.588 199.593 177.588 199.593Z" fill="#163560"/>
<path d="M158.465 148.741C158.465 148.741 159.961 158.398 165.537 175.534C171.135 192.67 171.883 200.085 171.883 200.085L177.93 199.935C177.93 199.935 178.016 181.218 175.452 172.607C172.888 163.996 174.96 141.562 174.96 141.562L158.465 148.741Z" fill="#163560"/>
<path d="M155.538 142.031C155.538 142.031 155.303 156.561 157.76 174.423C160.239 192.286 159.362 199.849 159.362 199.849L165.388 200.063C165.388 200.063 169.02 182.222 168.016 173.269C167.012 164.338 173.016 142.63 173.016 142.63L155.538 142.031Z" fill="#1C468A"/>
<path d="M167.29 108.037L164.085 110.131L159.448 109.255C159.512 108.871 159.833 107.332 160.11 105.922C160.132 105.836 160.153 105.751 160.153 105.666C160.388 104.469 160.602 103.443 160.602 103.443L164.939 101.542L166.563 100.837C166.563 100.858 166.435 102.161 166.413 102.354C166.093 105.73 167.29 108.037 167.29 108.037Z" fill="#FFB27D"/>
<path d="M160.623 106.947C160.709 106.905 166.221 105.302 166.819 105.495C167.418 105.687 167.76 106.841 167.76 106.841L158.764 108.849C158.764 108.87 159.469 107.439 160.623 106.947Z" fill="#ED7D2B"/>
<path d="M175.345 143.869C174.405 148.121 158.892 148.591 154.918 144.724C154.47 144.275 154.448 142.245 154.619 139.489C154.961 134.104 156.051 126.007 156.115 121.861C156.136 119.853 156.414 117.823 156.799 115.964C157.589 112.011 158.786 108.913 158.786 108.913C158.786 108.913 166.371 106.477 167.781 106.905C174.576 108.871 176.285 139.617 175.345 143.869Z" fill="#F99746"/>
<path d="M154.619 139.468C154.961 134.083 156.051 125.985 156.115 121.84C156.136 119.832 156.414 117.802 156.799 115.943L161.35 115.152C161.35 115.131 165.751 133.335 154.619 139.468Z" fill="#ED7D2B"/>
<path d="M157.098 131.968C157.098 131.968 157.397 132.716 156.756 133.207C156.093 133.699 155.687 134.51 155.816 135.109C155.965 135.707 157.397 136.668 157.888 136.519C158.38 136.369 159.405 135.6 159.277 135.28C159.17 134.959 159.961 132.545 158.764 131.626C157.568 130.664 157.098 131.968 157.098 131.968Z" fill="#FFB27D"/>
<path d="M162.247 107.781C162.247 107.781 157.803 108.593 154.256 113.806C150.709 119.02 148.359 122.887 149.021 124.767C149.662 126.647 155.602 133.186 156.628 133.186C157.653 133.186 159.298 132.438 159.405 130.771C159.405 130.771 155.239 124.489 156.051 123.549C156.414 123.143 161.499 119.041 162.204 120.9C163.401 123.998 162.247 107.781 162.247 107.781Z" fill="#F99746"/>
<path d="M166.072 102.418C165.11 104.021 161.563 105.409 160.089 105.922C160.11 105.837 160.132 105.751 160.132 105.666C160.367 104.469 160.58 103.444 160.58 103.444L164.918 101.542C165.879 101.542 166.456 101.756 166.072 102.418Z" fill="#FCA56B"/>
<path d="M158.957 103.187C158.957 103.187 165.922 105.388 167.225 101.008C168.529 96.6489 170.302 93.9781 165.901 92.397C161.499 90.8159 160.132 92.226 159.341 93.5721C158.572 94.9396 157.183 102.503 158.957 103.187Z" fill="#FFB27D"/>
<path d="M159.619 93.1661C159.619 93.1661 160.046 98.2513 161.115 98.0377C162.162 97.824 163.123 97.6531 162.952 99.1915C162.803 100.73 161.328 102.482 164.576 102.76C167.824 103.037 172.482 94.7045 171.606 93.102C169.042 88.5295 155.922 87.5894 159.619 93.1661Z" fill="#163560"/>
<path d="M145.218 90.9228H144V84H150.688V85.2179H145.218V90.9228Z" fill="#1C468A"/>
<path d="M176.776 90.8159H175.558V85.3247H169.854V84.1282H176.776V90.8159Z" fill="#1C468A"/>
<path d="M176.776 113.037H170.067V111.841H175.558V106.114H176.776V113.037Z" fill="#1C468A"/>
<path d="M150.923 112.93H144V106.242H145.218V111.712H150.923V112.93Z" fill="#1C468A"/>
<path d="M165.327 77.7382H121.696C119.645 77.7382 118 76.0717 118 74.0418V57.6964C118 55.6452 119.667 54 121.696 54H165.327C167.378 54 169.023 55.6666 169.023 57.6964V74.0418C169.023 76.0717 167.357 77.7382 165.327 77.7382Z" fill="#F0807C"/>
<path d="M137.593 65.474C137.593 67.162 137.08 68.7217 136.183 70.0037C135.82 70.5379 135.392 71.0293 134.901 71.4567L134.88 71.478C134.602 71.7344 134.281 71.9694 133.961 72.1831C133.683 72.3754 133.384 72.525 133.063 72.6959C131.995 73.2087 130.82 73.5078 129.559 73.5078C129.495 73.5078 129.431 73.5078 129.367 73.5078C128.683 73.4865 128.021 73.3796 127.38 73.2087C127.273 73.166 127.145 73.1446 127.038 73.1019C126.333 72.8668 125.671 72.5463 125.072 72.1404C124.624 71.8412 124.196 71.478 123.812 71.0934C123.769 71.0507 123.726 71.0079 123.684 70.9652C123.235 70.4738 122.829 69.9396 122.508 69.3414C121.867 68.1876 121.525 66.8842 121.525 65.474C121.525 61.0298 125.115 57.4402 129.559 57.4402C134.004 57.4402 137.593 61.0511 137.593 65.474Z" fill="#E1EFFF"/>
<path d="M134.901 71.4781L134.88 71.4995C134.602 71.7559 134.281 71.9909 133.961 72.2046C133.683 72.3969 133.384 72.5464 133.063 72.7174C131.995 73.2301 130.82 73.5293 129.559 73.5293C129.495 73.5293 129.431 73.5293 129.367 73.5293C128.683 73.5079 128.021 73.4011 127.38 73.2302C127.273 73.1874 127.145 73.1661 127.038 73.1233C126.333 72.8883 125.671 72.5678 125.072 72.1618C124.624 71.8627 124.196 71.4995 123.812 71.1149C123.769 71.0721 123.726 71.0294 123.684 70.9867C124.517 70.5593 125.906 70.2602 127.423 70.1747C128.897 70.0893 130.499 70.1534 131.952 70.4525C133.106 70.6448 134.132 70.9867 134.901 71.4781Z" fill="#F99746"/>
<path d="M127.53 70.4737C128.576 71.6061 132.081 71.4352 131.974 70.4524C131.952 70.3242 131.931 69.5977 131.931 69.4909C131.931 69.4054 131.91 69.3199 131.91 69.2345C131.888 68.9994 131.867 68.7858 131.846 68.5935C131.803 68.0593 131.781 67.7602 131.781 67.7602C131.675 67.7388 129.431 67.0978 128.299 66.82C127.914 66.7346 127.679 66.6918 127.679 66.7132C128.021 69.2345 127.188 70.0891 127.53 70.4737Z" fill="#FFB27D"/>
<path d="M128.171 67.5467C128.171 67.5467 129.111 68.5082 131.824 68.5723C131.781 68.0381 131.76 67.739 131.76 67.739C131.653 67.7176 129.41 67.0766 128.277 66.7988C128.085 66.8843 128.363 67.4185 128.171 67.5467Z" fill="#ED975D"/>
<path d="M132.465 67.6107C132.465 67.6107 131.781 67.867 130.905 67.9739C129.623 68.1448 127.935 68.038 127.401 66.4996C126.504 63.8929 125.371 62.3117 128 61.2434C129.41 60.6665 130.307 60.6452 130.927 60.8588C131.461 61.0511 131.781 61.4144 132.016 61.799C132.508 62.5895 133.534 67.1406 132.465 67.6107Z" fill="#FFB27D"/>
<path d="M131.803 59.7692C132.743 60.3888 132.444 61.8418 131.333 62.0341C130.67 62.1409 130.115 62.1836 129.794 62.3118C129.132 62.6109 128.576 62.9101 128.726 63.9357C128.769 64.2775 128.94 64.7049 128.064 64.4912C127.914 64.4485 127.807 64.4698 127.743 64.5126C127.38 64.7262 127.85 65.7946 127.978 66.0296C127.978 66.0296 128.192 66.7988 127.722 67.162C127.658 67.2048 126.782 67.5894 124.624 64.2989C124.282 63.7861 123.961 62.6109 124.495 61.4999C125.008 60.3888 126.461 58.9573 129.196 58.9573C129.901 58.9573 130.991 59.235 131.803 59.7692Z" fill="#233862"/>
<path d="M151.332 58.2092H141.225V59.4271H151.332V58.2092Z" fill="#E1EFFF"/>
<path d="M158.874 68.5293H141.225V69.2558H158.874V68.5293Z" fill="#E1EFFF"/>
<path d="M152.016 65.8584H141.225V66.5849H152.016V65.8584Z" fill="#E1EFFF"/>
<path d="M165.049 65.8584H154.259V66.5849H165.049V65.8584Z" fill="#E1EFFF"/>
<path d="M152.016 71.2002H141.225V71.9267H152.016V71.2002Z" fill="#E1EFFF"/>
<path d="M165.049 71.2002H154.259V71.9267H165.049V71.2002Z" fill="#E1EFFF"/>
<path d="M160.434 58.2092H153.298V59.4271H160.434V58.2092Z" fill="#E1EFFF"/>
<path d="M314.709 130.452V205.193H342.422V119H326.14C322.978 119 320.115 120.282 318.043 122.355C315.991 124.448 314.709 127.29 314.709 130.452Z" fill="#F79D61"/>
<path d="M327.273 119.021L313 148.251V205.214H375.454V119.021H327.273Z" fill="#FFCBA9"/>
<g opacity="0.5">
<path opacity="0.5" d="M317.914 140.666L326.311 123.06C326.781 122.077 327.786 121.436 328.875 121.436H359.942L354.878 144.747H320.478C318.384 144.747 317.017 142.546 317.914 140.666Z" fill="#FDAEB3"/>
</g>
<path d="M322.529 140.238L329.345 125.132L352.272 124.705L348.639 140.238H322.529Z" fill="#FFCBA9"/>
<g opacity="0.5">
<path opacity="0.5" d="M332.508 129.32H348.939C349.451 129.32 349.857 128.914 349.857 128.401C349.857 127.888 349.451 127.482 348.939 127.482H332.508C331.995 127.482 331.589 127.888 331.589 128.401C331.589 128.914 332.016 129.32 332.508 129.32Z" fill="#F79D61"/>
</g>
<g opacity="0.5">
<path opacity="0.5" d="M329.345 133.764H336.909C337.422 133.764 337.828 133.358 337.828 132.846C337.828 132.333 337.422 131.927 336.909 131.927H329.345C328.832 131.927 328.427 132.333 328.427 132.846C328.448 133.358 328.854 133.764 329.345 133.764Z" fill="#F79D61"/>
</g>
<g opacity="0.5">
<path opacity="0.5" d="M327.679 137.161H335.243C335.755 137.161 336.161 136.756 336.161 136.243C336.161 135.73 335.755 135.324 335.243 135.324H327.679C327.166 135.324 326.76 135.73 326.76 136.243C326.76 136.756 327.166 137.161 327.679 137.161Z" fill="#F79D61"/>
</g>
<g opacity="0.5">
<path opacity="0.5" d="M342.742 133.764H350.306C350.819 133.764 351.225 133.358 351.225 132.846C351.225 132.333 350.819 131.927 350.306 131.927H342.742C342.229 131.927 341.823 132.333 341.823 132.846C341.845 133.358 342.251 133.764 342.742 133.764Z" fill="#F79D61"/>
</g>
<g opacity="0.5">
<path opacity="0.5" d="M341.076 137.161H348.639C349.152 137.161 349.558 136.756 349.558 136.243C349.558 135.73 349.152 135.324 348.639 135.324H341.076C340.563 135.324 340.157 135.73 340.157 136.243C340.157 136.756 340.563 137.161 341.076 137.161Z" fill="#F79D61"/>
</g>
<path d="M347.721 130.452V205.193H375.433V119H359.152C355.989 119 353.126 120.282 351.054 122.355C349.003 124.448 347.721 127.29 347.721 130.452Z" fill="#F79D61"/>
<path d="M325.734 126.115C325.734 125.581 326.162 125.132 326.717 125.132C327.273 125.132 327.7 125.559 327.7 126.115C327.7 126.649 327.273 127.098 326.717 127.098C326.162 127.098 325.734 126.649 325.734 126.115Z" fill="#FFCBA9"/>
<path d="M324.431 132.589C324.974 132.589 325.414 132.149 325.414 131.606C325.414 131.063 324.974 130.623 324.431 130.623C323.888 130.623 323.448 131.063 323.448 131.606C323.448 132.149 323.888 132.589 324.431 132.589Z" fill="#FFCBA9"/>
<path d="M320.97 137.226C320.97 136.691 321.397 136.243 321.953 136.243C322.508 136.243 322.935 136.67 322.935 137.226C322.935 137.76 322.508 138.208 321.953 138.208C321.397 138.208 320.97 137.76 320.97 137.226Z" fill="#FFCBA9"/>
<g opacity="0.5">
<path opacity="0.5" d="M316.439 159.722H343.403V152.265H316.439V159.722Z" fill="#FDAEB3"/>
</g>
<path d="M377.228 188.484C377.228 188.484 374.514 185.322 377.057 183.313C377.057 183.313 378.916 182.181 380.433 182.288C380.433 182.288 378.296 185.877 378.98 186.241C379.664 186.604 381.074 182.074 381.074 182.074C381.074 182.074 385.304 181.668 386.65 182.309C386.65 182.309 383.04 185.258 383.809 185.429C384.578 185.6 388.467 182.715 388.467 182.715C388.467 182.715 392.398 183.377 392.184 185.77C391.971 188.164 390.625 188.911 390.026 188.847C389.428 188.783 385.945 187.458 385.881 187.95C385.796 188.441 387.911 190.022 389.364 190.108C389.364 190.108 386.586 193.163 384.749 192.287C382.911 191.411 382.74 190.001 381.608 189.488C380.454 188.954 379.471 188.975 379.963 189.51C380.433 190.044 382.505 190.557 383.168 191.732C383.83 192.886 384.407 193.676 382.505 193.398C380.604 193.121 377.506 191.71 377.377 190.129C377.228 188.484 377.228 188.484 377.228 188.484Z" fill="#FFCBA9"/>
<path d="M390.24 185.856C390.24 185.856 379.578 185.45 377.206 188.505C377.206 188.505 376.694 190.065 375.091 191.496L374.835 192.18C374.835 192.18 376.694 190.236 377.356 190.107C377.356 190.086 376.33 186.304 390.24 185.856Z" fill="#FFCBA9"/>
<path d="M375.091 191.475C375.091 191.475 372.805 193.163 372.634 196.197L373.04 196.24C373.04 196.24 373.766 193.12 375.091 191.881C376.437 190.663 375.091 191.475 375.091 191.475Z" fill="#FFCBA9"/>
<path d="M367.762 184.531C367.762 184.531 372.078 182.117 370.049 178.848C370.049 178.848 368.446 176.839 366.715 176.326C366.715 176.326 367.634 181.198 366.715 181.326C365.797 181.433 366.074 175.814 366.074 175.814C366.074 175.814 361.545 173.634 359.75 173.805C359.75 173.805 362.57 178.57 361.652 178.463C360.733 178.356 357.571 173.527 357.571 173.527C357.571 173.527 352.913 172.673 352.165 175.429C351.417 178.185 352.635 179.553 353.319 179.745C354.002 179.916 358.425 179.852 358.318 180.429C358.212 181.006 355.22 181.925 353.554 181.412C353.554 181.412 355.391 185.941 357.806 185.728C360.22 185.493 360.968 183.997 362.464 183.89C363.959 183.783 365.049 184.168 364.301 184.574C363.553 184.98 361.032 184.702 359.814 185.728C358.596 186.753 357.635 187.394 359.878 187.843C362.122 188.292 366.139 188.014 366.929 186.283C367.762 184.531 367.762 184.531 367.762 184.531Z" fill="#FFCBA9"/>
<path d="M354.323 176.262C354.323 176.262 366.374 180.172 367.762 184.531C367.762 184.531 367.698 186.475 368.916 188.719V189.574C368.916 189.574 367.655 186.646 366.972 186.24C366.95 186.24 369.643 182.459 354.323 176.262Z" fill="#FFCBA9"/>
<path d="M368.895 188.719C368.895 188.719 370.754 191.539 369.685 194.979L369.215 194.851C369.215 194.851 369.685 191.069 368.703 189.168C367.741 187.245 368.895 188.719 368.895 188.719Z" fill="#FFCBA9"/>
<path d="M374.6 181.198C374.6 181.198 368.916 178.014 371.566 173.698C371.566 173.698 373.681 171.049 375.946 170.365C375.946 170.365 374.728 176.796 375.946 176.946C377.164 177.095 376.779 169.681 376.779 169.681C376.779 169.681 382.762 166.797 385.112 167.032C385.112 167.032 381.394 173.314 382.612 173.164C383.83 173.014 387.975 166.647 387.975 166.647C387.975 166.647 394.107 165.515 395.09 169.147C396.073 172.779 394.492 174.596 393.573 174.831C392.654 175.066 386.843 174.98 386.992 175.749C387.142 176.497 391.073 177.715 393.274 177.031C393.274 177.031 390.86 183.014 387.676 182.715C384.492 182.416 383.51 180.45 381.544 180.3C379.578 180.151 378.147 180.685 379.129 181.219C380.112 181.753 383.446 181.39 385.027 182.736C386.608 184.082 387.911 184.916 384.941 185.535C381.971 186.155 376.694 185.77 375.625 183.484C374.6 181.198 374.6 181.198 374.6 181.198Z" fill="#F79E61"/>
<path d="M392.313 170.301C392.313 170.301 376.416 175.45 374.6 181.198C374.6 181.198 374.685 183.762 373.083 186.732V187.864C373.083 187.864 374.749 183.997 375.647 183.484C375.668 183.463 372.1 178.463 392.313 170.301Z" fill="#F79E61"/>
<path d="M373.083 186.711C373.083 186.711 370.626 190.428 372.036 194.958L372.677 194.787C372.677 194.787 372.057 189.787 373.339 187.287C374.621 184.788 373.083 186.711 373.083 186.711Z" fill="#F79E61"/>
<path d="M374.407 204.787C380.54 204.787 385.518 199.808 385.518 193.676H363.276C363.297 199.83 368.275 204.787 374.407 204.787Z" fill="#A2A4B9"/>
<path d="M385.689 205.364H363.147C363.147 204.616 363.767 203.996 364.515 203.996H384.322C385.069 203.996 385.689 204.594 385.689 205.364Z" fill="#A2A4B9"/>
<path d="M385.796 193.676H362.934V194.018H385.796V193.676Z" fill="#F79E61"/>
<path d="M150.597 81.6735H118.547L118.505 81.6521L80.0661 43.2137H29V43H80.1516L118.633 81.4598H150.597V81.6735Z" fill="#6980E2"/>
<path d="M149 82.047C149 81.4701 149.47 81 150.047 81C150.624 81 151.094 81.4701 151.094 82.047C151.094 82.6239 150.624 83.0939 150.047 83.0939C149.47 83.0939 149 82.6452 149 82.047Z" fill="#6980E2"/>
<path d="M28 43.047C28 42.4701 28.4701 42 29.047 42C29.6239 42 30.0939 42.4701 30.0939 43.047C30.0939 43.6239 29.6239 44.0939 29.047 44.0939C28.4701 44.0939 28 43.6239 28 43.047Z" fill="#6980E2"/>
<path d="M389.067 75.2424H365.008C363.897 75.2424 363 74.345 363 73.2339V50.0084C363 48.8974 363.897 48 365.008 48H389.067C390.178 48 391.076 48.8974 391.076 50.0084V73.2339C391.076 74.345 390.178 75.2424 389.067 75.2424Z" fill="#8C9DF4"/>
<path d="M388.042 74.0673H366.055C365.051 74.0673 364.218 73.234 364.218 72.2298V51.0128C364.218 50.0086 365.051 49.1753 366.055 49.1753H388.042C389.046 49.1753 389.879 50.0086 389.879 51.0128V72.2298C389.858 73.234 389.046 74.0673 388.042 74.0673Z" fill="#CDE0FB"/>
<path d="M376.461 51.675C376.461 51.3545 376.717 51.0981 377.038 51.0981C377.358 51.0981 377.615 51.3545 377.615 51.675C377.615 51.9955 377.358 52.2519 377.038 52.2519C376.717 52.2519 376.461 51.9955 376.461 51.675Z" fill="#8C9DF4"/>
<path d="M381.162 52.4871C381.311 52.2093 381.674 52.1025 381.952 52.2521C382.23 52.4016 382.337 52.7649 382.187 53.0426C382.038 53.3204 381.674 53.4272 381.397 53.2776C381.097 53.1281 380.991 52.7649 381.162 52.4871Z" fill="#8C9DF4"/>
<path d="M385.179 55.6919C385.456 55.521 385.798 55.5851 385.99 55.8629C386.161 56.1406 386.097 56.4825 385.82 56.6748C385.542 56.8457 385.2 56.7816 385.008 56.5039C384.837 56.2261 384.901 55.8629 385.179 55.6919Z" fill="#8C9DF4"/>
<path d="M387.166 60.6277C387.486 60.6277 387.742 60.8841 387.742 61.2046C387.742 61.5251 387.486 61.7815 387.166 61.7815C386.845 61.7815 386.589 61.5251 386.589 61.2046C386.589 60.8841 386.845 60.6277 387.166 60.6277Z" fill="#8C9DF4"/>
<path d="M386.14 66.3752C386.375 66.6103 386.375 66.9735 386.14 67.1872C385.905 67.4222 385.542 67.4222 385.328 67.1872C385.093 66.9521 385.093 66.5889 385.328 66.3752C385.563 66.1402 385.926 66.1402 386.14 66.3752Z" fill="#8C9DF4"/>
<path d="M382.508 70.0289C382.743 70.2639 382.743 70.6272 382.508 70.8408C382.273 71.0545 381.909 71.0759 381.674 70.8408C381.439 70.6058 381.439 70.2426 381.674 70.0289C381.909 69.8152 382.273 69.8152 382.508 70.0289Z" fill="#8C9DF4"/>
<path d="M376.461 71.9092C376.461 71.5887 376.717 71.3323 377.038 71.3323C377.358 71.3323 377.615 71.5887 377.615 71.9092C377.615 72.2297 377.358 72.4861 377.038 72.4861C376.717 72.5074 376.461 72.251 376.461 71.9092Z" fill="#8C9DF4"/>
<path d="M372.914 52.4871C372.765 52.2093 372.401 52.1025 372.124 52.2521C371.846 52.4016 371.739 52.7649 371.889 53.0426C372.038 53.3204 372.401 53.4272 372.679 53.2776C372.978 53.1281 373.064 52.7649 372.914 52.4871Z" fill="#8C9DF4"/>
<path d="M368.897 55.6919C368.619 55.521 368.278 55.5851 368.085 55.8629C367.914 56.1406 367.978 56.4825 368.256 56.6748C368.534 56.8457 368.876 56.7816 369.068 56.5039C369.239 56.2261 369.154 55.8629 368.897 55.6919Z" fill="#8C9DF4"/>
<path d="M366.91 60.6277C366.59 60.6277 366.333 60.8841 366.333 61.2046C366.333 61.5251 366.59 61.7815 366.91 61.7815C367.231 61.7815 367.487 61.5251 367.487 61.2046C367.487 60.8841 367.231 60.6277 366.91 60.6277Z" fill="#8C9DF4"/>
<path d="M367.914 66.3752C367.679 66.6103 367.679 66.9735 367.914 67.1872C368.149 67.4222 368.513 67.4222 368.748 67.1872C368.983 66.9521 368.983 66.5889 368.748 66.3752C368.513 66.1402 368.149 66.1402 367.914 66.3752Z" fill="#8C9DF4"/>
<path d="M371.568 70.0289C371.333 70.2639 371.333 70.6272 371.568 70.8408C371.803 71.0759 372.166 71.0759 372.401 70.8408C372.636 70.6058 372.636 70.2426 372.401 70.0289C372.166 69.8152 371.803 69.8152 371.568 70.0289Z" fill="#8C9DF4"/>
<path d="M376.888 61.2046C376.888 60.8841 377.145 60.6277 377.465 60.6277C377.786 60.6277 378.042 60.8841 378.042 61.2046C378.042 61.5251 377.786 61.7815 377.465 61.7815C377.145 61.7815 376.888 61.5465 376.888 61.2046Z" fill="#8C9DF4"/>
<path d="M377.529 53.9402H377.38V61.2048H377.529V53.9402Z" fill="#8C9DF4"/>
<path d="M381.112 58.0189L377.263 61.0403L377.554 61.41L381.402 58.3886L381.112 58.0189Z" fill="#8C9DF4"/>
<path d="M307.78 148.255C307.78 148.255 308.485 151.396 308.293 152.272C308.101 153.127 305.879 154.494 305.067 154.259C304.233 154.003 304.96 149.687 306.37 148.982C307.78 148.276 307.78 148.255 307.78 148.255Z" fill="#FFB27D"/>
<path d="M289.32 119.239C288.914 118.47 298.08 115.671 298.229 123.32C298.229 123.32 315.387 122.893 307.182 113.342C304.34 110.03 304.639 107.295 304.725 104.753C304.81 102.21 302.951 94.796 296.606 95.5438C296.606 95.5438 294.939 94.8601 292.866 95.9498C288.166 98.3855 277.589 122.06 289.32 119.239Z" fill="#163560"/>
<path d="M301.883 113.791C301.883 113.791 305.045 114.517 305.985 117.423C306.926 120.329 308.079 130.777 308.186 135.414C308.272 139.537 308.293 149.494 308.293 149.494C308.293 149.494 306.968 150.157 305.067 149.494L301.071 129.089L301.883 113.791Z" fill="#FFE6D6"/>
<path d="M305.024 143.191C305.024 143.191 304.34 131.824 304.917 126.248C305.387 121.782 299.789 134.837 300.152 137.209C300.537 139.58 305.024 143.191 305.024 143.191Z" fill="#D0996B"/>
<path d="M277.589 195.347C277.589 195.347 275.666 197.099 276.051 198.338C276.435 199.578 278.166 200.411 278.401 201.949C278.636 203.466 279.576 204.3 280.41 204.3C281.264 204.3 284.427 204.3 284.427 204.3C284.427 204.3 285.046 203.231 283.551 202.911C282.055 202.59 281.478 200.795 281.585 199.129C281.67 197.462 281.435 195.262 281.435 195.262L278.252 194.514L277.589 195.347Z" fill="#233862"/>
<path d="M293.849 196.095C293.849 196.095 293.165 203.531 293.999 203.937L304.789 203.915C304.789 203.915 304.789 202.676 303.058 202.398C301.327 202.12 298.272 201.116 297.759 198.851C297.268 196.586 293.849 196.095 293.849 196.095Z" fill="#1B3154"/>
<path d="M285.538 122.338C285.538 122.338 285.367 124.602 285.538 127.337C285.645 129.132 287.461 131.568 287.738 132.166C288.379 133.662 289.127 133.918 289.127 133.918L294.789 135.307L296.776 135.799L303.058 133.918C303.058 133.918 305.921 125.927 304.768 121.419C303.614 116.91 301.862 113.791 301.862 113.791C301.862 113.791 297.61 112.765 290.046 113.364L285.538 122.338Z" fill="#F79E61"/>
<path d="M287.204 128.064C287.311 129.859 287.482 131.546 287.738 132.145C288.379 133.64 289.127 133.897 289.127 133.897L294.789 135.286L297.247 134.559C297.247 134.559 289.02 133.32 289.939 126.248L287.204 128.064Z" fill="#F2CCAA"/>
<path d="M302.674 135.115C302.674 135.115 305.793 144.815 305.985 148.106C306.178 151.396 300.024 194.984 299.789 196.501C299.554 197.932 297.781 198.851 297.781 198.851C297.781 198.851 296.969 199.343 295.794 199.001C294.17 198.552 293.657 197.997 293.657 197.997C293.657 197.997 291.242 166.93 292.738 155.819C294.234 144.708 294.255 135.115 294.255 135.115H302.674Z" fill="#ED7D2B"/>
<path d="M289.49 134.816C289.49 134.816 284.747 141.183 284.298 145.499C283.85 149.815 283.593 164.943 282.653 169.13C281.713 173.34 278.252 181.416 278.252 194.514C278.252 194.514 278.615 195.262 279.726 195.668C280.089 195.796 280.559 195.924 281.029 196.031C281.948 196.245 282.888 195.796 283.315 194.941C285.666 190.219 293.123 175.006 293.507 171.844C293.785 169.6 296.135 154.815 301.285 146.14C302.524 144.046 300.537 135.777 300.537 135.777L289.49 134.816Z" fill="#F99746"/>
<path d="M303.165 133.619C303.165 133.619 301.904 134.602 299.426 134.666C296.456 134.73 289.106 133.918 289.106 133.918C289.106 133.918 288.785 134.837 288.785 135.798C288.785 135.798 297.759 138.063 302.951 136.119C302.994 136.097 303.656 134.837 303.165 133.619Z" fill="#233862"/>
<path d="M298.785 135.67C298.785 134.816 299.383 134.132 300.131 134.132C300.879 134.132 301.477 134.816 301.477 135.67C301.477 136.525 300.879 137.209 300.131 137.209C299.405 137.209 298.785 136.525 298.785 135.67ZM299.234 135.67C299.234 136.269 299.64 136.76 300.131 136.76C300.622 136.76 301.028 136.269 301.028 135.67C301.028 135.072 300.622 134.581 300.131 134.581C299.64 134.581 299.234 135.072 299.234 135.67Z" fill="white"/>
<path d="M279.433 135.346L288.635 143.358L299.593 130.773L290.392 122.761L279.433 135.346Z" fill="#163560"/>
<path d="M291.2 135.393C291.2 135.393 294.789 135.713 294.789 136.504C294.789 137.294 293.657 138.704 293.123 138.704C291.905 138.704 290.58 136.888 290.58 136.888L291.2 135.393Z" fill="#FFB27D"/>
<path d="M290.067 113.363C290.067 113.363 285.559 113.684 283.85 117.872C282.119 122.059 278.85 129.11 278.85 130.286C278.85 131.461 280.687 135.114 290.495 137.208C290.495 137.208 291.52 136.14 291.456 135.285C291.456 135.285 285.324 130.029 285.345 129.41C285.367 128.256 286.35 126.717 291.734 121.333C293.187 119.88 290.067 113.363 290.067 113.363Z" fill="#FFE6D6"/>
<path d="M291.734 135.478C291.734 135.478 292.546 135.286 293.08 135.286C293.614 135.286 294.255 135.179 294.255 135.35C294.255 135.692 293.187 135.798 293.187 135.948C293.187 136.119 291.734 135.478 291.734 135.478Z" fill="#FFB27D"/>
<path d="M292.653 113.299C292.995 112.68 293.956 109.475 293.935 107.808L294.212 107.851L298.999 108.663C298.999 108.663 298.892 109.945 298.892 111.141V111.163C298.892 112.21 298.913 112.722 298.699 114.004C298.614 114.581 296.841 114.795 294.832 114.496C294.127 114.41 292.439 113.705 292.653 113.299Z" fill="#FFB27D"/>
<path d="M299.02 108.663C299.02 108.663 298.913 109.945 298.913 111.141C296.242 111.077 294.811 109.005 294.234 107.851L299.02 108.663Z" fill="#E8945B"/>
<path d="M299.896 110.159C299.896 110.159 293.55 110.265 293.55 106.313C293.55 102.36 292.717 99.7104 296.776 99.4967C300.815 99.2617 301.605 100.779 301.926 102.082C302.246 103.385 301.563 110.03 299.896 110.159Z" fill="#FFB27D"/>
<path d="M299.661 99.3898C299.661 99.3898 297.93 104.026 295.259 104.71C292.589 105.394 291.435 104.689 291.435 104.689C291.435 104.689 293.486 103.065 293.892 100.245C293.913 100.223 298.358 97.1891 299.661 99.3898Z" fill="#163560"/>
<path d="M299.234 99.7531C299.234 99.7531 300.516 100.244 301.05 101.163C301.563 102.082 302.011 103.3 301.904 104.796C301.904 104.796 303.208 101.655 301.734 99.8599C300.195 97.9796 299.234 99.7531 299.234 99.7531Z" fill="#163560"/>
<path d="M280.004 100.48H278.764V93.3645H285.623V94.6037H280.004V100.48Z" fill="#1C468A"/>
<path d="M312.374 100.351H311.135V94.7319H305.259V93.4927H312.374V100.351Z" fill="#1C468A"/>
<path d="M312.374 123.149H305.494V121.91H311.135V116.056H312.374V123.149Z" fill="#1C468A"/>
<path d="M285.858 123.043H278.764V116.184H280.004V121.803H285.858V123.043Z" fill="#1C468A"/>
<path d="M343.591 88.1296H299.96C297.909 88.1296 296.264 86.463 296.264 84.4332V68.0878C296.264 66.0366 297.93 64.3914 299.96 64.3914H343.591C345.642 64.3914 347.287 66.0579 347.287 68.0878V84.4332C347.308 86.4844 345.642 88.1296 343.591 88.1296Z" fill="#F0807C"/>
<path d="M315.878 75.8866C315.878 77.5745 315.365 79.1343 314.468 80.4163C314.105 80.9718 313.656 81.4633 313.165 81.912C312.887 82.1683 312.566 82.4034 312.246 82.617C311.968 82.8093 311.669 82.9589 311.37 83.1298C310.301 83.6426 309.126 83.9418 307.866 83.9418C307.802 83.9418 307.737 83.9418 307.673 83.9418C306.99 83.9204 306.327 83.8136 305.686 83.6426C305.579 83.5999 305.451 83.5786 305.344 83.5358C304.639 83.3008 303.977 82.9803 303.379 82.5743C302.93 82.2752 302.503 81.912 302.118 81.5274C301.605 81.0146 301.178 80.4163 300.815 79.7753C300.174 78.6215 299.832 77.3181 299.832 75.908C299.832 71.4637 303.421 67.8741 307.866 67.8741C312.289 67.8528 315.878 71.4423 315.878 75.8866Z" fill="#E1EFFF"/>
<path d="M313.207 75.4592C313.271 73.8994 312.139 69.3911 308.272 69.8612C308.272 69.8612 307.267 69.4552 305.985 70.0962C304.362 70.9295 301.605 75.8865 300.793 79.7539C300.793 79.7539 300.964 80.1171 301.285 80.6085C301.563 81.0359 302.097 81.5059 302.097 81.5059C302.481 81.8905 302.887 82.2538 303.357 82.5529C303.956 82.9588 304.618 83.2793 305.323 83.5144C305.43 83.5571 305.558 83.5785 305.665 83.6212C306.306 83.5785 307.032 83.6212 307.652 83.9203C307.716 83.9203 307.78 83.9203 307.844 83.9203C309.105 83.9203 310.301 83.6212 311.348 83.1084C311.648 82.9589 311.947 82.7879 312.224 82.5956C312.545 82.382 312.865 82.1469 313.143 81.8905C313.635 81.4418 314.083 80.9504 314.447 80.3949C312.994 78.5146 313.165 76.9335 313.207 75.4592Z" fill="#163560"/>
<path d="M313.165 81.8904C312.887 82.1468 312.566 82.3819 312.246 82.5955C311.968 82.7878 311.669 82.9374 311.37 83.1083L311.477 80.9717C311.477 80.9717 312.395 81.1853 313.165 81.8904Z" fill="#9FC1F4"/>
<path d="M312.246 82.5955C311.968 82.7878 311.669 82.9374 311.37 83.1083C310.301 83.6211 309.126 83.9203 307.866 83.9203C307.802 83.9203 307.737 83.9203 307.673 83.9203C306.99 83.8989 306.327 83.792 305.686 83.6211C305.579 83.5784 305.451 83.557 305.344 83.5143C304.639 83.2793 303.977 82.9588 303.379 82.5528L304.297 80.7153C304.853 80.6725 305.387 80.6298 305.9 80.6298C307.438 80.5657 308.699 80.6298 309.618 80.7153C310.836 80.8221 311.498 80.993 311.498 80.993C311.498 80.993 311.819 81.5699 312.246 82.5955Z" fill="#9FC1F4"/>
<path d="M303.357 82.5316C302.909 82.2325 302.481 81.8693 302.097 81.4847C303.165 80.7796 304.276 80.6941 304.276 80.6941C304.276 80.6941 304.981 82.147 305.323 83.4931C304.618 83.2795 303.956 82.9376 303.357 82.5316Z" fill="#9FC1F4"/>
<path d="M305.857 80.6725C306.071 80.2879 306.648 78.3436 306.648 77.3394L306.819 77.3607L309.725 77.8521C309.725 77.8521 309.661 78.6213 309.661 79.3692V79.3905C309.661 80.0315 309.661 80.3307 309.532 81.1212C309.468 81.4845 308.4 81.6127 307.182 81.4204C306.733 81.3349 305.708 80.9076 305.857 80.6725Z" fill="#FFB27D"/>
<path d="M309.725 77.8308C309.725 77.8308 309.661 78.6 309.661 79.3478C308.037 79.3051 307.161 78.0445 306.819 77.3394L309.725 77.8308Z" fill="#E8945B"/>
<path d="M310.259 78.7495C310.259 78.7495 306.391 78.8136 306.391 76.3992C306.391 73.9847 305.879 72.3823 308.357 72.2327C310.814 72.0831 311.306 73.0019 311.498 73.8138C311.712 74.6257 311.263 78.664 310.259 78.7495Z" fill="#FFB27D"/>
<path d="M310.131 72.1899C310.131 72.1899 309.084 75.0102 307.46 75.4376C305.836 75.8649 305.131 75.4162 305.131 75.4162C305.131 75.4162 306.37 74.4334 306.626 72.7027C306.626 72.7027 309.319 70.8438 310.131 72.1899Z" fill="#163560"/>
<path d="M309.853 72.4251C309.853 72.4251 310.643 72.7242 310.964 73.2798C311.284 73.8353 311.541 74.5831 311.477 75.4805C311.477 75.4805 312.267 73.5575 311.37 72.4892C310.451 71.3354 309.853 72.4251 309.853 72.4251Z" fill="#163560"/>
<path d="M329.617 68.6006H319.51V69.8185H329.617V68.6006Z" fill="#E1EFFF"/>
<path d="M337.159 78.9419H319.51V79.6683H337.159V78.9419Z" fill="#E1EFFF"/>
<path d="M330.301 76.2712H319.51V76.9977H330.301V76.2712Z" fill="#E1EFFF"/>
<path d="M343.334 76.2712H332.544V76.9977H343.334V76.2712Z" fill="#E1EFFF"/>
<path d="M330.301 81.6128H319.51V82.3392H330.301V81.6128Z" fill="#E1EFFF"/>
<path d="M343.334 81.6128H332.544V82.3392H343.334V81.6128Z" fill="#E1EFFF"/>
<path d="M338.698 68.6006H331.561V69.8185H338.698V68.6006Z" fill="#E1EFFF"/>
<defs>
<linearGradient id="paint0_linear_554_830" x1="103.982" y1="229.222" x2="420.702" y2="109.373" gradientUnits="userSpaceOnUse">
<stop stop-color="#F0807C"/>
<stop offset="1" stop-color="#F7A15E"/>
</linearGradient>
<linearGradient id="paint1_linear_554_830" x1="112.916" y1="240.929" x2="429.637" y2="121.081" gradientUnits="userSpaceOnUse">
<stop stop-color="#F7A05F"/>
<stop offset="1" stop-color="#F0817B"/>
</linearGradient>
</defs>
</svg>
