<svg width="413" height="308" viewBox="0 0 413 308" fill="none" xmlns="http://www.w3.org/2000/svg">
<path opacity="0.2" d="M345.065 118.984C368.644 80.7173 401.087 107.79 412.538 72L412.538 308H79.1802C103.828 257.654 167.714 223.736 206.885 223.736C269.582 223.736 297.48 261.639 332.896 217.42C360.162 183.376 326.272 149.486 345.065 118.984Z" fill="url(#paint0_linear_554_831)"/>
<path d="M298.851 231.901C362.866 231.901 400.933 171.874 412.384 136.083V307.692L0 307.692C21.8747 293.057 32.2664 303.85 63.1593 293.057C98.436 280.734 138.642 315.548 187.783 287.358C228.401 264.056 211.353 231.901 298.851 231.901Z" fill="url(#paint1_linear_554_831)"/>
<path d="M183.228 214.266C183.228 217.72 180.761 220.516 177.471 221.119C180.761 221.668 183.228 224.519 183.228 227.973C183.228 224.519 185.695 221.668 188.985 221.119C185.695 220.571 183.228 217.72 183.228 214.266Z" fill="#FDAEB3"/>
<path d="M273.474 202.259C273.474 204.452 271.884 206.261 269.801 206.59C271.884 206.974 273.474 208.783 273.474 210.922C273.474 208.728 275.064 206.919 277.148 206.59C275.064 206.261 273.474 204.452 273.474 202.259Z" fill="#FDAEB3"/>
<path d="M300.669 210.428C300.669 212.237 299.353 213.772 297.598 214.101C299.353 214.43 300.669 215.911 300.669 217.775C300.669 215.966 301.985 214.43 303.739 214.101C302.039 213.772 300.669 212.237 300.669 210.428Z" fill="#FDAEB3"/>
<path d="M305.822 240.419C305.822 240.912 305.384 241.351 304.89 241.351C304.397 241.351 303.958 240.912 303.958 240.419C303.958 239.925 304.397 239.487 304.89 239.487C305.384 239.432 305.822 239.87 305.822 240.419Z" fill="#FDAEB3"/>
<path d="M256.752 227.973C256.752 228.96 255.929 229.782 254.943 229.782C253.956 229.782 253.133 228.96 253.133 227.973C253.133 226.986 253.956 226.164 254.943 226.164C255.929 226.164 256.752 226.986 256.752 227.973Z" fill="#FDAEB3"/>
<path d="M306.645 188.442C307.644 188.442 308.454 187.632 308.454 186.633C308.454 185.634 307.644 184.823 306.645 184.823C305.646 184.823 304.836 185.634 304.836 186.633C304.836 187.632 305.646 188.442 306.645 188.442Z" fill="#FDAEB3"/>
<path d="M234.931 246.011C234.931 246.943 234.163 247.711 233.231 247.711C232.299 247.711 231.531 246.943 231.531 246.011C231.531 245.079 232.299 244.311 233.231 244.311C234.163 244.257 234.931 245.024 234.931 246.011Z" fill="#FDAEB3"/>
<path d="M320.9 104.721C320.9 117.002 318.817 128.954 314.759 140.139C310.921 150.885 305.274 160.974 298.037 170.02C295.625 173.036 292.993 175.941 290.197 178.738C284.714 184.22 278.628 189.1 272.104 193.212C271.884 193.377 271.61 193.541 271.336 193.651C269.198 194.967 266.895 196.337 264.537 197.543C264.044 197.818 263.496 198.092 263.002 198.366C248.363 205.713 232.628 209.441 216.125 209.441C201.376 209.441 187.121 206.426 173.743 200.504C172.482 199.956 171.331 199.408 170.234 198.859C169.466 198.476 168.699 198.092 167.986 197.708C165.793 196.557 163.545 195.296 161.297 193.925C154.115 189.484 147.481 184.22 141.559 178.189C122.15 158.506 111.459 132.408 111.459 104.721C111.459 46.9872 158.446 0 216.18 0C273.913 0 320.9 46.9872 320.9 104.721Z" fill="#FFB27D"/>
<path d="M316.075 104.721C316.075 132.299 304.89 157.3 286.852 175.338C281.644 180.547 275.887 185.207 269.636 189.155C269.417 189.32 269.198 189.429 268.978 189.594C266.84 190.91 264.702 192.171 262.454 193.322C261.96 193.596 261.467 193.815 260.974 194.09C247.541 200.833 232.299 204.671 216.234 204.671C201.815 204.671 188.163 201.601 175.772 196.118C174.675 195.625 173.524 195.131 172.427 194.583C171.714 194.199 170.947 193.87 170.234 193.486C168.041 192.335 165.903 191.129 163.819 189.868C156.966 185.646 150.606 180.602 145.013 174.845C127.249 156.807 116.284 132.08 116.284 104.721C116.284 49.5094 161.023 4.82495 216.234 4.82495C271.336 4.82495 316.075 49.5094 316.075 104.721Z" fill="#FFEEE4"/>
<path d="M286.852 175.338C281.644 180.547 275.887 185.207 269.636 189.155C269.417 189.319 269.198 189.429 268.978 189.593C266.84 190.909 264.702 192.17 262.454 193.322C259.603 180.437 255.82 163.715 255.326 162.563C251.763 153.572 275.229 152.53 275.229 152.53C275.229 152.53 279.779 160.316 284.549 170.294C285.262 171.939 286.03 173.639 286.852 175.338Z" fill="#F4CABA"/>
<path d="M184.544 154.01C183.776 155.436 174.072 182.466 170.179 193.486C167.986 192.335 165.848 191.129 163.764 189.868C156.911 185.646 150.551 180.602 144.959 174.845C145.781 173.2 146.658 171.5 147.59 169.801C155.376 155.655 166.067 141.619 166.067 141.619C166.067 141.619 189.204 145.512 184.544 154.01Z" fill="#F4CABA"/>
<path d="M284.44 170.294C281.15 171.445 272.761 174.351 266.511 176.928C267.224 180.931 268.046 185.152 268.869 189.539C266.73 190.854 264.592 192.115 262.344 193.267C261.851 193.541 261.357 193.76 260.864 194.034C247.431 200.778 232.189 204.616 216.125 204.616C201.705 204.616 188.053 201.546 175.662 196.063C174.565 195.57 173.414 195.076 172.317 194.528C171.605 194.144 170.837 193.815 170.124 193.431C167.931 192.28 165.793 191.074 163.71 189.813C164.203 187.126 164.751 184.385 165.3 181.698C159.378 178.573 151.154 172.487 147.535 169.746C146.384 168.869 145.726 168.375 145.726 168.375C161.462 141.071 178.458 105.872 223.91 108.668C257.19 110.751 271.665 136.191 285.81 169.801C285.92 169.801 285.372 169.965 284.44 170.294Z" fill="#F79E61"/>
<path d="M216.783 115.083C222.566 115.083 227.255 112.996 227.255 110.423C227.255 107.849 222.566 105.762 216.783 105.762C210.999 105.762 206.311 107.849 206.311 110.423C206.311 112.996 210.999 115.083 216.783 115.083Z" fill="#FDAEB3"/>
<path d="M236.959 54.6632C239.975 58.8301 239.81 66.5608 234.711 75.0042C229.612 83.3928 199.786 77.7456 199.786 77.7456C199.786 77.7456 188.437 58.0077 200.499 52.6894C200.499 52.6894 200.115 39.147 213.493 41.0112C226.816 42.8205 232.902 49.0708 236.959 54.6632Z" fill="#432D29"/>
<path d="M224.02 108.833C224.02 108.833 221.333 112.835 216.728 112.835C212.067 112.835 208.778 108.942 208.778 108.942C208.778 108.942 208.942 104.775 209.107 101.321C209.216 99.0185 209.271 96.9899 209.271 96.6609H223.91L223.965 102.637L224.02 108.833Z" fill="#EDB29F"/>
<path opacity="0.1" d="M223.965 102.637C221.662 104.556 219.14 105.817 217.221 105.817C214.864 105.817 211.738 104.008 209.052 101.376C209.162 99.0732 209.216 97.0445 209.216 96.7156H223.855L223.965 102.637Z" fill="#231F20"/>
<path d="M240.468 73.6881C238.878 70.6178 235.972 71.5499 234.382 72.4271C234.163 66.1768 233.615 60.9133 233.615 60.9133C232.573 53.5116 201.87 53.5116 200.828 60.9133C200.828 60.9133 200.334 66.1768 200.06 72.4271C198.47 71.6047 195.564 70.6178 194.029 73.743C191.946 77.7454 196.167 83.6119 200.115 84.215C200.334 87.9433 200.883 91.0685 201.924 92.3843C205.543 97.0995 212.616 102.637 217.221 102.637C221.827 102.637 228.899 97.1543 232.518 92.3843C233.56 91.0685 234.108 87.9433 234.327 84.215C238.33 83.5571 242.552 77.6906 240.468 73.6881Z" fill="#F4CABA"/>
<path d="M217.715 85.7501C216.289 85.7501 215.302 84.3794 215.247 84.3245C215.028 84.0504 215.138 83.6666 215.357 83.5021C215.631 83.2828 216.015 83.3376 216.18 83.6118C216.399 83.8859 217.002 84.5439 217.715 84.5439C218.208 84.5439 218.702 84.1601 219.14 83.3925C219.305 83.1183 219.689 83.0087 219.963 83.228C220.237 83.3925 220.346 83.7763 220.127 84.0504C219.414 85.147 218.592 85.7501 217.715 85.7501C217.77 85.7501 217.77 85.7501 217.715 85.7501Z" fill="#432D29"/>
<path d="M211.848 92.823C211.848 92.823 219.25 91.891 222.704 92.8779C222.704 92.8779 217.166 98.9089 211.848 92.823Z" fill="white"/>
<path d="M229.338 70.8919C229.338 70.8919 222.814 71.4402 222.046 70.8919C221.333 70.3436 223.143 68.6988 226.103 69.0826C229.119 69.4116 230.051 70.7822 229.338 70.8919Z" fill="#432D29"/>
<path d="M227.638 74.5103C227.638 75.552 226.926 76.4292 225.994 76.4292C225.116 76.4292 224.349 75.552 224.349 74.5103C224.349 73.4685 225.062 72.5913 225.994 72.5913C226.268 72.5913 226.487 72.6461 226.706 72.8106C226.377 72.9203 226.158 73.2492 226.158 73.633C226.158 74.1265 226.487 74.5103 226.871 74.5103C227.145 74.5103 227.419 74.291 227.529 74.0168C227.638 74.1265 227.638 74.291 227.638 74.5103Z" fill="#432D29"/>
<path d="M204.556 70.8919C204.556 70.8919 211.081 71.4402 211.848 70.8919C212.561 70.3436 210.752 68.6988 207.791 69.0826C204.775 69.4116 203.789 70.7822 204.556 70.8919Z" fill="#432D29"/>
<path d="M210.039 74.5103C210.039 75.552 209.326 76.4292 208.394 76.4292C207.517 76.4292 206.749 75.552 206.749 74.5103C206.749 73.4685 207.462 72.5913 208.394 72.5913C208.668 72.5913 208.887 72.6461 209.107 72.8106C208.778 72.9203 208.559 73.2492 208.559 73.633C208.559 74.1265 208.887 74.5103 209.271 74.5103C209.545 74.5103 209.82 74.291 209.929 74.0168C210.039 74.1265 210.039 74.291 210.039 74.5103Z" fill="#432D29"/>
<path opacity="0.1" d="M203.679 63.3258C204.666 63.2709 205.762 63.2161 206.749 62.8323C207.572 62.5582 208.23 61.9551 208.997 61.6261C210.313 61.0778 210.971 61.7358 212.013 62.5582C213.438 63.6547 214.973 64.3126 216.728 64.6964C220.401 65.5189 224.349 65.6833 228.022 65.2995C230.051 65.0802 231.97 64.5868 233.889 63.9837C233.724 62.1195 233.615 60.9133 233.615 60.9133C232.573 53.5116 201.87 53.5116 200.828 60.9133C200.828 60.9133 200.773 61.7906 200.663 63.1613C201.65 63.2709 202.582 63.3806 203.679 63.3258Z" fill="#231F20"/>
<path d="M238.768 78.4032C238.878 78.4032 238.988 78.3483 239.043 78.2387C240.029 75.6618 237.453 74.1266 237.453 74.1266C237.288 74.017 237.124 74.0718 237.069 74.2363C237.014 74.4008 237.014 74.5653 237.178 74.6201C237.288 74.6749 239.317 75.8811 238.494 78.0194C238.439 78.1839 238.494 78.3483 238.659 78.4032C238.714 78.4032 238.768 78.4032 238.768 78.4032Z" fill="#432D29"/>
<path d="M195.345 78.1295C195.235 78.1295 195.126 78.0747 195.071 77.965C194.084 75.3881 196.661 73.8529 196.661 73.8529C196.825 73.7433 196.99 73.7981 197.045 73.9626C197.1 74.1271 197.1 74.2916 196.935 74.3464C196.825 74.4012 194.797 75.6074 195.619 77.7457C195.674 77.9102 195.619 78.0747 195.455 78.1295C195.4 78.1295 195.4 78.1295 195.345 78.1295Z" fill="#432D29"/>
<path opacity="0.1" d="M210.148 80.9802C210.148 82.625 208.833 83.9409 207.188 83.9409C205.543 83.9409 204.227 82.625 204.227 80.9802C204.227 79.3354 205.543 78.0195 207.188 78.0195C208.833 78.0195 210.148 79.3354 210.148 80.9802Z" fill="#513F3C"/>
<path opacity="0.1" d="M231.641 80.9802C231.641 82.625 230.325 83.9409 228.68 83.9409C227.035 83.9409 225.719 82.625 225.719 80.9802C225.719 79.3354 227.035 78.0195 228.68 78.0195C230.325 78.0195 231.641 79.3354 231.641 80.9802Z" fill="#513F3C"/>
<path d="M225.939 51.3188C220.785 50.2222 213.219 52.525 208.284 54.3891C206.749 54.115 204.227 53.9505 201.76 55.2115C197.867 57.2401 195.674 63.1615 200.005 63.0519C202.418 62.997 205.214 60.3653 207.133 58.1174C213.877 60.7491 227.529 65.4643 234.053 63.7646C242.881 61.4619 234.218 53.0733 225.939 51.3188Z" fill="#432D29"/>
<path d="M183.228 49.893H185.97V40.6819H195.181V37.8857H183.228V49.893Z" fill="white"/>
<path d="M185.97 93.426H183.228V105.378H195.181V102.582H185.97V93.426Z" fill="white"/>
<path d="M247.925 102.582H238.714V105.378H250.666V93.426H247.925V102.582Z" fill="white"/>
<path d="M238.714 37.8857V40.6819H247.925V49.893H250.666V37.8857H238.714Z" fill="white"/>
<path d="M232.902 51.5379C233.78 51.5379 234.492 50.826 234.492 49.9479C234.492 49.0698 233.78 48.3579 232.902 48.3579C232.024 48.3579 231.312 49.0698 231.312 49.9479C231.312 50.826 232.024 51.5379 232.902 51.5379Z" fill="white"/>
<path d="M197.538 76.9779C197.538 77.8552 196.825 78.5679 195.948 78.5679C195.071 78.5679 194.358 77.8552 194.358 76.9779C194.358 76.1007 195.071 75.3879 195.948 75.3879C196.825 75.3879 197.538 76.1007 197.538 76.9779Z" fill="white"/>
<path d="M206.804 60.2005C207.682 60.2005 208.394 59.4886 208.394 58.6105C208.394 57.7324 207.682 57.0205 206.804 57.0205C205.926 57.0205 205.214 57.7324 205.214 58.6105C205.214 59.4886 205.926 60.2005 206.804 60.2005Z" fill="white"/>
<path d="M236.082 72.5915C236.082 73.4687 235.369 74.1815 234.492 74.1815C233.615 74.1815 232.902 73.4687 232.902 72.5915C232.902 71.7142 233.615 71.0015 234.492 71.0015C235.369 71.0015 236.082 71.7142 236.082 72.5915Z" fill="white"/>
<path d="M219.305 80.9801C219.305 81.8574 218.592 82.5701 217.715 82.5701C216.837 82.5701 216.125 81.8574 216.125 80.9801C216.125 80.1029 216.837 79.3901 217.715 79.3901C218.592 79.3901 219.305 80.1029 219.305 80.9801Z" fill="white"/>
<path d="M218.373 102.637C218.373 103.514 217.66 104.227 216.783 104.227C215.905 104.227 215.193 103.514 215.193 102.637C215.193 101.76 215.905 101.047 216.783 101.047C217.66 101.047 218.373 101.76 218.373 102.637Z" fill="white"/>
<path d="M234.492 91.1781C234.492 92.0554 233.779 92.7681 232.902 92.7681C232.025 92.7681 231.312 92.0554 231.312 91.1781C231.312 90.3009 232.025 89.5881 232.902 89.5881C233.779 89.5881 234.492 90.3009 234.492 91.1781Z" fill="white"/>
<path d="M217.166 102.637L216.399 102.582L217.989 81.09L206.256 58.9397L232.792 49.5642L233.066 50.3318L207.407 59.4332L218.756 80.9255V81.0352L217.166 102.637Z" fill="white"/>
<path d="M196.074 76.5747L195.924 77.3833L217.378 81.3701L217.529 80.5615L196.074 76.5747Z" fill="white"/>
<path d="M218.629 80.6533L218.161 81.3293L232.898 91.5397L233.366 90.8637L218.629 80.6533Z" fill="white"/>
<path d="M234.301 72.2368L217.532 80.626L217.9 81.3615L234.669 72.9723L234.301 72.2368Z" fill="white"/>
<path d="M200.828 92.4938C200.663 91.6166 201.266 90.7942 202.089 90.6297C202.966 90.4652 203.789 91.0683 203.953 91.8907C204.117 92.768 203.514 93.5904 202.692 93.7549C201.815 93.9193 200.992 93.3162 200.828 92.4938Z" fill="white"/>
<path d="M217.154 80.6739L202.121 91.8813L202.613 92.5407L217.646 81.3332L217.154 80.6739Z" fill="white"/>
<path d="M128.949 266.9C128.949 266.9 127.14 260.431 128.017 259.937C128.894 259.444 131.087 259.17 131.581 259.608C132.074 260.047 132.184 267.01 131.361 267.942C130.594 268.819 129.497 268.6 128.949 266.9Z" fill="#F4CABA"/>
<path opacity="0.2" d="M130.758 265.365C130.1 264.488 129.552 263.556 128.949 262.624C128.675 262.185 128.401 261.692 128.127 261.308C128.017 261.144 127.907 260.979 127.798 260.815C127.798 262.679 128.949 266.9 128.949 266.9C129.497 268.6 130.594 268.874 131.416 267.942C131.581 267.778 131.69 267.394 131.745 266.9C131.416 266.352 131.087 265.859 130.758 265.365Z" fill="white"/>
<path d="M129.059 262.788C128.675 262.733 128.291 262.624 127.852 262.569C127.907 265.53 128.839 266.955 128.839 266.955C129.388 268.765 130.539 269.039 131.416 268.052C131.91 267.503 132.074 264.762 132.019 262.514C131.197 263.008 129.936 262.953 129.059 262.788Z" fill="#C8D9FB"/>
<path d="M122.589 273.644C122.589 273.644 122.534 274.631 123.357 275.015C125.44 276.057 132.458 274.96 132.842 274.302C133.171 273.644 133.061 272.822 133.061 272.822L122.589 273.644Z" fill="#432D29"/>
<path d="M129.497 266.681C129.497 266.681 131.636 266.297 131.745 265.42C131.91 264.543 131.91 264.433 131.964 264.104C132.403 264.323 132.239 266.845 132.513 268.107C132.787 269.313 133.5 272.822 132.897 273.589C132.293 274.412 127.798 273.754 127.798 273.754C127.798 273.754 128.401 272.164 128.73 270.3C129.059 268.49 127.798 267.01 129.497 266.681Z" fill="#4F3F3D"/>
<path d="M130.155 269.093C130.046 268.874 129.881 268.765 129.717 268.655C129.936 267.613 130.265 265.475 129.662 265.146C128.949 264.707 128.73 264.652 127.469 264.872C126.427 265.091 127.194 267.613 127.578 268.655C127.359 268.71 127.249 268.765 127.249 268.765C127.249 268.765 127.633 270.574 126.043 271.177C125.988 271.177 125.933 271.232 125.824 271.232C125.824 271.232 125.824 271.232 125.879 271.232C125.769 271.287 125.604 271.341 125.44 271.341C125.44 271.341 127.359 271.506 128.017 272.493C128.784 273.535 130.703 270.245 130.155 269.093Z" fill="#432D29"/>
<path d="M122.753 274.247C123.905 275.179 127.907 275.399 128.73 274.412C129.552 273.425 128.62 269.916 125.001 270.738C123.466 271.013 121.931 273.589 122.753 274.247Z" fill="#4F3F3D"/>
<path opacity="0.2" d="M125.659 270.903C125.166 270.958 124.782 271.067 124.453 271.232C124.563 271.396 124.672 271.561 124.837 271.725C125.221 271.506 125.714 271.341 126.317 271.396C127.688 271.561 127.743 271.616 127.743 271.616C127.743 271.616 126.811 270.793 125.659 270.903Z" fill="white"/>
<path opacity="0.2" d="M124.014 271.725C123.905 271.89 124.014 272.109 124.179 272.164C124.289 272.219 124.398 272.164 124.508 272.109C124.563 272.054 124.672 271.945 124.782 271.835C124.672 271.67 124.508 271.506 124.398 271.341C124.179 271.451 124.069 271.561 124.014 271.725Z" fill="white"/>
<path d="M168.973 266.9C168.973 266.9 170.782 260.431 169.905 259.937C169.028 259.444 166.835 259.17 166.341 259.608C165.848 260.047 165.738 267.01 166.561 267.942C167.328 268.819 168.425 268.6 168.973 266.9Z" fill="#F4CABA"/>
<path opacity="0.2" d="M167.164 265.365C167.822 264.488 168.37 263.556 168.973 262.624C169.247 262.185 169.521 261.692 169.795 261.308C169.905 261.144 170.015 260.979 170.124 260.815C170.124 262.679 168.973 266.9 168.973 266.9C168.425 268.6 167.328 268.874 166.506 267.942C166.341 267.778 166.232 267.394 166.177 266.9C166.506 266.352 166.835 265.859 167.164 265.365Z" fill="white"/>
<path d="M168.863 262.788C169.247 262.733 169.631 262.624 170.07 262.569C170.015 265.53 169.083 266.955 169.083 266.955C168.534 268.765 167.383 269.039 166.506 268.052C166.012 267.503 165.848 264.762 165.903 262.514C166.67 263.008 167.986 262.953 168.863 262.788Z" fill="#C8D9FB"/>
<path d="M175.278 273.644C175.278 273.644 175.333 274.631 174.511 275.015C172.427 276.057 165.409 274.96 165.026 274.302C164.697 273.644 164.806 272.822 164.806 272.822L175.278 273.644Z" fill="#432D29"/>
<path d="M168.425 266.681C168.425 266.681 166.287 266.297 166.177 265.42C166.012 264.543 166.012 264.433 165.958 264.104C165.519 264.323 165.683 266.845 165.409 268.107C165.135 269.313 164.422 272.822 165.025 273.589C165.629 274.412 170.124 273.754 170.124 273.754C170.124 273.754 169.521 272.164 169.192 270.3C168.809 268.49 170.124 267.01 168.425 266.681Z" fill="#4F3F3D"/>
<path d="M171.989 271.232C172.043 271.232 172.043 271.232 172.043 271.232C171.989 271.232 171.934 271.177 171.824 271.177C170.289 270.574 170.618 268.765 170.618 268.765C170.618 268.765 170.508 268.71 170.289 268.655C170.618 267.668 171.386 265.091 170.399 264.872C169.138 264.598 168.918 264.707 168.206 265.146C167.657 265.475 167.931 267.613 168.151 268.655C167.986 268.765 167.822 268.874 167.712 269.093C167.164 270.245 169.083 273.48 169.796 272.493C170.508 271.506 172.372 271.341 172.372 271.341C172.263 271.287 172.153 271.287 171.989 271.232Z" fill="#432D29"/>
<path d="M175.114 274.247C173.962 275.179 169.96 275.399 169.138 274.412C168.315 273.425 169.247 269.916 172.866 270.738C174.401 271.013 175.936 273.589 175.114 274.247Z" fill="#4F3F3D"/>
<g opacity="0.2">
<path opacity="0.2" d="M172.263 270.903C172.756 270.958 173.14 271.067 173.469 271.232C173.359 271.396 173.25 271.561 173.085 271.725C172.701 271.506 172.208 271.341 171.605 271.396C170.234 271.561 170.179 271.616 170.179 271.616C170.179 271.616 171.057 270.793 172.263 270.903Z" fill="#F2FAFF"/>
<path opacity="0.2" d="M173.908 271.725C174.017 271.89 173.908 272.109 173.743 272.164C173.633 272.219 173.524 272.164 173.414 272.109C173.359 272.054 173.25 271.945 173.14 271.835C173.25 271.67 173.414 271.506 173.524 271.341C173.688 271.451 173.798 271.561 173.908 271.725Z" fill="#F2FAFF"/>
</g>
<path d="M120.012 140.907L126.591 262.514L133.226 261.911L150.003 142.442L120.012 140.907Z" fill="#4F3F3D"/>
<path d="M170.618 140.304L170.947 261.856H165.245L138.599 140.633L170.618 140.304Z" fill="#4F3F3D"/>
<path opacity="0.25" d="M164.148 231.921C163.271 229.673 162.394 227.48 161.681 225.177C160.913 222.764 160.365 220.297 159.817 217.775C158.72 212.676 157.514 207.522 156.637 202.314C155.815 197.324 156.637 192.171 155.157 187.291C154.499 185.043 153.512 182.96 152.744 180.767C151.977 178.628 151.428 176.435 151.099 174.132C150.551 169.801 150.99 165.525 151.757 161.303C152.306 158.178 153.073 154.504 155.211 152.037C157.679 149.186 162.01 150.118 165.355 149.57C167.822 149.131 168.918 148.473 170.618 146.774C170.563 142.826 170.563 140.249 170.563 140.249L138.599 140.633L138.873 141.894L119.957 140.962C119.957 140.962 119.738 141.894 119.409 143.539C119.574 143.868 119.738 144.197 119.957 144.526C121.767 147.377 124.947 149.076 127.907 150.502C129.388 151.269 130.978 151.927 132.403 152.805C133.993 153.737 135.364 154.998 136.57 156.368C139.092 159.274 140.901 162.838 141.998 166.511C143.204 170.569 142.985 174.736 141.943 178.793C140.847 183.069 138.928 187.127 137.612 191.293C136.077 196.063 135.802 201.108 136.186 206.097C136.57 211.141 137.612 216.075 138.544 221.065C138.654 221.558 138.708 222.106 138.818 222.6L145.726 172.981L165.245 261.856C165.3 261.637 165.409 261.418 165.464 261.199C166.341 258.841 167.383 256.429 167.767 253.906C168.151 251.384 168.041 248.807 167.767 246.285C167.273 241.296 165.958 236.581 164.148 231.921Z" fill="#432D29"/>
<path d="M163.655 89.2593C163.655 89.2593 185.586 116.289 177.91 126.926C170.179 137.617 163.655 89.2593 163.655 89.2593Z" fill="#FFB27D"/>
<path opacity="0.2" d="M163.655 89.2593C163.655 89.2593 185.586 116.289 177.91 126.926C170.179 137.617 163.655 89.2593 163.655 89.2593Z" fill="#FFB27D"/>
<path d="M148.906 81.3094C126.646 81.5835 100.11 108.449 109.759 124.184C111.13 126.378 116.722 128.516 120.889 124.733C119.519 138.878 118.532 145.896 118.532 145.896C118.532 145.896 130.046 152.037 146.384 147.596C162.723 143.155 171.55 144.361 171.55 144.361C171.55 144.361 171.276 135.369 170.892 127.2C171.66 127.529 174.346 80.9804 148.906 81.3094Z" fill="#F79E61"/>
<path opacity="0.2" d="M128.51 129.612C129.936 128.187 131.581 126.981 133.116 125.665C135.035 124.02 139.421 118.428 143.533 115.248C148.248 115.248 154.279 113.438 154.17 111.793C149.29 111.958 138.818 110.861 133.061 110.806C124.892 110.752 125.988 100.992 125.769 99.6765C125.714 100.225 120.56 125.007 120.889 124.733C119.519 138.878 118.532 145.896 118.532 145.896C118.532 145.896 119.244 146.28 120.506 146.773C121.821 145.896 123.137 144.964 124.289 143.922C125.714 142.716 128.072 140.687 126.866 138.604C126.372 137.727 125.714 137.069 125.385 136.082C125.166 135.369 125.276 134.547 125.44 133.834C126.043 132.189 127.304 130.819 128.51 129.612Z" fill="#4F66BF"/>
<path opacity="0.2" d="M172.153 119.469C170.782 118.592 169.521 117.55 168.315 116.454C166.67 114.919 165.3 113.219 163.764 111.629C162.229 110.094 160.804 108.285 158.72 107.462C157.404 106.969 156.034 106.64 154.663 106.366C153.238 106.091 151.593 105.762 150.167 105.982C149.016 106.201 148.139 107.352 148.193 108.559C148.248 109.875 149.235 111.026 150.058 111.903C152.031 114.041 154.553 115.522 156.692 117.496C158.062 118.757 159.269 120.292 159.598 122.156C159.981 124.13 159.159 125.829 158.446 127.639C158.062 128.571 157.733 129.558 158.062 130.545C158.282 131.257 158.885 131.806 159.433 132.299C160.639 133.341 162.01 134.328 162.229 136.027C162.503 137.837 161.791 139.81 160.913 141.346C160.036 142.881 158.83 144.032 157.459 145.183L157.404 145.238C166.67 143.758 171.605 144.416 171.605 144.416C171.605 144.416 171.331 135.424 170.947 127.255C171.111 127.31 171.879 124.185 172.153 119.469Z" fill="#4F66BF"/>
<path d="M151.702 90.63L158.665 91.6169C159.488 91.7266 159.927 92.549 159.707 93.3714L154.882 110.423C154.663 111.245 153.841 111.848 153.018 111.793L150.332 111.629C150.222 111.629 150.112 111.629 150.003 111.574H149.948L149.345 111.519H149.29C149.18 111.519 149.071 111.519 148.906 111.519L146.165 111.355C145.288 111.3 144.794 110.587 145.013 109.765L149.674 92.0007C149.893 91.1235 150.825 90.4656 151.702 90.63Z" fill="#202234"/>
<path d="M151.538 91.2333L158.446 92.1654C158.994 92.2202 159.269 92.7685 159.104 93.3167L154.279 110.313C154.115 110.862 153.567 111.245 153.073 111.191L146.274 110.752C145.726 110.697 145.397 110.258 145.507 109.71L150.167 92.0557C150.387 91.5623 150.99 91.1236 151.538 91.2333Z" fill="#4F3F3D"/>
<path d="M157.679 92.9328C158.062 92.9876 158.227 93.3714 158.117 93.7552L157.35 96.4966C157.24 96.8804 156.856 97.0997 156.527 97.0449C156.143 96.99 155.924 96.6063 156.034 96.2773L156.801 93.4811C156.966 93.0973 157.35 92.8232 157.679 92.9328Z" fill="#0F1019"/>
<path d="M154.718 111.684C154.334 110.916 150.441 111.41 150.441 111.41C150.441 111.41 156.472 109.545 155.979 108.723C155.485 107.901 150.222 109.326 150.222 109.326C150.222 109.326 156.801 107.078 156.801 106.037C156.801 104.995 149.729 107.572 149.729 107.572C149.729 107.572 155.431 104.337 154.992 103.46C154.553 102.582 148.851 105.927 147.481 106.311C146.603 106.585 145.891 106.091 146.439 105.324C146.987 104.556 146.658 102.692 146 102.582C145.288 102.473 144.959 105.598 143.972 106.091C142.985 106.64 141.943 108.613 141.833 109.271C141.121 110.642 142.82 113 142.82 113C142.82 113 144.465 113.712 146.274 113.493C148.084 113.329 155.102 112.451 154.718 111.684Z" fill="#F4CABA"/>
<g opacity="0.2">
<path opacity="0.2" d="M145.891 102.692C145.671 102.747 145.562 103.185 145.562 103.295C145.562 103.295 145.781 103.514 145.891 103.35C146 103.24 146.11 102.637 145.891 102.692Z" fill="white"/>
<path opacity="0.2" d="M154.882 103.514C154.718 103.35 154.06 103.569 154.005 103.679C154.005 103.679 154.334 104.172 154.389 104.282C154.499 104.337 155.047 103.734 154.882 103.514Z" fill="white"/>
<path opacity="0.2" d="M156.582 106.091C156.472 105.872 155.76 105.927 155.705 105.982C155.705 105.982 155.869 106.53 155.924 106.64C155.979 106.749 156.692 106.311 156.582 106.091Z" fill="white"/>
<path opacity="0.2" d="M155.76 108.833C155.65 108.613 154.937 108.668 154.882 108.723C154.882 108.723 154.992 109.326 155.102 109.381C155.102 109.491 155.815 109.052 155.76 108.833Z" fill="white"/>
<path opacity="0.2" d="M154.499 111.684C154.444 111.519 153.841 111.464 153.786 111.519C153.786 111.519 153.841 112.013 153.896 112.067C153.95 112.177 154.553 111.903 154.499 111.684Z" fill="white"/>
</g>
<path d="M147.042 103.021C147.755 102.528 150.935 104.831 150.935 104.831C150.935 104.831 146.494 100.335 147.316 99.8412C148.139 99.3478 152.086 103.131 152.086 103.131C152.086 103.131 147.371 98.0319 147.864 97.0999C148.358 96.1678 153.347 101.815 153.347 101.815C153.347 101.815 149.893 96.2226 150.715 95.6744C151.483 95.1261 154.992 100.773 155.924 101.76C156.527 102.418 157.404 102.308 157.295 101.376C157.185 100.444 158.336 98.964 158.994 99.1833C159.652 99.4026 158.446 102.308 159.104 103.241C159.707 104.173 159.707 106.421 159.488 107.024C159.488 108.559 156.856 109.82 156.856 109.82C156.856 109.82 155.102 109.655 153.567 108.614C152.086 107.682 146.329 103.57 147.042 103.021Z" fill="#F4CABA"/>
<g opacity="0.2">
<path opacity="0.2" d="M159.049 99.3477C159.214 99.5122 159.104 99.896 159.049 100.06C159.049 100.06 158.72 100.17 158.72 99.9508C158.72 99.7863 158.885 99.1832 159.049 99.3477Z" fill="white"/>
<path opacity="0.2" d="M150.716 95.7839C150.935 95.729 151.428 96.2773 151.428 96.3322C151.428 96.3322 150.935 96.6611 150.825 96.6611C150.716 96.6611 150.551 95.8935 150.716 95.7839Z" fill="white"/>
<path opacity="0.2" d="M148.029 97.264C148.193 97.1543 148.851 97.5381 148.851 97.593C148.851 97.593 148.468 98.0316 148.358 98.0864C148.248 98.1412 147.865 97.3736 148.029 97.264Z" fill="white"/>
<path opacity="0.2" d="M147.481 100.06C147.645 99.8959 148.303 100.28 148.303 100.389C148.303 100.389 147.919 100.828 147.81 100.883C147.7 100.883 147.316 100.225 147.481 100.06Z" fill="white"/>
<path opacity="0.2" d="M147.207 103.131C147.371 103.021 147.919 103.241 147.919 103.295C147.919 103.295 147.645 103.679 147.536 103.734C147.426 103.844 147.042 103.295 147.207 103.131Z" fill="white"/>
</g>
<path d="M159.762 105.872C159.762 105.872 182.735 107.517 178.403 125.72C175.991 135.972 156.856 109.929 156.856 109.929C156.856 109.929 159.269 109.052 159.762 105.872Z" fill="#F4CABA"/>
<path d="M141.833 109.326L144.246 112.89C144.246 112.89 119.628 136.849 111.13 125.555C101.426 112.616 141.833 109.326 141.833 109.326Z" fill="#F4CABA"/>
<path d="M153.073 83.2281C153.073 84.3795 150.99 85.2567 148.468 85.2567C145.946 85.2567 143.862 84.3246 143.862 83.2281C143.862 82.0767 145.946 81.1995 148.468 81.1995C150.99 81.1995 153.073 82.1315 153.073 83.2281Z" fill="#FDAEB3"/>
<path d="M157.295 58.775C158.611 60.5843 158.556 63.9836 156.308 67.6571C154.06 71.3305 141.011 68.8633 141.011 68.8633C141.011 68.8633 136.022 60.2005 141.34 57.8978C141.34 57.8978 141.176 51.9764 147.042 52.7988C152.854 53.6212 155.486 56.3078 157.295 58.775Z" fill="#432D29"/>
<path d="M151.648 82.5153C151.648 82.5153 150.496 84.2698 148.468 84.2698C146.439 84.2698 145.013 82.5701 145.013 82.5701C145.013 82.5701 145.068 80.7608 145.178 79.2256C145.233 78.2387 145.233 77.3067 145.233 77.197H151.648V79.8287V82.5153Z" fill="#EDB29F"/>
<path opacity="0.1" d="M151.593 79.8287C150.606 80.6512 149.509 81.1994 148.632 81.1994C147.59 81.1994 146.22 80.377 145.068 79.2256C145.123 78.2387 145.123 77.3067 145.123 77.197H151.538L151.593 79.8287Z" fill="#231F20"/>
<path d="M158.83 67.1089C158.117 65.7382 156.856 66.1768 156.143 66.5606C156.034 63.8192 155.814 61.5164 155.814 61.5164C155.376 58.2816 141.888 58.2816 141.45 61.5164C141.45 61.5164 141.23 63.8192 141.121 66.5606C140.408 66.1768 139.147 65.793 138.489 67.1089C137.612 68.8633 139.421 71.4402 141.175 71.7144C141.285 73.3592 141.504 74.7299 141.943 75.2782C143.533 77.3616 146.603 79.774 148.632 79.774C150.661 79.774 153.731 77.3616 155.321 75.2782C155.76 74.6751 156.034 73.3592 156.089 71.7144C157.898 71.4402 159.762 68.9182 158.83 67.1089Z" fill="#F4CABA"/>
<path d="M148.851 72.427C148.248 72.427 147.81 71.8239 147.755 71.8239C147.645 71.7143 147.7 71.5498 147.81 71.4401C147.919 71.3305 148.084 71.3853 148.193 71.495C148.303 71.6046 148.577 71.8788 148.851 71.8788C149.071 71.8788 149.29 71.7143 149.509 71.3853C149.564 71.2757 149.729 71.2208 149.893 71.2757C150.003 71.3305 150.058 71.495 150.003 71.6595C149.674 72.1529 149.29 72.3722 148.851 72.427C148.906 72.427 148.851 72.427 148.851 72.427Z" fill="#432D29"/>
<path d="M146.274 75.4972C146.274 75.4972 149.509 75.1134 151.044 75.552C151.044 75.552 148.632 78.1838 146.274 75.4972Z" fill="white"/>
<path d="M153.95 65.9024C153.95 65.9024 151.099 66.1217 150.77 65.9024C150.441 65.6831 151.264 64.9703 152.58 65.08C153.841 65.2445 154.279 65.8476 153.95 65.9024Z" fill="#432D29"/>
<path d="M153.238 67.4926C153.238 67.9312 152.909 68.315 152.525 68.315C152.141 68.315 151.812 67.9312 151.812 67.4926C151.812 67.054 152.141 66.6702 152.525 66.6702C152.634 66.6702 152.744 66.725 152.854 66.7798C152.689 66.8346 152.634 66.9443 152.634 67.1636C152.634 67.3829 152.799 67.5474 152.963 67.5474C153.073 67.5474 153.183 67.4377 153.238 67.3281C153.183 67.3281 153.238 67.3829 153.238 67.4926Z" fill="#432D29"/>
<path d="M143.094 65.9024C143.094 65.9024 145.945 66.1217 146.274 65.9024C146.603 65.6831 145.781 64.9703 144.465 65.08C143.204 65.2445 142.765 65.8476 143.094 65.9024Z" fill="#432D29"/>
<path d="M145.507 67.4926C145.507 67.9312 145.178 68.315 144.794 68.315C144.41 68.315 144.081 67.9312 144.081 67.4926C144.081 67.054 144.41 66.6702 144.794 66.6702C144.904 66.6702 145.013 66.725 145.123 66.7798C144.959 66.8346 144.904 66.9443 144.904 67.1636C144.904 67.3829 145.068 67.5474 145.233 67.5474C145.342 67.5474 145.452 67.4377 145.507 67.3281C145.507 67.3281 145.507 67.3829 145.507 67.4926Z" fill="#432D29"/>
<path opacity="0.1" d="M142.711 62.6129C143.149 62.6129 143.643 62.5581 144.027 62.3936C144.355 62.2839 144.684 62.0098 145.013 61.8453C145.562 61.626 145.891 61.9001 146.329 62.2291C146.932 62.7225 147.645 62.9967 148.413 63.1612C150.003 63.4901 151.757 63.5998 153.347 63.4353C154.224 63.3256 155.102 63.1063 155.924 62.8322C155.869 62.0098 155.814 61.4615 155.814 61.4615C155.376 58.2267 141.888 58.2267 141.45 61.4615C141.45 61.4615 141.395 61.8453 141.34 62.4484C141.833 62.5581 142.217 62.6129 142.711 62.6129Z" fill="#231F20"/>
<path d="M158.117 69.1923C158.172 69.1923 158.227 69.1374 158.227 69.1374C158.665 67.9861 157.514 67.3281 157.514 67.3281C157.459 67.2733 157.35 67.3281 157.35 67.383C157.295 67.4378 157.35 67.5474 157.404 67.5474C157.459 67.5474 158.337 68.0957 158.008 69.0278C157.953 69.0826 158.008 69.1374 158.117 69.1923C158.062 69.1923 158.062 69.1923 158.117 69.1923Z" fill="#432D29"/>
<path d="M139.037 69.0826C138.982 69.0826 138.928 69.0278 138.928 69.0278C138.489 67.8764 139.64 67.2185 139.64 67.2185C139.695 67.1637 139.805 67.2185 139.805 67.2733C139.86 67.3282 139.805 67.4378 139.75 67.4378C139.695 67.4378 138.818 67.9861 139.147 68.9182C139.202 68.973 139.147 69.0278 139.037 69.0826C139.092 69.0826 139.092 69.0826 139.037 69.0826Z" fill="#432D29"/>
<path opacity="0.1" d="M145.562 70.3435C145.562 71.0562 144.959 71.6593 144.246 71.6593C143.533 71.6593 142.93 71.0562 142.93 70.3435C142.93 69.6307 143.533 69.0276 144.246 69.0276C144.959 69.0276 145.562 69.6307 145.562 70.3435Z" fill="#513F3C"/>
<path opacity="0.1" d="M154.992 70.3435C154.992 71.0562 154.389 71.6593 153.676 71.6593C152.963 71.6593 152.36 71.0562 152.36 70.3435C152.36 69.6307 152.963 69.0276 153.676 69.0276C154.389 69.0276 154.992 69.6307 154.992 70.3435Z" fill="#513F3C"/>
<path d="M152.47 57.3496C150.222 56.8562 146.878 57.8979 144.739 58.7203C144.081 58.6107 142.985 58.501 141.888 59.1041C140.189 59.9814 139.202 62.6131 141.121 62.5583C142.162 62.5034 143.369 61.4069 144.246 60.42C147.206 61.5714 153.183 63.6548 156.034 62.8872C159.872 61.7907 156.089 58.1172 152.47 57.3496Z" fill="#432D29"/>
<path d="M283.453 91.2876C283.453 94.6869 280.986 97.4831 277.751 98.0314C280.986 98.5797 283.453 101.431 283.453 104.775C283.453 101.376 285.92 98.5797 289.155 98.0314C285.92 97.5379 283.453 94.6869 283.453 91.2876Z" fill="#FDAEB3"/>
<path d="M105.702 131.97C105.702 135.369 103.235 138.165 100 138.714C103.235 139.262 105.702 142.113 105.702 145.457C105.702 142.058 108.169 139.262 111.404 138.714C108.169 138.22 105.702 135.369 105.702 131.97Z" fill="#FDAEB3"/>
<path d="M269.856 110.971C269.856 113.109 268.32 114.918 266.237 115.302C268.266 115.686 269.856 117.44 269.856 119.633C269.856 117.495 271.391 115.686 273.474 115.302C271.391 114.918 269.856 113.109 269.856 110.971Z" fill="#FDAEB3"/>
<path d="M105.318 82.1316C105.318 83.9409 104.002 85.4761 102.303 85.7502C104.002 86.0243 105.318 87.5595 105.318 89.3688C105.318 87.5595 106.634 86.0243 108.334 85.7502C106.634 85.4212 105.318 83.9409 105.318 82.1316Z" fill="#FDAEB3"/>
<path d="M312.018 170.02C312.018 170.513 311.579 170.952 311.086 170.952C310.592 170.952 310.154 170.513 310.154 170.02C310.154 169.527 310.592 169.088 311.086 169.088C311.579 169.088 312.018 169.527 312.018 170.02Z" fill="#FDAEB3"/>
<path d="M259.932 84.9826C260.901 84.9826 261.686 84.1971 261.686 83.2281C261.686 82.2591 260.901 81.4736 259.932 81.4736C258.963 81.4736 258.177 82.2591 258.177 83.2281C258.177 84.1971 258.963 84.9826 259.932 84.9826Z" fill="#FDAEB3"/>
<path d="M172.318 79.0063C172.318 79.9384 171.55 80.7059 170.618 80.7059C169.686 80.7059 168.918 79.9384 168.918 79.0063C168.918 78.0742 169.686 77.3066 170.618 77.3066C171.55 77.3066 172.318 78.0742 172.318 79.0063Z" fill="#FDAEB3"/>
<defs>
<linearGradient id="paint0_linear_554_831" x1="103.982" y1="301.222" x2="420.702" y2="181.373" gradientUnits="userSpaceOnUse">
<stop stop-color="#F0807C"/>
<stop offset="1" stop-color="#F7A15E"/>
</linearGradient>
<linearGradient id="paint1_linear_554_831" x1="112.916" y1="312.929" x2="429.637" y2="193.081" gradientUnits="userSpaceOnUse">
<stop stop-color="#F7A05F"/>
<stop offset="1" stop-color="#F0817B"/>
</linearGradient>
</defs>
</svg>
