<svg width="17" height="17" viewBox="0 0 17 17" fill="none" xmlns="http://www.w3.org/2000/svg">
<path d="M4.25 7.08341V5.66675C4.25 3.32216 4.95833 1.41675 8.5 1.41675C12.0417 1.41675 12.75 3.32216 12.75 5.66675V7.08341" stroke="#666666" stroke-linecap="round" stroke-linejoin="round"/>
<path d="M8.49996 13.1042C9.47796 13.1042 10.2708 12.3113 10.2708 11.3333C10.2708 10.3553 9.47796 9.5625 8.49996 9.5625C7.52196 9.5625 6.72913 10.3553 6.72913 11.3333C6.72913 12.3113 7.52196 13.1042 8.49996 13.1042Z" stroke="#666666" stroke-linecap="round" stroke-linejoin="round"/>
<path d="M12.0416 15.5833H4.95829C2.12496 15.5833 1.41663 14.8749 1.41663 12.0416V10.6249C1.41663 7.79159 2.12496 7.08325 4.95829 7.08325H12.0416C14.875 7.08325 15.5833 7.79159 15.5833 10.6249V12.0416C15.5833 14.8749 14.875 15.5833 12.0416 15.5833Z" stroke="#666666" stroke-linecap="round" stroke-linejoin="round"/>
</svg>
