<svg width="38" height="38" viewBox="0 0 38 38" fill="none" xmlns="http://www.w3.org/2000/svg">
<rect width="38" height="38" rx="6" fill="#ECE5F1"/>
<path d="M28.66 17.44L27.68 21.62C26.84 25.23 25.18 26.69 22.06 26.39C21.56 26.35 21.02 26.26 20.44 26.12L18.76 25.72C14.59 24.73 13.3 22.67 14.28 18.49L15.26 14.3C15.46 13.45 15.7 12.71 16 12.1C17.17 9.68001 19.16 9.03001 22.5 9.82001L24.17 10.21C28.36 11.19 29.64 13.26 28.66 17.44Z" stroke="#695DA9" stroke-width="1.5" stroke-linecap="round" stroke-linejoin="round"/>
<path d="M22.06 26.39C21.44 26.81 20.66 27.16 19.71 27.47L18.13 27.99C14.16 29.27 12.07 28.2 10.78 24.23L9.49997 20.28C8.21997 16.31 9.27997 14.21 13.25 12.93L14.83 12.41C15.24 12.28 15.63 12.17 16 12.1C15.7 12.71 15.46 13.45 15.26 14.3L14.28 18.49C13.3 22.67 14.59 24.73 18.76 25.72L20.44 26.12C21.02 26.26 21.56 26.35 22.06 26.39Z" stroke="#695DA9" stroke-width="1.5" stroke-linecap="round" stroke-linejoin="round"/>
<path d="M19.64 15.53L24.49 16.76" stroke="#695DA9" stroke-width="1.5" stroke-linecap="round" stroke-linejoin="round"/>
<path d="M18.66 19.4L21.56 20.14" stroke="#695DA9" stroke-width="1.5" stroke-linecap="round" stroke-linejoin="round"/>
</svg>