<svg width="65" height="64" viewBox="0 0 65 64" fill="none" xmlns="http://www.w3.org/2000/svg">
<path d="M29.783 14.2595C31.0198 21.1179 26.5724 27.6516 19.8639 28.8634C13.1553 30.0752 6.70913 25.4904 5.47236 18.6319C4.24808 11.7735 8.68296 5.23983 15.404 4.02804C22.1125 2.82875 28.5587 7.40105 29.783 14.2595Z" fill="#F4AE4F" stroke="#ED9D48" stroke-width="0.497181" stroke-miterlimit="10" stroke-linecap="round" stroke-linejoin="round"/>
<g opacity="0.4">
<path opacity="0.4" d="M20.7258 4.82754C20.8382 4.85252 22.3748 5.17733 22.3998 5.16484C20.2885 4.24038 17.89 3.90308 15.4664 4.34033C8.88278 5.52712 4.49787 11.9109 5.69716 18.5694C6.68408 24.0912 11.2064 28.0888 16.4783 28.626C14.2796 27.8389 12.4057 27.0394 11.2814 26.0775C8.60794 23.8163 5.73464 20.6057 6.14689 15.4213C6.88396 5.98935 15.6163 3.62825 20.7258 4.82754Z" fill="#ABABAB"/>
</g>
<path d="M27.2971 14.7093C28.2591 20.0436 24.7112 25.1531 19.3643 26.1151C14.03 27.077 8.92048 23.5291 7.95855 18.1822C6.99662 12.8479 10.5445 7.73841 15.8914 6.77648C21.2382 5.82704 26.3352 9.37495 27.2971 14.7093Z" fill="#F8CB79" stroke="#E9B665" stroke-width="0.497181" stroke-miterlimit="10"/>
<path d="M21.85 17.8699C21.7126 17.0953 21.4003 16.5082 20.9256 16.0959C20.4509 15.6837 19.6264 15.3464 18.4645 15.084C18.3146 15.0466 18.1148 15.0091 17.8899 14.9591C17.715 13.9597 17.5401 12.9978 17.3902 12.1733C17.5151 12.1982 17.64 12.2232 17.7525 12.2732C17.9773 12.3731 18.1772 12.5355 18.3521 12.6979C18.5395 12.8853 18.6644 13.2476 19.0017 13.1352C19.1766 13.0727 20.3259 12.3731 20.4509 12.2732C20.6133 12.1233 20.4509 11.9109 20.3509 11.761C19.9762 11.2363 19.4515 10.824 18.8643 10.5742C18.3396 10.3493 17.74 10.2619 17.0654 10.2994C16.9654 9.77467 16.9155 9.46235 16.9155 9.46235C16.8155 8.90018 16.2284 9.0501 15.8286 9.17502C15.6037 9.24998 15.5163 9.47484 15.5663 9.69971C15.5663 9.69971 15.6287 10.012 15.7162 10.5367C14.9291 10.7741 14.3045 11.1613 13.8423 11.711C13.2676 12.3981 13.0552 13.1976 13.2176 14.1096C13.3176 14.6468 13.5175 15.109 13.8173 15.4838C14.1171 15.8711 14.5169 16.1584 14.9916 16.3458C15.3789 16.5082 16.0035 16.6706 16.8405 16.8455C17.0404 17.9823 17.2403 19.1067 17.4152 20.0686C17.2278 20.0311 17.0529 19.9811 16.878 19.8937C16.6656 19.7813 16.4907 19.6438 16.3033 19.4939C16.1534 19.369 16.041 19.2566 15.9285 19.0942C15.8411 18.9692 15.7412 18.8068 15.5663 18.8318C15.3164 18.8568 13.9672 19.8187 13.9172 19.9936C13.9047 20.0311 13.9047 20.0686 13.9172 20.1061C13.9547 20.206 14.0671 20.3059 14.1421 20.4059C14.2795 20.6058 14.4544 20.7807 14.6293 20.9431C14.9791 21.2679 15.4163 21.5302 15.8661 21.7051C16.4282 21.93 17.0654 22.0299 17.7525 22.0049C17.8649 22.6046 17.9274 22.9794 17.9274 22.9794C18.0023 23.4166 18.3646 23.3916 18.7019 23.3167C19.0267 23.2542 19.339 23.1418 19.2766 22.7295C19.2766 22.7295 19.2141 22.3797 19.1017 21.7926C20.0386 21.5427 20.7757 21.1305 21.2629 20.5183C21.85 19.7937 22.0374 18.9193 21.85 17.8699ZM15.2165 13.6099C15.154 13.2476 15.229 12.9228 15.4538 12.6605C15.5912 12.4981 15.7786 12.3856 16.0035 12.2982C16.1284 12.9853 16.2658 13.7723 16.4158 14.6093C15.7037 14.347 15.2914 14.0222 15.2165 13.6099ZM19.5264 19.4689C19.339 19.6813 19.0892 19.8312 18.7894 19.9437C18.6394 19.1067 18.4645 18.1447 18.2896 17.1453C18.7519 17.2453 19.1017 17.3827 19.3265 17.5326C19.6139 17.72 19.7888 17.9948 19.8512 18.3446C19.9137 18.7694 19.8013 19.1441 19.5264 19.4689Z" fill="#F4AE4F"/>
<path d="M56.667 17.2827C54.5932 23.9412 47.6349 27.689 41.1262 25.6527C34.6176 23.6164 31.0197 16.5831 33.0934 9.92452C35.1672 3.26595 42.1256 -0.481836 48.6343 1.55446C55.1429 3.59076 58.7408 10.6241 56.667 17.2827Z" fill="#F4AE4F" stroke="#ED9D48" stroke-width="0.497181" stroke-miterlimit="10" stroke-linecap="round" stroke-linejoin="round"/>
<g opacity="0.4">
<path opacity="0.4" d="M52.9939 4.71506C53.0814 4.79002 54.2932 5.78943 54.3182 5.77694C52.869 3.99049 50.9077 2.57882 48.5466 1.85425C42.1628 -0.144566 35.3169 3.49079 33.3056 9.96196C31.6316 15.3213 33.7928 20.9555 38.2152 23.8662C36.6286 22.1548 35.3419 20.5682 34.7797 19.2065C33.4555 15.9584 32.3936 11.7859 35.142 7.38848C40.1765 -0.644272 48.9963 1.30458 52.9939 4.71506Z" fill="#ABABAB"/>
</g>
<path d="M54.2434 16.5206C52.6318 21.705 47.1226 24.5908 41.9382 22.9793C36.7662 21.3677 33.8679 15.8585 35.4795 10.674C37.091 5.48958 42.6003 2.60379 47.7847 4.21534C52.9691 5.83938 55.8674 11.3486 54.2434 16.5206Z" fill="#F8CB79" stroke="#E9B665" stroke-width="0.497181" stroke-miterlimit="10"/>
<path d="M47.9598 16.8205C48.1972 16.0709 48.1972 15.4088 47.9598 14.8217C47.7225 14.2345 47.1478 13.5599 46.2359 12.7854C46.1109 12.6854 45.961 12.548 45.7861 12.4106C46.0859 11.4487 46.3733 10.5117 46.6356 9.69969C46.7356 9.78713 46.8355 9.86209 46.9105 9.94954C47.0604 10.1494 47.1603 10.3743 47.2478 10.6116C47.3352 10.8615 47.2727 11.2488 47.61 11.2987C47.7849 11.3237 49.1341 11.2363 49.2965 11.1988C49.5089 11.1363 49.4714 10.874 49.4465 10.6991C49.359 10.062 49.0842 9.44983 48.6719 8.96262C48.3096 8.52538 47.8099 8.16309 47.2103 7.88826C47.3727 7.38855 47.4601 7.07624 47.4601 7.07624C47.635 6.52656 47.0479 6.38914 46.6356 6.32668C46.3983 6.2892 46.2234 6.45161 46.1609 6.67647C46.1609 6.67647 46.061 6.9763 45.911 7.48849C45.1115 7.33858 44.3745 7.38855 43.7123 7.66339C42.8504 8.01318 42.3007 8.62532 42.0258 9.4998C41.8634 10.0245 41.826 10.5242 41.9259 10.9989C42.0134 11.4736 42.2257 11.9109 42.563 12.3106C42.8379 12.6355 43.3126 13.0727 43.9747 13.6099C43.6249 14.7217 43.2876 15.7961 43.0003 16.733C42.8504 16.6206 42.7254 16.4832 42.613 16.3333C42.4756 16.1334 42.3881 15.9335 42.2882 15.7086C42.2132 15.5212 42.1633 15.3713 42.1383 15.1715C42.1258 15.0215 42.1008 14.8342 41.9384 14.7717C41.701 14.6842 40.0645 14.9091 39.9396 15.034C39.9146 15.059 39.9021 15.0965 39.8896 15.134C39.8771 15.2464 39.9271 15.3838 39.9521 15.4963C39.9771 15.7336 40.052 15.971 40.1395 16.1958C40.3019 16.6456 40.5642 17.0828 40.8765 17.4451C41.2763 17.9073 41.7885 18.2821 42.4131 18.5819C42.2257 19.1691 42.1258 19.5189 42.1258 19.5189C41.9884 19.9436 42.3257 20.0811 42.663 20.181C42.9878 20.2684 43.3126 20.3309 43.4375 19.9311C43.4375 19.9311 43.5499 19.5813 43.7248 19.0192C44.6743 19.2316 45.5113 19.2066 46.2359 18.8818C47.0729 18.5195 47.6475 17.8199 47.9598 16.8205ZM44.0496 9.97452C44.1621 9.61224 44.3745 9.37488 44.6993 9.24995C44.8991 9.175 45.124 9.1625 45.3614 9.18749C45.149 9.86209 44.9116 10.6241 44.6618 11.4237C44.1246 10.849 43.9247 10.3618 44.0496 9.97452ZM45.1615 17.1578C44.8991 17.2577 44.6118 17.2827 44.287 17.2452C44.5369 16.4332 44.8367 15.4963 45.1365 14.5218C45.4988 14.8342 45.7486 15.0965 45.8736 15.3339C46.036 15.6337 46.061 15.9585 45.961 16.2958C45.8236 16.708 45.5488 16.9954 45.1615 17.1578Z" fill="#F4AE4F"/>
<path d="M39.6145 18.2196C40.8513 25.0781 36.4039 31.6117 29.6954 32.8235C22.9868 34.0353 16.5406 29.4505 15.3039 22.592C14.0671 15.7336 18.5145 9.19995 25.223 7.98817C31.944 6.77638 38.3777 11.3612 39.6145 18.2196Z" fill="#F4AE4F" stroke="#ED9D48" stroke-width="0.497181" stroke-miterlimit="10" stroke-linecap="round" stroke-linejoin="round"/>
<g opacity="0.4">
<path opacity="0.4" d="M30.5576 8.77529C30.67 8.80028 32.2066 9.12508 32.2316 9.11259C30.1203 8.18814 27.7217 7.85084 25.2982 8.28808C18.7146 9.47488 14.3297 15.8586 15.5289 22.5172C16.5159 28.0389 21.0382 32.0365 26.3101 32.5737C24.1114 31.7867 22.2375 30.9872 21.1131 30.0252C18.4397 27.7641 15.5664 24.5535 15.9787 19.369C16.7033 9.93711 25.4356 7.58849 30.5576 8.77529Z" fill="#ABABAB"/>
</g>
<path d="M37.1284 18.6694C38.0903 24.0037 34.5424 29.1132 29.1955 30.0751C23.8612 31.0371 18.7517 27.4892 17.7898 22.1423C16.8279 16.808 20.3758 11.6985 25.7226 10.7366C31.0569 9.77463 36.1664 13.3225 37.1284 18.6694Z" fill="#F8CB79" stroke="#E9B665" stroke-width="0.497181" stroke-miterlimit="10"/>
<path d="M31.6816 21.83C31.5442 21.0555 31.2319 20.4684 30.7572 20.0561C30.2825 19.6438 29.458 19.3065 28.2961 19.0442C28.1462 19.0067 27.9464 18.9692 27.7215 18.9193C27.5466 17.9199 27.3717 16.9579 27.2218 16.1334C27.3467 16.1584 27.4716 16.1834 27.5841 16.2334C27.8089 16.3333 28.0088 16.4957 28.1837 16.6581C28.3711 16.8455 28.496 17.2078 28.8333 17.0953C29.0082 17.0329 30.1575 16.3333 30.2825 16.2334C30.4449 16.0834 30.2825 15.8711 30.1825 15.7337C29.8078 15.209 29.2831 14.7967 28.6959 14.5469C28.1712 14.322 27.5716 14.2345 26.897 14.272C26.8095 13.7473 26.7471 13.435 26.7471 13.435C26.6471 12.8728 26.06 13.0228 25.6602 13.1477C25.4353 13.2226 25.3479 13.4475 25.3979 13.6724C25.3979 13.6724 25.4478 13.9847 25.5478 14.5094C24.7607 14.7467 24.1361 15.134 23.6739 15.6837C23.0992 16.3708 22.8868 17.1703 23.0492 18.0823C23.1492 18.6194 23.3491 19.0817 23.6489 19.4565C23.9487 19.8437 24.3485 20.1311 24.8232 20.3184C25.2105 20.4808 25.8351 20.6433 26.6721 20.8181C26.872 21.955 27.0719 23.0793 27.2468 24.0412C27.0594 24.0038 26.8845 23.9538 26.7096 23.8663C26.4972 23.7539 26.3223 23.6165 26.1349 23.4666C25.985 23.3417 25.8726 23.2292 25.7601 23.0668C25.6727 22.9419 25.5728 22.7795 25.3979 22.8045C25.148 22.8295 23.7988 23.7914 23.7488 23.9663C23.7363 24.0038 23.7363 24.0412 23.7488 24.0787C23.7863 24.1787 23.8987 24.2786 23.9737 24.3785C24.1111 24.5784 24.286 24.7533 24.4609 24.9157C24.8107 25.2405 25.2479 25.5029 25.6977 25.6778C26.2723 25.9026 26.897 26.0026 27.5841 25.9776C27.6965 26.5772 27.759 26.952 27.759 26.952C27.8339 27.3893 28.1962 27.3643 28.5335 27.2893C28.8708 27.2269 29.1706 27.1144 29.1082 26.7022C29.1082 26.7022 29.0457 26.3524 28.9458 25.7652C29.8827 25.5154 30.6198 25.1031 31.107 24.491C31.6692 23.7414 31.869 22.8669 31.6816 21.83ZM25.0481 17.5701C24.9856 17.2078 25.0606 16.883 25.2854 16.6206C25.4228 16.4582 25.6102 16.3458 25.8351 16.2583C25.96 16.9454 26.0974 17.7325 26.2474 18.5695C25.5228 18.3071 25.123 17.9698 25.0481 17.5701ZM29.3455 23.4166C29.1581 23.629 28.9083 23.7789 28.6085 23.8913C28.4586 23.0543 28.2837 22.0924 28.1088 21.093C28.571 21.1929 28.9208 21.3303 29.1456 21.4803C29.433 21.6676 29.6079 21.9425 29.6703 22.2923C29.7328 22.7295 29.6329 23.1043 29.3455 23.4166Z" fill="#F4AE4F"/>
<path d="M61.0395 58.4833C61.0395 60.8944 59.3155 62.8432 57.1793 62.8432H4.86016C2.72392 62.8432 0.999939 60.8944 0.999939 58.4833V21.9299C0.999939 19.5188 2.72392 17.5699 4.86016 17.5699H57.1793C59.3155 17.5699 61.0395 19.5188 61.0395 21.9299V58.4833Z" fill="#C5794B" stroke="#A2643F" stroke-width="0.839517" stroke-miterlimit="10" stroke-linecap="round" stroke-linejoin="round"/>
<g opacity="0.2">
<path opacity="0.2" d="M3.92306 19.2939C6.27168 18.7568 52.1446 18.9941 55.63 18.9941C58.9905 18.9941 60.1399 21.4427 60.6146 24.216V21.9174C60.6146 19.7437 59.0655 17.9697 57.1791 17.9697H4.86001C2.96113 17.9697 1.41205 19.7437 1.41205 21.9174V21.9424C1.97422 20.8555 2.59885 19.6063 3.92306 19.2939Z" fill="#A3A3A3"/>
</g>
<path d="M51.2202 60.8444H6.14683C4.31041 60.8444 2.82379 59.1579 2.82379 57.0841V25.5778C3.07364 25.7651 48.2345 57.9961 51.2202 60.8444Z" fill="#B46A3E"/>
<path d="M60.6397 29.1257H43.6497C42.9127 29.1257 41.7134 30.0877 41.7134 31.262V49.1514C41.7134 50.3257 42.9127 51.2876 43.6497 51.2876H60.6397V29.1257Z" fill="#B46A3E"/>
<path d="M64.1002 47.9521C64.1002 48.9765 62.9884 49.801 62.3138 49.801H45.1739C44.4993 49.801 43.3875 48.9765 43.3875 47.9521V32.4612C43.3875 31.4368 44.4993 30.6123 45.1739 30.6123H62.3138C62.9884 30.6123 64.1002 31.4368 64.1002 32.4612V47.9521Z" fill="#C5794B" stroke="#A2643F" stroke-width="0.839517" stroke-miterlimit="10" stroke-linecap="round" stroke-linejoin="round"/>
<g opacity="0.2">
<path opacity="0.2" d="M62.3139 31.0371H45.174C44.7118 31.0371 43.8123 31.6867 43.8123 32.4613V34.3227C44.3745 32.0115 45.0366 31.7867 47.4851 31.8366C49.7713 31.8866 54.7933 31.6617 57.067 31.6992C60.9772 31.7617 63.2508 31.2495 63.6881 33.7105V32.4613C63.6756 31.6867 62.7761 31.0371 62.3139 31.0371Z" fill="#A3A3A3"/>
</g>
<path d="M54.8928 40.6939C54.8928 42.7053 53.2687 44.3293 51.2574 44.3293C49.2461 44.3293 47.6221 42.7053 47.6221 40.6939C47.6221 38.6826 49.2461 37.0586 51.2574 37.0586C53.2687 37.0586 54.8928 38.6826 54.8928 40.6939Z" fill="#E8A418" stroke="#E4871D" stroke-width="0.839517" stroke-miterlimit="10" stroke-linecap="round" stroke-linejoin="round"/>
<g opacity="0.5">
<path opacity="0.5" d="M50.5457 38.5828C51.3702 38.1455 52.2697 37.9706 53.1692 37.9956C52.632 37.6083 51.9699 37.371 51.2578 37.371C49.4339 37.371 47.9473 38.8576 47.9473 40.6815C47.9473 41.6684 48.3845 42.5429 49.0716 43.1551C48.4095 41.5685 48.9717 39.4323 50.5457 38.5828Z" fill="#ABABAB"/>
</g>
<path opacity="0.2" d="M3.96078 19.3065C6.3094 18.7693 52.1823 19.0067 55.6677 19.0067C59.0283 19.0067 60.1776 21.4552 60.6523 24.2286V21.9424C60.6523 19.7687 59.1032 17.9948 57.2168 17.9948H4.89773C2.99885 17.9948 1.44977 19.7687 1.44977 21.9424V21.9674C1.99944 20.8681 2.62407 19.6188 3.96078 19.3065Z" fill="#FFFCFC"/>
</svg>