<svg width="24" height="20" viewBox="0 0 24 20" fill="none" xmlns="http://www.w3.org/2000/svg">
<path d="M12.1087 4.30801C14.962 4.30801 17.2965 6.58459 17.2965 9.36709C17.2965 10.0248 17.1408 10.6319 16.9333 11.1884L19.9422 14.1732C21.4985 12.9084 22.7436 11.2389 23.5218 9.36709C21.7061 4.9151 17.2965 1.77847 12.1087 1.77847C10.6562 1.77847 9.25546 2.03142 7.95852 2.48674L10.1893 4.66214C10.8118 4.45978 11.4343 4.30801 12.1087 4.30801ZM1.73323 1.5761L4.11959 3.90328L4.58649 4.30801C2.87453 5.62337 1.52572 7.34345 0.695679 9.36709C2.51139 13.8191 6.92097 16.9557 12.1087 16.9557C13.7169 16.9557 15.2732 16.6522 16.6739 16.0957L17.089 16.5004L20.0979 19.4347L21.3948 18.1699L3.08204 0.260742L1.73323 1.5761ZM7.49163 7.14109L9.09983 8.70941C9.04795 8.91177 8.99607 9.11413 8.99607 9.36709C8.99607 11.0366 10.3968 12.4025 12.1087 12.4025C12.3681 12.4025 12.5756 12.3519 12.7831 12.3519L14.3913 13.9203C13.7169 14.2238 12.9388 14.4262 12.1087 14.4262C9.25546 14.4262 6.92097 12.1496 6.92097 9.36709C6.92097 8.55763 7.12849 7.79877 7.49163 7.14109ZM11.9531 6.33164L15.2214 9.51886V9.36709C15.2214 7.69759 13.8207 6.33164 12.1087 6.33164H11.9531Z" fill="#F79E61"/>
</svg>
