<svg width="38" height="38" viewBox="0 0 38 38" fill="none" xmlns="http://www.w3.org/2000/svg">
<rect width="38" height="38" rx="6" fill="#DAEFFB"/>
<path d="M15 9V12" stroke="#4791CE" stroke-width="1.5" stroke-miterlimit="10" stroke-linecap="round" stroke-linejoin="round"/>
<path d="M23 9V12" stroke="#4791CE" stroke-width="1.5" stroke-miterlimit="10" stroke-linecap="round" stroke-linejoin="round"/>
<path d="M10.5 16.09H27.5" stroke="#4791CE" stroke-width="1.5" stroke-miterlimit="10" stroke-linecap="round" stroke-linejoin="round"/>
<path d="M28 15.5V24C28 27 26.5 29 23 29H15C11.5 29 10 27 10 24V15.5C10 12.5 11.5 10.5 15 10.5H23C26.5 10.5 28 12.5 28 15.5Z" stroke="#4791CE" stroke-width="1.5" stroke-miterlimit="10" stroke-linecap="round" stroke-linejoin="round"/>
<path d="M22.6947 20.7H22.7037" stroke="#4791CE" stroke-width="2" stroke-linecap="round" stroke-linejoin="round"/>
<path d="M22.6947 23.7H22.7037" stroke="#4791CE" stroke-width="2" stroke-linecap="round" stroke-linejoin="round"/>
<path d="M18.9955 20.7H19.0045" stroke="#4791CE" stroke-width="2" stroke-linecap="round" stroke-linejoin="round"/>
<path d="M18.9955 23.7H19.0045" stroke="#4791CE" stroke-width="2" stroke-linecap="round" stroke-linejoin="round"/>
<path d="M15.2943 20.7H15.3033" stroke="#4791CE" stroke-width="2" stroke-linecap="round" stroke-linejoin="round"/>
<path d="M15.2943 23.7H15.3033" stroke="#4791CE" stroke-width="2" stroke-linecap="round" stroke-linejoin="round"/>
</svg>