<svg width="21" height="21" viewBox="0 0 21 21" fill="none" xmlns="http://www.w3.org/2000/svg">
<path d="M7.5304 2.01746V4.52181" stroke="white" stroke-width="1.25218" stroke-miterlimit="10" stroke-linecap="round" stroke-linejoin="round"/>
<path d="M14.2086 2.01746V4.52181" stroke="white" stroke-width="1.25218" stroke-miterlimit="10" stroke-linecap="round" stroke-linejoin="round"/>
<path d="M3.77386 7.93604H17.9652" stroke="white" stroke-width="1.25218" stroke-miterlimit="10" stroke-linecap="round" stroke-linejoin="round"/>
<path d="M15.8782 19.5479C17.7224 19.5479 19.2174 18.0529 19.2174 16.2088C19.2174 14.3646 17.7224 12.8696 15.8782 12.8696C14.0341 12.8696 12.5391 14.3646 12.5391 16.2088C12.5391 18.0529 14.0341 19.5479 15.8782 19.5479Z" stroke="white" stroke-width="1.25218" stroke-miterlimit="10" stroke-linecap="round" stroke-linejoin="round"/>
<path d="M16.7715 17.1354L15.0017 15.374" stroke="white" stroke-width="1.25218" stroke-miterlimit="10" stroke-linecap="round" stroke-linejoin="round"/>
<path d="M16.7547 15.3907L14.985 17.1605" stroke="white" stroke-width="1.25218" stroke-miterlimit="10" stroke-linecap="round" stroke-linejoin="round"/>
<path d="M18.3826 7.44357V14.005C17.7732 13.3121 16.88 12.8697 15.8782 12.8697C14.0334 12.8697 12.5391 14.3639 12.5391 16.2088C12.5391 16.8349 12.7144 17.4276 13.0233 17.9285C13.1986 18.229 13.424 18.4961 13.6827 18.7131H7.53039C4.60865 18.7131 3.35648 17.0436 3.35648 14.5392V7.44357C3.35648 4.93922 4.60865 3.26965 7.53039 3.26965H14.2087C17.1304 3.26965 18.3826 4.93922 18.3826 7.44357Z" stroke="white" stroke-width="1.25218" stroke-miterlimit="10" stroke-linecap="round" stroke-linejoin="round"/>
<path d="M10.8657 11.7843H10.8732" stroke="white" stroke-width="1.66957" stroke-linecap="round" stroke-linejoin="round"/>
<path d="M7.77606 11.7843H7.78356" stroke="white" stroke-width="1.66957" stroke-linecap="round" stroke-linejoin="round"/>
<path d="M7.77606 14.2887H7.78356" stroke="white" stroke-width="1.66957" stroke-linecap="round" stroke-linejoin="round"/>
</svg>