<svg width="31" height="31" viewBox="0 0 31 31" fill="none" xmlns="http://www.w3.org/2000/svg">
<path d="M29.117 21.417C32.517 13.717 29.117 4.71703 21.417 1.31703C13.717 -2.08297 4.71703 1.31704 1.31703 9.01704C-2.08297 16.717 1.31704 25.717 9.01704 29.117C16.617 32.517 25.717 29.117 29.117 21.417Z" fill="#757575"/>
<path d="M18.617 9.71701C18.617 7.81701 17.117 6.31702 15.217 6.31702C13.317 6.31702 11.817 7.81701 11.817 9.71701C11.817 11.617 13.317 13.117 15.217 13.117C17.117 13.117 18.617 11.617 18.617 9.71701Z" fill="white"/>
<path d="M21.217 22.5171C20.717 22.5171 20.317 22.117 20.317 21.617C20.317 18.817 18.017 16.5171 15.217 16.5171C12.417 16.5171 10.117 18.817 10.117 21.617C10.117 22.117 9.71701 22.5171 9.21701 22.5171C8.71701 22.5171 8.31702 22.117 8.31702 21.617C8.31702 17.817 11.417 14.717 15.217 14.717C19.017 14.717 22.117 17.817 22.117 21.617C22.117 22.117 21.717 22.5171 21.217 22.5171Z" fill="white"/>
</svg>