    <svg width="112" height="26" viewBox="0 0 112 26" fill="none" xmlns="http://www.w3.org/2000/svg">
    <path d="M18.2227 25H14.7773L11.666 8.72266L8.76562 25H5.30273L0.802734 0.988281H4.40625L7.13086 16.4746L10.0137 0.988281H13.2305L16.3945 16.4746L18.8027 0.988281H22.3008L18.2227 25ZM35.5723 19.4629C35.5723 20.248 35.502 21.0039 35.3613 21.7305C35.2324 22.4453 34.8926 23.1133 34.3418 23.7344C33.791 24.3672 33.1348 24.7949 32.373 25.0176C31.623 25.2402 30.8496 25.3516 30.0527 25.3516C28.9277 25.3516 28.002 25.1934 27.2754 24.877C26.5605 24.5488 25.9922 24.0918 25.5703 23.5059C25.1602 22.9199 24.8672 22.2227 24.6914 21.4141C24.5273 20.5938 24.4453 19.6797 24.4453 18.6719V13.293C24.4453 12.3672 24.5098 11.4648 24.6387 10.5859C24.7793 9.70703 25.1953 8.92188 25.8867 8.23047C26.4375 7.70312 27.0645 7.32812 27.7676 7.10547C28.4824 6.87109 29.209 6.75391 29.9473 6.75391C30.7676 6.75391 31.5352 6.88281 32.25 7.14062C32.9766 7.38672 33.6152 7.80859 34.166 8.40625C34.5059 8.76953 34.7637 9.16211 34.9395 9.58398C35.1152 9.99414 35.25 10.4219 35.3438 10.8672C35.4492 11.3125 35.5078 11.7754 35.5195 12.2559C35.5312 12.7363 35.5371 13.2051 35.5371 13.6621V16.6152H27.7852V18.2324C27.7852 18.666 27.791 19.123 27.8027 19.6035C27.8262 20.084 27.9082 20.5234 28.0488 20.9219C28.1895 21.3086 28.4121 21.6367 28.7168 21.9062C29.0332 22.1641 29.4961 22.293 30.1055 22.293C30.6094 22.293 31.002 22.1875 31.2832 21.9766C31.5762 21.7656 31.793 21.4902 31.9336 21.1504C32.0742 20.8105 32.1562 20.4414 32.1797 20.043C32.2031 19.6328 32.2148 19.2227 32.2148 18.8125H35.5723V19.4629ZM32.1797 12.6953C32.1797 12.2852 32.1562 11.8984 32.1094 11.5352C32.0625 11.1719 31.9512 10.8555 31.7754 10.5859C31.6113 10.3047 31.3828 10.0879 31.0898 9.93555C30.8086 9.7832 30.4277 9.70703 29.9473 9.70703C29.4902 9.70703 29.1152 9.78906 28.8223 9.95312C28.541 10.1172 28.3242 10.3398 28.1719 10.6211C28.0195 10.8906 27.9141 11.207 27.8555 11.5703C27.8086 11.9336 27.7852 12.3086 27.7852 12.6953V13.6621H32.1797V12.6953ZM38.5605 25V0.988281H41.9531V25H38.5605ZM56.0332 19.3047C56.0332 20.1016 55.9629 20.8809 55.8223 21.6426C55.6934 22.3926 55.3535 23.0781 54.8027 23.6992C54.252 24.332 53.5957 24.7656 52.834 25C52.084 25.2344 51.3105 25.3516 50.5137 25.3516C49.6582 25.3516 48.832 25.2168 48.0352 24.9473C47.25 24.666 46.5762 24.1797 46.0137 23.4883C45.4863 22.8203 45.1699 22.0527 45.0645 21.1855C44.959 20.3184 44.9062 19.4805 44.9062 18.6719V13.4863C44.9062 12.6191 44.959 11.7754 45.0645 10.9551C45.1699 10.123 45.4863 9.34375 46.0137 8.61719C46.5527 7.92578 47.2324 7.44531 48.0527 7.17578C48.8848 6.89453 49.7227 6.75391 50.5664 6.75391C51.3516 6.75391 52.1133 6.87695 52.8516 7.12305C53.6016 7.35742 54.252 7.77344 54.8027 8.37109C55.4238 9.03906 55.7812 9.8125 55.875 10.6914C55.9805 11.5703 56.0332 12.4375 56.0332 13.293H52.6758C52.6758 12.8945 52.6641 12.4902 52.6406 12.0801C52.6172 11.6699 52.5352 11.3008 52.3945 10.9727C52.2539 10.6328 52.0371 10.3574 51.7441 10.1465C51.4629 9.92383 51.0527 9.8125 50.5137 9.8125C49.9395 9.8125 49.4941 9.94727 49.1777 10.2168C48.873 10.4746 48.6504 10.8086 48.5098 11.2188C48.3691 11.6172 48.2871 12.0566 48.2637 12.5371C48.252 13.0176 48.2461 13.4746 48.2461 13.9082V18.2324C48.2461 18.666 48.252 19.1172 48.2637 19.5859C48.2871 20.0547 48.3691 20.4941 48.5098 20.9043C48.6504 21.3027 48.873 21.6367 49.1777 21.9062C49.4941 22.1641 49.9395 22.293 50.5137 22.293C51.0527 22.293 51.4629 22.1816 51.7441 21.959C52.0371 21.7246 52.2539 21.4375 52.3945 21.0977C52.5352 20.7461 52.6172 20.3535 52.6406 19.9199C52.6641 19.4863 52.6758 19.0703 52.6758 18.6719H56.0332V19.3047ZM69.4629 18.8477C69.4629 19.7852 69.3926 20.6934 69.252 21.5723C69.123 22.4395 68.7129 23.2246 68.0215 23.9277C67.4707 24.4785 66.8379 24.8535 66.123 25.0527C65.4199 25.252 64.6934 25.3516 63.9434 25.3516C63.1816 25.3516 62.4492 25.2461 61.7461 25.0352C61.0547 24.8242 60.4336 24.4551 59.8828 23.9277C59.1797 23.2715 58.7695 22.4922 58.6523 21.5898C58.5352 20.6758 58.4766 19.7617 58.4766 18.8477V13.293C58.4766 12.8359 58.4824 12.3848 58.4941 11.9395C58.5059 11.4824 58.5586 11.0371 58.6523 10.6035C58.7461 10.1699 58.8867 9.75391 59.0742 9.35547C59.2734 8.95703 59.543 8.58203 59.8828 8.23047C60.4336 7.67969 61.0605 7.29883 61.7637 7.08789C62.4785 6.86523 63.2051 6.75391 63.9434 6.75391C64.7168 6.75391 65.4492 6.86523 66.1406 7.08789C66.8438 7.29883 67.4707 7.67969 68.0215 8.23047C68.373 8.55859 68.6426 8.92773 68.8301 9.33789C69.0293 9.74805 69.1699 10.1699 69.252 10.6035C69.3457 11.0371 69.4043 11.4824 69.4277 11.9395C69.4512 12.3848 69.4629 12.8359 69.4629 13.293V18.8477ZM66.1055 13.082C66.1055 12.6953 66.082 12.3086 66.0352 11.9219C65.9883 11.5234 65.8887 11.1719 65.7363 10.8672C65.5957 10.5508 65.3789 10.2988 65.0859 10.1113C64.8047 9.91211 64.4238 9.8125 63.9434 9.8125C63.4629 9.8125 63.082 9.91797 62.8008 10.1289C62.5312 10.3281 62.3262 10.5859 62.1855 10.9023C62.0449 11.207 61.9453 11.5527 61.8867 11.9395C61.8398 12.3145 61.8164 12.6953 61.8164 13.082V19.0234C61.8164 19.4102 61.8398 19.7969 61.8867 20.1836C61.9453 20.5586 62.0449 20.9043 62.1855 21.2207C62.3262 21.5371 62.5312 21.7949 62.8008 21.9941C63.082 22.1934 63.4629 22.293 63.9434 22.293C64.4238 22.293 64.8047 22.1992 65.0859 22.0117C65.3789 21.8242 65.5957 21.5723 65.7363 21.2559C65.8887 20.9395 65.9883 20.5879 66.0352 20.2012C66.082 19.8027 66.1055 19.4102 66.1055 19.0234V13.082ZM87.2168 25V11.9043C87.2168 11.6582 87.2109 11.418 87.1992 11.1836C87.1875 10.9375 87.1348 10.7148 87.041 10.5156C86.959 10.3047 86.8301 10.1348 86.6543 10.0059C86.4785 9.87695 86.2324 9.8125 85.916 9.8125C85.3652 9.8125 84.8496 10.0117 84.3691 10.4102C83.8887 10.7969 83.4902 11.1953 83.1738 11.6055V25H79.834V11.9043C79.834 11.6582 79.8281 11.418 79.8164 11.1836C79.8047 10.9375 79.752 10.7148 79.6582 10.5156C79.5762 10.3047 79.4473 10.1348 79.2715 10.0059C79.0957 9.87695 78.8496 9.8125 78.5332 9.8125C77.9824 9.8125 77.4727 10.0117 77.0039 10.4102C76.5352 10.7969 76.1484 11.1953 75.8438 11.6055V25H72.4512V7.10547H75.8438V9.4082C76.4414 8.7168 77.0859 8.125 77.7773 7.63281C78.4688 7.14062 79.2949 6.89453 80.2559 6.89453C81.0996 6.89453 81.7441 7.12305 82.1895 7.58008C82.6348 8.03711 82.9277 8.64648 83.0684 9.4082C83.6895 8.74023 84.3574 8.1543 85.0723 7.65039C85.7988 7.14648 86.6426 6.89453 87.6035 6.89453C88.2246 6.89453 88.7285 7.01758 89.1152 7.26367C89.502 7.49805 89.8008 7.80859 90.0117 8.19531C90.2344 8.57031 90.3809 9.00391 90.4512 9.49609C90.5215 9.98828 90.5566 10.498 90.5566 11.0254V25H87.2168ZM104.654 19.4629C104.654 20.248 104.584 21.0039 104.443 21.7305C104.314 22.4453 103.975 23.1133 103.424 23.7344C102.873 24.3672 102.217 24.7949 101.455 25.0176C100.705 25.2402 99.9316 25.3516 99.1348 25.3516C98.0098 25.3516 97.084 25.1934 96.3574 24.877C95.6426 24.5488 95.0742 24.0918 94.6523 23.5059C94.2422 22.9199 93.9492 22.2227 93.7734 21.4141C93.6094 20.5938 93.5273 19.6797 93.5273 18.6719V13.293C93.5273 12.3672 93.5918 11.4648 93.7207 10.5859C93.8613 9.70703 94.2773 8.92188 94.9688 8.23047C95.5195 7.70312 96.1465 7.32812 96.8496 7.10547C97.5645 6.87109 98.291 6.75391 99.0293 6.75391C99.8496 6.75391 100.617 6.88281 101.332 7.14062C102.059 7.38672 102.697 7.80859 103.248 8.40625C103.588 8.76953 103.846 9.16211 104.021 9.58398C104.197 9.99414 104.332 10.4219 104.426 10.8672C104.531 11.3125 104.59 11.7754 104.602 12.2559C104.613 12.7363 104.619 13.2051 104.619 13.6621V16.6152H96.8672V18.2324C96.8672 18.666 96.873 19.123 96.8848 19.6035C96.9082 20.084 96.9902 20.5234 97.1309 20.9219C97.2715 21.3086 97.4941 21.6367 97.7988 21.9062C98.1152 22.1641 98.5781 22.293 99.1875 22.293C99.6914 22.293 100.084 22.1875 100.365 21.9766C100.658 21.7656 100.875 21.4902 101.016 21.1504C101.156 20.8105 101.238 20.4414 101.262 20.043C101.285 19.6328 101.297 19.2227 101.297 18.8125H104.654V19.4629ZM101.262 12.6953C101.262 12.2852 101.238 11.8984 101.191 11.5352C101.145 11.1719 101.033 10.8555 100.857 10.5859C100.693 10.3047 100.465 10.0879 100.172 9.93555C99.8906 9.7832 99.5098 9.70703 99.0293 9.70703C98.5723 9.70703 98.1973 9.78906 97.9043 9.95312C97.623 10.1172 97.4062 10.3398 97.2539 10.6211C97.1016 10.8906 96.9961 11.207 96.9375 11.5703C96.8906 11.9336 96.8672 12.3086 96.8672 12.6953V13.6621H101.262V12.6953ZM111.088 17.7578H108.855L107.994 0.988281H111.949L111.088 17.7578ZM108.24 25V21.1504H111.738V25H108.24Z" fill="url(#paint0_linear_80_848)"/>
    <defs>
    <linearGradient id="paint0_linear_80_848" x1="1.23158e-06" y1="2.49998" x2="114.756" y2="7.44405" gradientUnits="userSpaceOnUse">
    <stop stop-color="#FF586C"/>
    <stop offset="0.635417" stop-color="#FF935C"/>
    </linearGradient>
    </defs>
    </svg>